<?xml version="1.0" encoding="UTF-8"?>
<svg width="157px" height="215px" viewBox="0 0 157 215" version="1.1" xmlns="http://www.w3.org/2000/svg" xmlns:xlink="http://www.w3.org/1999/xlink">
    <!-- Generator: Sketch 55 (78076) - https://sketchapp.com -->
    <title>ic_appoitment</title>
    <desc>Created with Sketch.</desc>
    <g id="Screen" stroke="none" stroke-width="1" fill="none" fill-rule="evenodd">
        <g id="03_Walkthroughs_03" transform="translate(-109.000000, -136.000000)">
            <g id="ic_appoitment" transform="translate(109.000000, 136.000000)">
                <path d="M78.260754,39.56 C69.7335898,39.56 62.8219824,46.7480297 62.8219824,55.6167514 L62.8219824,68.2242941 L50.6987716,68.2242941 C42.1716074,68.2242941 35.26,75.4123238 35.26,84.2789545 C35.26,93.1476762 42.1716074,100.335706 50.6987716,100.335706 L62.8219824,100.335706 L62.8219824,112.943249 C62.8219824,121.81197 69.7335898,129 78.260754,129 C86.7864102,129 93.6980176,121.81197 93.6980176,112.943249 L93.6980176,100.335706 L105.821228,100.335706 C114.348393,100.335706 121.26,93.1476762 121.26,84.2789545 C121.26,75.4123238 114.348393,68.2242941 105.821228,68.2242941 L93.6980176,68.2242941 L93.6980176,55.6146604 C93.6980176,46.7480297 86.7864102,39.56 78.260754,39.56 L78.260754,39.56 Z" id="Fill-1" fill="#809CF9"></path>
                <path d="M77.8307544,135.02 C66.2450013,135.02 56.8184683,125.178261 56.8184683,113.079613 L56.8184683,106.220649 L50.2522861,106.220649 C38.6665329,106.220649 29.24,96.3789102 29.24,84.2802626 C29.24,72.181615 38.6665329,62.3372498 50.2522861,62.3372498 L56.8184683,62.3372498 L56.8184683,55.4809119 C56.8184683,43.3838399 66.2429894,33.54 77.8307544,33.54 C89.4170106,33.54 98.8415317,43.3822643 98.8415317,55.4809119 L98.8415317,62.3393508 L105.407714,62.3393508 C116.993467,62.3393508 126.42,72.181615 126.42,84.2802626 C126.42,96.3789102 116.993467,106.22275 105.407714,106.22275 L98.8415317,106.22275 L98.8415317,113.079613 C98.8415317,125.178261 89.4149987,135.02 77.8307544,135.02 L77.8307544,135.02 Z M50.2905242,74.3843452 C44.8484761,74.3843452 40.42,79.0164294 40.42,84.709212 C40.42,90.4019946 44.8484761,95.0356548 50.2905242,95.0356548 L62.4041668,95.0356548 C65.4704984,95.0356548 67.9582201,97.6356531 67.9582201,100.845592 L67.9582201,113.515659 C67.9582201,119.208441 72.3866962,123.84 77.8292466,123.84 C83.271797,123.84 87.6997708,119.208441 87.6997708,113.515659 L87.6997708,100.845592 C87.6997708,97.6356531 90.1874925,95.0356548 93.2558332,95.0356548 L105.369476,95.0356548 C110.812026,95.0356548 115.24,90.4019946 115.24,84.709212 C115.24,79.0164294 110.812026,74.3843452 105.369476,74.3843452 L93.2558332,74.3843452 C90.1874925,74.3843452 87.6997708,71.7822455 87.6997708,68.574933 L87.6997708,55.9048668 C87.6997708,50.2099827 83.271797,45.58 77.8292466,45.58 C72.3866962,45.58 67.9582201,50.2120842 67.9582201,55.9048668 L67.9582201,68.574933 C67.9582201,71.7822455 65.4704984,74.3843452 62.4041668,74.3843452 L50.2905242,74.3843452 Z" id="Fill-2" fill="#475EEE"></path>
                <path d="M95.46,185.76 L127.28,185.76 L127.28,207.353411 C127.28,208.512074 125.952378,209.296702 124.74554,208.853792 L112.072741,204.184703 C111.622548,204.019407 111.117452,204.019407 110.66676,204.184703 L97.99446,208.853792 C96.7876218,209.298821 95.46,208.512074 95.46,207.353411 L95.46,185.76 Z" id="Fill-3" fill="#809CF9"></path>
                <path d="M125.926282,214.14 C125.065531,214.14 124.218801,213.988734 123.405118,213.695591 L111.80025,209.500303 L100.197386,213.695591 C99.3837031,213.988734 98.5349694,214.14 97.6742183,214.14 C93.6098108,214.14 90.3,210.83301 90.3,206.770211 L90.3,185.508455 C90.3,182.323521 92.7801048,179.74 95.8395517,179.74 L127.762952,179.74 C130.819895,179.74 133.3,182.323521 133.3,185.508455 L133.3,206.770211 C133.3,210.83301 129.992693,214.137914 125.926282,214.14 L125.926282,214.14 Z M111.800248,197.189654 C112.653948,197.189654 113.492774,197.331985 114.292436,197.615639 L122.12,200.38 L122.12,190.92 L101.48,190.92 L101.48,200.38 L109.304093,197.615639 C110.107721,197.331985 110.948035,197.189654 111.800248,197.189654 L111.800248,197.189654 Z" id="Fill-4" fill="#475EEE"></path>
                <path d="M138.632043,190.92 L25.1543232,190.92 C11.2841446,190.92 0,179.241311 0,164.885645 L0,26.0338322 C0,11.6786894 11.2841446,0 25.1543232,0 L138.632043,0 C148.495057,0 156.52,8.30553154 156.52,18.5134007 L156.52,123.90196 C156.52,127.095189 154.016848,129.685862 150.929477,129.685862 C147.843621,129.685862 145.340469,127.095189 145.340469,123.90196 L145.340469,18.5134007 C145.340469,14.6841421 142.331937,11.5704177 138.632043,11.5704177 L25.1543232,11.5704177 C17.4492861,11.5704177 11.1795307,18.0593921 11.1795307,26.0338322 L11.1795307,164.885645 C11.1795307,172.860085 17.4492861,179.349582 25.1543232,179.349582 L138.632043,179.349582 C142.331937,179.349582 145.340469,176.235335 145.340469,172.406599 L145.340469,153.407284 C145.340469,150.213533 147.841599,147.62286 150.929477,147.62286 C154.016848,147.62286 156.52,150.213533 156.52,153.407284 L156.52,172.406599 C156.52,182.614468 148.495057,190.92 138.632043,190.92 L138.632043,190.92 Z" id="Fill-6" fill="#475EEE"></path>
                <path d="M107.068012,154.8 L48.5899657,154.8 C45.5015589,154.8 43,152.296743 43,149.211264 C43,146.123257 45.5015589,143.62 48.5899657,143.62 L107.068012,143.62 C110.156419,143.62 112.66,146.123257 112.66,149.211264 C112.66,152.296743 110.156419,154.8 107.068012,154.8 L107.068012,154.8 Z" id="Fill-8" fill="#475EEE"></path>
            </g>
        </g>
    </g>
</svg>