<?xml version="1.0" encoding="UTF-8"?>
<svg width="22px" height="22px" viewBox="0 0 22 22" version="1.1" xmlns="http://www.w3.org/2000/svg" xmlns:xlink="http://www.w3.org/1999/xlink">
    <!-- Generator: Sketch 55 (78076) - https://sketchapp.com -->
    <title>ic_add_grey</title>
    <desc>Created with Sketch.</desc>
    <g id="Screen" stroke="none" stroke-width="1" fill="none" fill-rule="evenodd">
        <g id="26_Doctor-Message" transform="translate(-296.000000, -747.000000)" fill="#969696">
            <g id="leave-message" transform="translate(0.000000, 733.000000)">
                <path d="M308.130506,25.0053585 L310.014794,26.889422 C310.328711,27.207909 310.328711,27.7193385 310.014794,28.0332276 C309.857723,28.1902283 309.651361,28.2710836 309.445055,28.2710836 C309.238469,28.2710836 309.032106,28.1902283 308.875316,28.0332276 L306.991028,26.1493323 L305.106739,28.0332276 C304.949949,28.1902283 304.743587,28.2710836 304.537,28.2710836 C304.330694,28.2710836 304.124332,28.1902283 303.967261,28.0332276 C303.653344,27.7147406 303.653344,27.2033111 303.967261,26.889422 L305.85155,25.0053585 L303.967261,23.1214631 C303.653344,22.8027518 303.653344,22.2915466 303.967261,21.9774893 C304.286001,21.6636002 304.797252,21.6636002 305.111338,21.9774893 L306.995402,23.8615528 L308.87969,21.9774893 C309.198149,21.6636002 309.709625,21.6636002 310.023542,21.9774893 C310.342282,22.2915466 310.342282,22.8027518 310.014794,23.1214631 L308.130506,25.0053585 Z M314.7789,17.2225572 C316.856148,19.2996194 318,22.0626621 318,25.0009288 C318,27.9390273 316.856148,30.7022943 314.7789,32.7791322 C312.701876,34.8559701 309.938362,36 307,36 C304.061695,36 301.298124,34.8559701 299.2211,32.7791322 C297.143852,30.7022943 296,27.9390273 296,25.0009288 C296,22.0626621 297.143852,19.2996194 299.2211,17.2225572 C301.858891,14.5850028 305.613841,13.4681676 309.265441,14.2396014 C309.700653,14.3293721 309.978849,14.7600024 309.88907,15.1950063 C309.799235,15.6301783 309.368566,15.9083498 308.93358,15.8185791 C305.815605,15.1636622 302.608075,16.1190671 300.360634,18.366531 C296.699837,22.0267202 296.699837,27.9793428 300.360634,31.6397562 C302.137087,33.4116765 304.492307,34.3850804 307,34.3850804 C309.507693,34.3850804 311.867511,33.4070786 313.639422,31.6353827 C317.107147,28.1679117 317.291191,22.6413216 314.186786,18.9585916 L312.271207,20.8739992 C311.952692,21.1880565 311.441216,21.1880565 311.127355,20.8739992 C310.813214,20.5555122 310.813214,20.0440827 311.127355,19.7301936 L313.639422,17.2225572 C313.953507,16.9086681 314.464983,16.9086681 314.7789,17.2225572 Z" id="ic_add_grey" transform="translate(307.000000, 25.000000) rotate(-315.000000) translate(-307.000000, -25.000000) "></path>
            </g>
        </g>
    </g>
</svg>