<?xml version="1.0" encoding="UTF-8"?>
<svg width="24px" height="22px" viewBox="0 0 24 22" version="1.1" xmlns="http://www.w3.org/2000/svg" xmlns:xlink="http://www.w3.org/1999/xlink">
    <!-- Generator: Sketch 55 (78076) - https://sketchapp.com -->
    <title>speech-bubble-1</title>
    <desc>Created with Sketch.</desc>
    <g id="Screen" stroke="none" stroke-width="1" fill="none" fill-rule="evenodd">
        <g id="32_List-Doctors-Active" transform="translate(-213.000000, -175.000000)" fill="#FFFFFF">
            <g id="action" transform="translate(153.000000, 162.000000)">
                <g id="speech-bubble-1" transform="translate(60.000000, 13.000000)">
                    <path d="M20.4128286,3.10433019 C18.1541893,1.10278226 15.1635192,0 11.9815243,0 C8.79952941,0 5.80916624,1.10278226 3.55028133,3.10433019 C1.2619335,5.13574178 0,7.84277979 0,10.73347 C0,13.0134763 0.81998977,15.2485941 2.31787212,17.0813285 C2.02318159,17.662397 1.6203376,18.1244455 1.10964706,18.4620104 C0.68740665,18.7402205 0.48626087,19.2420044 0.599202046,19.7386972 C0.707109974,20.230299 1.10007161,20.588042 1.5911202,20.6573927 C2.60243478,20.8014336 4.57651151,20.8710327 6.40806138,19.7634077 C6.82551407,19.5099702 6.96313043,18.9587032 6.71257289,18.5365143 C6.46226087,18.1145117 5.91701279,17.9753135 5.49986701,18.228751 C4.73376982,18.6904891 3.92360102,18.8791703 3.22127877,18.9339928 C3.62387724,18.4472338 3.94299744,17.8760991 4.17870077,17.2302743 C4.29667519,16.9122667 4.22307928,16.5596769 4.00198465,16.3113305 C2.53865985,14.7121037 1.76783632,12.7799065 1.76783632,10.73347 C1.76783632,5.80143434 6.34931969,1.78815627 11.9815243,1.78815627 C17.6139744,1.78815627 22.1955192,5.80143434 22.1955192,10.73347 C22.1955192,15.6656919 17.6139744,19.679032 11.9815243,19.679032 C11.1665678,19.679032 10.3513657,19.5946563 9.5656266,19.4255945 C9.0891867,19.321289 8.61778005,19.6341434 8.51975448,20.1160596 C8.41663427,20.5979758 8.7259335,21.0747389 9.2023734,21.1739533 C10.1106292,21.3677255 11.0438056,21.4671883 11.9865575,21.4671883 C15.1635192,21.4671883 18.158977,20.364406 20.4178619,18.3628581 C22.7011765,16.3311982 23.9630486,13.6243464 23.9630486,10.73347 C23.9630486,7.84277979 22.7011765,5.13574178 20.4128286,3.10433019 L20.4128286,3.10433019 Z" id="Fill-1"></path>
                    <path d="M13.1355499,10.7483708 C13.1355499,11.395934 12.6166957,11.9207521 11.9767366,11.9207521 C11.336532,11.9207521 10.8176777,11.395934 10.8176777,10.7483708 C10.8176777,10.1010558 11.336532,9.57623776 11.9767366,9.57623776 C12.6166957,9.57623776 13.1355499,10.1010558 13.1355499,10.7483708 L13.1355499,10.7483708 Z" id="Fill-2"></path>
                    <path d="M16.7496061,10.7483708 C16.7496061,11.395934 16.2307519,11.9207521 15.5907928,11.9207521 C14.9508338,11.9207521 14.4319795,11.395934 14.4319795,10.7483708 C14.4319795,10.1010558 14.9508338,9.57623776 15.5907928,9.57623776 C16.2307519,9.57623776 16.7496061,10.1010558 16.7496061,10.7483708 L16.7496061,10.7483708 Z" id="Fill-3"></path>
                    <path d="M9.52149361,10.7483708 C9.52149361,11.395934 9.00263939,11.9207521 8.36243478,11.9207521 C7.7224757,11.9207521 7.20362148,11.395934 7.20362148,10.7483708 C7.20362148,10.1010558 7.7224757,9.57623776 8.36243478,9.57623776 C9.00263939,9.57623776 9.52149361,10.1010558 9.52149361,10.7483708 L9.52149361,10.7483708 Z" id="Fill-4"></path>
                </g>
            </g>
        </g>
    </g>
</svg>