<?xml version="1.0" encoding="UTF-8"?>
<svg width="160px" height="215px" viewBox="0 0 160 215" version="1.1" xmlns="http://www.w3.org/2000/svg" xmlns:xlink="http://www.w3.org/1999/xlink">
    <!-- Generator: Sketch 55 (78076) - https://sketchapp.com -->
    <title>ic_doctor</title>
    <desc>Created with Sketch.</desc>
    <g id="Screen" stroke="none" stroke-width="1" fill="none" fill-rule="evenodd">
        <g id="01_Walkthroughs_01" transform="translate(-108.000000, -136.000000)">
            <g id="ic_doctor" transform="translate(108.000000, 136.000000)">
                <path d="M79.9821034,120.02008 C61.549498,120.02008 47.2332422,105.920129 39.9830981,92.7229576 C39.9584555,92.6777924 39.9343373,92.6310516 39.9096948,92.5858864 L39.7969684,92.3805422 C38.5905335,90.142238 37.505214,87.1350747 36.5834788,83.4667137 C36.1163196,81.6144146 35.6947752,79.6350226 35.3340506,77.5873576 C32.9133162,63.8056639 31.7787116,36.4612752 42.8793807,21.3687398 C53.5889153,6.80768348 70.7065538,7.43737065 79.9821034,10.2129309 C89.2560801,7.43737065 106.375816,6.80978419 117.083253,21.3687398 C127.381205,35.3678568 126.649794,58.6484262 125.857039,68.0070796 C125.574437,71.3303994 122.662425,73.7982059 119.338306,73.5172362 C116.018382,73.2341658 113.554654,70.3110309 113.837256,66.9856104 C115.223529,50.5796074 112.747742,35.846293 107.371479,28.5347794 C98.365948,16.291329 82.7923993,21.9842472 82.1349159,22.2326559 C80.7318652,22.7783148 79.2019317,22.7678112 77.7988809,22.2221524 C77.1681373,21.9842472 61.5945886,16.2934297 52.5911553,28.5347794 C45.3698482,38.3529626 44.4213733,59.5879678 47.2148914,75.4887505 C47.5242337,77.247043 47.882861,78.9370624 48.2802872,80.5125933 C49.1689908,84.0538615 50.0047393,85.883578 50.4220892,86.6608399 C50.4839577,86.7695516 50.5369129,86.8661841 50.5861979,86.9628167 C55.9315276,96.6539071 66.8193272,107.936809 79.9800061,107.936809 C86.0342016,107.936809 91.9982159,105.596095 97.7084646,100.980315 C102.148837,97.3881045 105.347646,93.2628395 107.246169,90.4358119 C109.105893,87.6660286 112.854177,86.933932 115.618858,88.7967346 C118.381966,90.6595373 119.11495,94.4135022 117.253129,97.1832855 C113.865569,102.225509 109.726674,106.790348 105.286302,110.382033 C97.4872062,116.688358 88.7380628,120.02008 79.9821034,120.02008 L79.9821034,120.02008 Z" id="Fill-1" fill="#4F6DE6"></path>
                <path d="M119.946801,23.4341477 C119.945223,23.4299548 119.943118,23.425762 119.943118,23.4215691 C119.941013,23.4173762 119.938908,23.4152798 119.938908,23.411611 C118.530795,19.9226105 110.989284,6.04836959 80.03394,6.04417671 L80.0007893,6.04417671 C45.2983688,6.04417671 39.7837838,24.1998725 39.7837838,24.1998725 L39.7837838,57.8514056 L41.251358,57.8514056 C47.978836,52.5793828 62.798757,48.9189983 80.0007893,48.9189983 L80.03394,48.9189983 C90.7758043,48.9205706 100.586293,50.3519151 108.076762,52.7104103 C108.117806,52.7245612 108.15885,52.7371399 108.199893,52.7512909 C108.530874,52.8555888 108.859749,52.9619831 109.180206,53.0704739 C109.248085,53.0930106 109.311756,53.1176438 109.378057,53.1401805 C109.671677,53.2408096 109.965823,53.3409146 110.251551,53.4452125 C110.34995,53.4803279 110.444666,53.5191121 110.540961,53.5537033 C110.789854,53.6459467 111.040852,53.7381901 111.28343,53.8325299 C111.431293,53.8896579 111.572841,53.9488823 111.71702,54.0065344 C111.905926,54.0820062 112.095358,54.1559058 112.27795,54.2313776 C112.450544,54.3031807 112.615245,54.3770802 112.781524,54.4504556 C112.931492,54.5138729 113.087773,54.5793867 113.236162,54.6449004 C113.414544,54.7271857 113.589243,54.8089469 113.763941,54.890708 C113.893913,54.9499325 114.025463,55.009681 114.150699,55.0689054 C114.395382,55.1878784 114.631646,55.3063273 114.867911,55.4273967 C114.919478,55.4536022 114.974729,55.4782354 115.026297,55.504965 C116.450723,56.2418637 117.698345,57.0259323 118.748642,57.8514056 L120.216216,57.8514056 L120.216216,24.1998725 C120.216216,24.1998725 120.142548,23.921046 119.946801,23.4341477 L119.946801,23.4341477 Z" id="Fill-2" fill="#82A0F6"></path>
                <path d="M120.214805,63.8955823 L118.749349,63.8955823 C117.39071,63.8955823 116.073115,63.4409644 115.006515,62.6056629 C114.260369,62.0215286 113.329002,61.4379188 112.233461,60.870564 L112.122434,60.8170795 C111.910903,60.7085375 111.719894,60.6125801 111.52257,60.5160983 L109.084704,59.4652859 C108.89159,59.3897784 108.690056,59.315844 108.490628,59.2419096 L108.184382,59.1275996 C107.927598,59.0353127 107.668184,58.9430258 107.40719,58.8549337 L107.25091,58.7998762 C106.948873,58.6991996 106.657361,58.6032422 106.361112,58.5109552 L106.221144,58.4637631 C99.0685596,56.2105989 89.7548876,54.9631524 80.0307825,54.9589576 L79.9402767,54.9589576 C62.5552817,54.9589576 49.846592,58.7998762 44.9934848,62.6056629 C43.9268852,63.4409644 42.6071852,63.8955823 41.2506515,63.8955823 L39.7851952,63.8955823 C36.4406924,63.8955823 33.7297297,61.19619 33.7297297,57.8638981 L33.7297297,24.1964765 C33.7297297,23.6044769 33.8181307,23.0166722 33.9886182,22.448793 C34.2680284,21.5332648 41.2506515,0 79.9997369,0 L80.0597233,0 C114.330353,0.0120602223 123.534576,16.1627954 125.548855,21.1420941 C125.55096,21.1504838 125.55517,21.1588736 125.558853,21.1667389 C125.859311,21.9165701 126.007172,22.4246726 126.070842,22.6643039 C126.202391,23.1640166 126.27027,23.677887 126.27027,24.1964765 L126.27027,57.8618007 C126.268165,61.1940925 123.557203,63.8955823 120.214805,63.8955823 L120.214805,63.8955823 Z M45.8378378,25.3178165 L45.8378378,48.3534137 C54.6099682,44.8231219 66.8112854,42.7668287 80.0007893,42.7668287 L80.0933989,42.7668287 C90.9645052,42.7689158 101.570937,44.2095211 109.899489,46.8204552 L110.057346,46.8695015 C110.405158,46.9795948 110.768756,47.0975147 111.124461,47.2180434 L111.305471,47.2790905 C111.673279,47.4053587 112.000043,47.5175391 112.318389,47.6338937 L112.639365,47.7518135 C112.64147,47.7518135 112.69672,47.7742496 112.70093,47.7742496 C112.96192,47.8723423 113.225016,47.9678261 113.479692,48.0659187 C113.605452,48.114965 113.726476,48.1634896 113.848026,48.2125359 L114.113226,48.3184551 C114.129538,48.3247163 114.14585,48.3309776 114.162162,48.336717 L114.162162,25.2484212 C112.81827,22.3505139 106.205628,12.0946146 80.0423584,12.0883534 L79.9555369,12.0883534 C54.1148225,12.0883534 47.1591035,22.6927947 45.8378378,25.3178165 L45.8378378,25.3178165 Z" id="Fill-3" fill="#4F6DE6"></path>
                <path d="M106.421905,140.742972 C104.438264,140.742972 102.495415,139.748954 101.347487,137.928974 C97.7907405,132.291965 95.3923814,125.377312 94.0933138,116.957054 C89.470223,118.926535 84.708021,119.920552 79.8522067,119.920552 C74.9984843,119.920552 70.2368054,118.926535 65.6137145,116.954933 C64.3570078,125.093686 62.0752719,131.821728 58.7088878,137.361191 C56.9642463,140.229794 53.2563601,141.119903 50.4286392,139.353468 C47.5993495,137.587032 46.7191841,133.828319 48.4638256,130.962367 C51.9363735,125.249018 53.9895697,117.112386 54.569548,106.776721 C54.6945388,104.560724 55.9956983,102.587533 57.9688795,101.626384 C59.9446755,100.663644 62.2776629,100.866689 64.0630964,102.152285 C69.1887653,105.848971 74.5021819,107.723026 79.8522067,107.723026 C85.2048464,107.723026 90.518263,105.848971 95.6455009,102.154406 C97.4293654,100.866689 99.7623528,100.665765 101.737626,101.626384 C103.710807,102.589653 105.014581,104.560724 105.139049,106.778842 C105.731579,117.35254 107.866359,125.621708 111.484294,131.355733 C113.273388,134.193057 112.456503,137.963963 109.657545,139.780233 C108.654481,140.430188 107.531133,140.742972 106.421905,140.742972 L106.421905,140.742972 Z" id="Fill-4" fill="#4F6DE6"></path>
                <path d="M6.05405405,208.955823 L6.05405405,175.751538 C6.05405405,153.079908 24.5079419,134.698795 47.2693349,134.698795 L73.3319545,155.609298 C77.223777,158.733778 82.776223,158.733778 86.6680455,155.609298 L112.730138,134.698795 C135.492058,134.698795 153.945946,153.079908 153.945946,175.751538 L153.945946,208.955823 L6.05405405,208.955823 Z" id="Fill-5" fill="#82A0F6"></path>
                <path d="M153.937554,215 L6.06033867,215 C2.71408769,215 0,212.295474 0,208.960085 L0,175.75105 C0,149.781725 21.2059173,128.654618 47.2721167,128.654618 C48.6549738,128.654618 49.9967404,129.125929 51.0751056,129.991398 L77.1334029,150.904893 C78.1706775,151.737297 79.2653736,151.911545 79.9997366,151.911545 C80.7346264,151.911545 81.8272153,151.735197 82.8644899,150.904893 L108.924894,129.991398 C110.001152,129.125929 111.342392,128.654618 112.725249,128.654618 C138.791975,128.654618 160,149.781725 160,175.75105 L160,208.960085 C160,212.295474 157.285386,215 153.937554,215 L153.937554,215 Z M12.1081081,202.911647 L147.891892,202.911647 L147.891892,175.723781 C147.891892,157.092978 133.229083,141.809585 114.797298,140.742972 L90.4709884,160.272335 C87.5155588,162.648188 83.796112,163.954802 80.0007904,163.954802 C76.2054687,163.954802 72.4865488,162.646087 69.5284847,160.272335 L45.2042824,140.742972 C26.7730244,141.809585 12.1081081,157.092978 12.1081081,175.723781 L12.1081081,202.911647 Z" id="Fill-7" fill="#4F6DE6"></path>
            </g>
        </g>
    </g>
</svg>