<?xml version="1.0" encoding="UTF-8"?>
<svg width="30px" height="30px" viewBox="0 0 30 30" version="1.1" xmlns="http://www.w3.org/2000/svg" xmlns:xlink="http://www.w3.org/1999/xlink">
    <!-- Generator: Sketch 55 (78076) - https://sketchapp.com -->
    <title>edit goal</title>
    <desc>Created with Sketch.</desc>
    <defs>
        <linearGradient x1="0.185585983%" y1="100%" x2="99.814414%" y2="50%" id="linearGradient-1">
            <stop stop-color="#4B66EA" offset="0%"></stop>
            <stop stop-color="#82A0F6" offset="100%"></stop>
        </linearGradient>
    </defs>
    <g id="Screen" stroke="none" stroke-width="1" fill="none" fill-rule="evenodd">
        <g id="38_Indicators-Details" transform="translate(-143.000000, -543.000000)">
            <g id="details" transform="translate(16.000000, 467.000000)">
                <g id="goal" transform="translate(16.000000, 24.000000)">
                    <g id="edit-goal" transform="translate(111.000000, 52.000000)">
                        <path d="M3.73087719,18.6726766 C3.73087719,12.4887246 8.74062989,7.47564103 14.9235088,7.47564103 L14.9235088,7.47564103 C21.1050285,7.47564103 26.1161404,12.4807663 26.1161404,18.6726766 L26.1161404,18.7055285 C26.1161404,24.8894805 21.1063876,29.9025641 14.9235088,29.9025641 L14.9235088,29.9025641 C8.74198904,29.9025641 3.73087719,24.8974388 3.73087719,18.7055285 L3.73087719,18.6726766 Z" id="Rectangle" fill="#4B66EA"></path>
                        <rect id="Rectangle" fill="url(#linearGradient-1)" x="0" y="0" width="29.8470175" height="29.9025641" rx="14.9235088"></rect>
                        <g id="cancel" transform="translate(14.933983, 15.326599) rotate(-315.000000) translate(-14.933983, -15.326599) translate(6.701983, 7.094599)" fill="#FFFFFF">
                            <path d="M8.73977237,7.97077891 L10.0973622,6.61082447 C10.3333102,6.38075181 10.3333102,6.01172078 10.1036649,5.78500773 C9.87749421,5.55841612 9.50898708,5.55841612 9.27954381,5.78500773 L7.92195398,7.14508361 L6.56452577,5.78500773 C6.33823386,5.55841612 5.96988833,5.55841612 5.74024306,5.78500773 C5.51407236,6.01172078 5.51407236,6.38075181 5.74024306,6.61082447 L7.09783288,7.97077891 L5.74024306,9.33085479 C5.51407236,9.55744641 5.51407236,9.92663935 5.74024306,10.1565501 C5.85340921,10.2698864 6.00208877,10.3282546 6.15072793,10.3282546 C6.2995691,10.3282546 6.44824866,10.2698864 6.5612128,10.1565501 L7.91880262,8.79659565 L9.27639245,10.1565501 C9.38935659,10.2698864 9.53803615,10.3282546 9.68687732,10.3282546 C9.83551648,10.3282546 9.98419604,10.2698864 10.0973622,10.1565501 C10.3235329,9.92995848 10.3235329,9.56076554 10.0973622,9.33085479 L8.73977237,7.97077891 Z" id="Fill-1"></path>
                            <path d="M13.5297995,2.35249695 C13.3036288,2.12590534 12.9351217,2.12590534 12.7088298,2.35249695 L10.8989389,4.16272026 C10.6726066,4.38931188 10.6726066,4.75850482 10.8989389,4.98841557 C11.1250692,5.21512861 11.4935764,5.21512861 11.72306,4.98841557 L13.1031942,3.60571291 C15.3398519,6.26421782 15.2072524,10.2537764 12.7088298,12.7568892 C11.4322057,14.0358487 9.73200641,14.7418528 7.92526695,14.7418528 C6.11852749,14.7418528 4.42164121,14.0391678 3.14174454,12.7600464 C0.504217636,10.1176515 0.504217636,5.82054675 3.14174454,3.17831369 C4.76097807,1.55590479 7.07193517,0.866213024 9.31837018,1.33898724 C9.63176892,1.4037913 9.94205669,1.2029837 10.0067808,0.888839804 C10.0714645,0.574817344 9.87102988,0.263952109 9.55746954,0.199148041 C6.92656857,-0.357737884 4.22120662,0.448487865 2.3207344,2.35249695 C0.824121102,3.85189551 -1.77635684e-13,5.84649267 -1.77635684e-13,7.96758121 C-1.77635684e-13,10.0885483 0.824121102,12.0833074 2.3207344,13.582544 C3.81718608,15.0817807 5.80828012,15.9076379 7.92526695,15.9076379 C10.0422942,15.9076379 12.0333478,15.0817807 13.5297995,13.582544 C15.0264128,12.0833074 15.8505339,10.0885483 15.8505339,7.96758121 C15.8505339,5.84649267 15.0264128,3.85189551 13.5297995,2.35249695 L13.5297995,2.35249695 Z" id="Fill-3"></path>
                        </g>
                    </g>
                </g>
            </g>
        </g>
    </g>
</svg>