<?xml version="1.0" encoding="UTF-8"?>
<svg width="16px" height="15px" viewBox="0 0 16 15" version="1.1" xmlns="http://www.w3.org/2000/svg" xmlns:xlink="http://www.w3.org/1999/xlink">
    <!-- Generator: Sketch 55 (78076) - https://sketchapp.com -->
    <title>ic_star_blue</title>
    <desc>Created with Sketch.</desc>
    <g id="Symbols" stroke="none" stroke-width="1" fill="none" fill-rule="evenodd">
        <g id="doctor-" transform="translate(-267.000000, -17.000000)" fill="#3F67E6">
            <g id="rate">
                <g transform="translate(267.000000, 13.000000)">
                    <path d="M0.378078403,10.4788046 L3.6503889,13.2078248 L2.60776223,17.336206 C2.50241024,17.7417692 2.62261664,18.1285931 2.92138056,18.3455435 C3.06779164,18.4520382 3.23972182,18.505057 3.41858406,18.505057 C3.60430217,18.505057 3.79710469,18.4479246 3.97589075,18.33366 L5.61162703,17.3046689 C5.82530189,17.1701414 5.88959479,16.8877554 5.75506723,16.6741567 C5.62053967,16.4604818 5.33845838,16.3961889 5.1248597,16.5307165 L3.49476048,17.556432 L4.60708857,13.1527493 C4.65020442,12.9822665 4.59162476,12.8021854 4.45648779,12.689749 L0.968445663,9.78102856 L5.50002857,9.47815111 C5.67561522,9.46649612 5.82857747,9.35520237 5.89401302,9.19188012 L7.58269191,4.9756676 L9.2710661,9.19218483 C9.33627311,9.35520237 9.4894639,9.46649612 9.66474584,9.47815111 L14.1966335,9.78102856 L10.7082866,12.689749 C10.5735305,12.8021854 10.5148747,12.9822665 10.5580667,13.1527493 L11.6703186,17.556432 L7.82607557,15.1378306 C7.67730303,15.0443622 7.4880808,15.0440575 7.33930825,15.1378306 L6.64838811,15.5722648 C6.43471325,15.7067161 6.37042035,15.9888736 6.50494791,16.202777 C6.63939929,16.4161471 6.92148058,16.48044 7.13515544,16.3462172 L7.58269191,16.0647453 L11.1868269,18.3321365 C11.5399808,18.5573902 11.9450108,18.5627987 12.2437747,18.3455435 C12.5425387,18.1285931 12.662745,17.7417692 12.5583072,17.3388721 L11.5146902,13.2078248 L14.7849439,10.4806328 C15.1086937,10.2146247 15.2387269,9.83077176 15.1244623,9.47990317 C15.0105023,9.12850134 14.679592,8.89463973 14.2642019,8.86934916 L10.0126436,8.58513493 L8.42984988,4.63226429 C8.2766591,4.24246955 7.9519952,4 7.58269191,4 C7.21316009,4 6.88849619,4.24246955 6.73644805,4.62959812 L5.15251174,8.58513493 L0.903848058,8.86934916 C0.485487156,8.89433502 0.154881491,9.12819664 0.0406168597,9.47959846 C-0.0733430655,9.83077176 0.0566900844,10.2146247 0.378078403,10.4788046 L0.378078403,10.4788046 Z" id="ic_star_blue"></path>
                </g>
            </g>
        </g>
    </g>
</svg>