<?xml version="1.0" encoding="UTF-8"?>
<svg width="25px" height="21px" viewBox="0 0 25 21" version="1.1" xmlns="http://www.w3.org/2000/svg" xmlns:xlink="http://www.w3.org/1999/xlink">
    <!-- Generator: Sketch 55 (78076) - https://sketchapp.com -->
    <title>ic_dashboard_grey</title>
    <desc>Created with Sketch.</desc>
    <g id="Symbols" stroke="none" stroke-width="1" fill="none" fill-rule="evenodd">
        <g id="tabbar" transform="translate(-250.000000, -34.000000)">
            <g id="ic_dashboard_grey">
                <g transform="translate(250.500000, 34.500000)">
                    <g id="ic_dashboard" fill="#696969">
                        <path d="M14.5176122,0.0244897959 C15.0023878,0.0244897959 15.3991837,0.42122449 15.3991837,0.906 L15.3991837,3.31604082 C15.3991837,3.80081633 15.0023878,4.19755102 14.5176122,4.19755102 C14.0278163,4.19755102 13.6358571,3.80081633 13.6358571,3.31604082 L13.6358571,1.78781633 L10.344551,1.78781633 L10.344551,15.1837959 C10.344551,15.6685714 9.9477551,16.0653061 9.46279592,16.0653061 C8.97802041,16.0653061 8.58122449,15.6685714 8.58122449,15.1837959 L8.58122449,0.906 C8.58122449,0.42122449 8.97802041,0.0244897959 9.46279592,0.0244897959 L14.5176122,0.0244897959 Z M23.0988367,6.26461224 C23.5836122,6.26461224 23.9804082,6.66110204 23.9804082,7.14612245 L23.9804082,19.0774898 C23.9804082,19.5625102 23.5836122,19.9593061 23.0988367,19.9593061 L18.0440204,19.9593061 C17.5592449,19.9593061 17.162449,19.5625102 17.162449,19.0774898 L17.162449,11.2850204 C17.162449,10.8 17.5592449,10.4032653 18.0440204,10.4032653 C18.5290408,10.4032653 18.9257755,10.8 18.9257755,11.2850204 L18.9257755,18.1959796 L22.2170816,18.1959796 L22.2170816,8.02769388 L15.3991837,8.02769388 L15.3991837,19.0774898 C15.3991837,19.5625102 15.0023878,19.9593061 14.5176122,19.9593061 L0.881510204,19.9593061 C0.396734694,19.9593061 -3.94430453e-31,19.5625102 -3.94430453e-31,19.0774898 L-3.94430453e-31,11.0401224 C-3.94430453e-31,10.555102 0.396734694,10.1583673 0.881510204,10.1583673 L5.93638776,10.1583673 C6.42116327,10.1583673 6.81789796,10.555102 6.81789796,11.0401224 L6.81789796,15.1787755 C6.81789796,15.6637347 6.42116327,16.0605306 5.93638776,16.0605306 C5.45136735,16.0605306 5.05463265,15.6637347 5.05463265,15.1787755 L5.05463265,11.9216327 L1.76332653,11.9216327 L1.76332653,18.1959796 L13.6358571,18.1959796 L13.6358571,7.14612245 C13.6358571,6.66110204 14.0325918,6.26461224 14.5176122,6.26461224 L23.0988367,6.26461224 Z"></path>
                    </g>
                    <g id="ic_dashboard_active" fill="#4F6DE6">
                        <path d="M14.5176122,0.0244897959 C15.0023878,0.0244897959 15.3991837,0.42122449 15.3991837,0.906 L15.3991837,3.31604082 C15.3991837,3.80081633 15.0023878,4.19755102 14.5176122,4.19755102 C14.0278163,4.19755102 13.6358571,3.80081633 13.6358571,3.31604082 L13.6358571,1.78781633 L10.344551,1.78781633 L10.344551,15.1837959 C10.344551,15.6685714 9.9477551,16.0653061 9.46279592,16.0653061 C8.97802041,16.0653061 8.58122449,15.6685714 8.58122449,15.1837959 L8.58122449,0.906 C8.58122449,0.42122449 8.97802041,0.0244897959 9.46279592,0.0244897959 L14.5176122,0.0244897959 Z M23.0988367,6.26461224 C23.5836122,6.26461224 23.9804082,6.66110204 23.9804082,7.14612245 L23.9804082,19.0774898 C23.9804082,19.5625102 23.5836122,19.9593061 23.0988367,19.9593061 L18.0440204,19.9593061 C17.5592449,19.9593061 17.162449,19.5625102 17.162449,19.0774898 L17.162449,11.2850204 C17.162449,10.8 17.5592449,10.4032653 18.0440204,10.4032653 C18.5290408,10.4032653 18.9257755,10.8 18.9257755,11.2850204 L18.9257755,18.1959796 L22.2170816,18.1959796 L22.2170816,8.02769388 L15.3991837,8.02769388 L15.3991837,19.0774898 C15.3991837,19.5625102 15.0023878,19.9593061 14.5176122,19.9593061 L0.881510204,19.9593061 C0.396734694,19.9593061 -3.94430453e-31,19.5625102 -3.94430453e-31,19.0774898 L-3.94430453e-31,11.0401224 C-3.94430453e-31,10.555102 0.396734694,10.1583673 0.881510204,10.1583673 L5.93638776,10.1583673 C6.42116327,10.1583673 6.81789796,10.555102 6.81789796,11.0401224 L6.81789796,15.1787755 C6.81789796,15.6637347 6.42116327,16.0605306 5.93638776,16.0605306 C5.45136735,16.0605306 5.05463265,15.6637347 5.05463265,15.1787755 L5.05463265,11.9216327 L1.76332653,11.9216327 L1.76332653,18.1959796 L13.6358571,18.1959796 L13.6358571,7.14612245 C13.6358571,6.66110204 14.0325918,6.26461224 14.5176122,6.26461224 L23.0988367,6.26461224 Z"></path>
                    </g>
                </g>
            </g>
        </g>
    </g>
</svg>