<?xml version="1.0" encoding="UTF-8"?>
<svg width="25px" height="25px" viewBox="0 0 25 25" version="1.1" xmlns="http://www.w3.org/2000/svg" xmlns:xlink="http://www.w3.org/1999/xlink">
    <!-- Generator: Sketch 55 (78076) - https://sketchapp.com -->
    <title>ic_Drugs_grey</title>
    <desc>Created with Sketch.</desc>
    <g id="Symbols" stroke="none" stroke-width="1" fill="none" fill-rule="evenodd">
        <g id="tabbar" transform="translate(-25.000000, -32.000000)" fill="#696969">
            <g id="ic_Drugs_grey">
                <g transform="translate(25.500000, 32.500000)">
                    <g id="ic_drugs">
                        <path d="M9.25784419,9.00890033 L13.0629489,5.20379562 C13.3498978,4.91661314 13.815708,4.91661314 14.1028905,5.20379562 C14.390073,5.4909781 14.3898394,5.95655474 14.1028905,6.24373723 L10.2977028,10.0487839 L16.972146,16.7233869 C17.1101898,16.8611971 17.1875036,17.0482336 17.1875036,17.2432701 C17.1875036,17.4383066 17.1101898,17.6253431 16.972146,17.7630949 L13.0729927,21.6623066 C13.0617769,21.6735224 13.0505323,21.684699 13.0392592,21.6958363 C13.0358693,21.6993618 13.0324374,21.7028619 13.0289635,21.7063358 C11.5877956,23.1476788 9.67083212,23.9417226 7.63229197,23.9417226 C5.59375182,23.9417226 3.6770219,23.1476788 2.23538686,21.7061022 C0.794043796,20.2647007 0,18.3479708 0,16.3091971 C0,14.2706569 0.793810219,12.3538686 2.23538686,10.9125255 L2.24352607,10.9043861 C2.25536369,10.892393 2.26724916,10.8804297 2.27918248,10.8684964 L6.17839416,6.96928467 C6.18106514,6.96661587 6.18375154,6.96397188 6.18645309,6.96135272 L10.8925547,2.25512409 C13.8683796,-0.720467153 18.7103066,-0.720467153 21.6861314,2.25512409 C24.6619562,5.23118248 24.6619562,10.0731095 21.6861314,13.0489343 L19.4899854,15.2453139 C19.2028029,15.5324964 18.7372263,15.5324964 18.4500438,15.2453139 C18.1630949,14.9581314 18.1630949,14.4925547 18.4500438,14.2053723 L20.6464234,12.0092263 C21.810219,10.8454307 22.4512117,9.2979854 22.4512117,7.65226277 C22.4512117,6.00624818 21.810219,4.4590365 20.6464234,3.29524088 C18.243854,0.892671533 14.3348321,0.892671533 11.9322628,3.29524088 L7.73824195,7.4892617 L9.25784419,9.00890033 Z"></path>
                    </g>
                </g>
            </g>
        </g>
    </g>
</svg>