<?xml version="1.0" encoding="UTF-8"?>
<svg width="16px" height="24px" viewBox="0 0 16 24" version="1.1" xmlns="http://www.w3.org/2000/svg" xmlns:xlink="http://www.w3.org/1999/xlink">
    <!-- Generator: Sketch 55 (78076) - https://sketchapp.com -->
    <title>bookmark</title>
    <desc>Created with Sketch.</desc>
    <g id="Screen" stroke="none" stroke-width="1" fill="none" fill-rule="evenodd">
        <g id="51_News-Details" transform="translate(-180.000000, -746.000000)" fill="#969696">
            <g id="tabbar" transform="translate(0.000000, 733.000000)">
                <g id="bookmark" transform="translate(181.000000, 14.000000)">
                    <path d="M7.00018618,18.0506155 L1.74303388,22.0042677 C1.51863907,22.1607889 1.26876409,22.2448727 1.00008371,22.2448727 C0.798937849,22.2448727 0.615976254,22.2075002 0.433459008,22.1180702 C0.0221368679,21.9015152 -0.25,21.4719041 -0.25,21.016159 L-0.25,2.44659318 C-0.25,0.961519778 0.98797302,-0.25 2.50001395,-0.25 L11.499986,-0.25 C13.012027,-0.25 14.25,0.961519778 14.25,2.44659318 L14.25,21.016159 C14.25,21.4861878 13.989253,21.9115863 13.5600737,22.1213562 C13.1327045,22.3307548 12.6329434,22.2802182 12.2497171,21.9990159 L7.00018618,18.0506155 Z M12.75,20.4983295 L12.75,2.46513633 C12.75,1.79863445 12.1884095,1.25 11.5000488,1.25 L4.24990234,1.25 L4.24990234,7.10505269 C4.24990234,7.51300097 3.9117503,7.84330428 3.50004883,7.84330428 C3.08827487,7.84330428 2.74980468,7.51301064 2.74980468,7.10505269 L2.74980468,1.25 L2.49995117,1.25 C1.81178741,1.25 1.25,1.79874797 1.25,2.46513633 L1.25,20.4997823 L6.2396108,16.7548588 C6.6821835,16.3839845 7.34271329,16.3839845 7.77574013,16.7468745 L12.75,20.4983295 Z" id="Fill-1" stroke="#969696" stroke-width="0.5"></path>
                    <path d="M3,9.57161987 L3,10.4283801 C3,10.7426238 3.22521678,11 3.5001953,11 C3.7750957,11 4,10.7426238 4,10.4283801 L4,9.57161987 C4,9.25701915 3.7750957,9 3.5001953,9 C3.22521678,9 3,9.25701915 3,9.57161987 Z" id="Fill-2"></path>
                </g>
            </g>
        </g>
    </g>
</svg>