<?xml version="1.0" encoding="UTF-8"?>
<svg width="18px" height="18px" viewBox="0 0 18 18" version="1.1" xmlns="http://www.w3.org/2000/svg" xmlns:xlink="http://www.w3.org/1999/xlink">
    <!-- Generator: Sketch 55 (78076) - https://sketchapp.com -->
    <title>ic_calendar_grey</title>
    <desc>Created with Sketch.</desc>
    <g id="Screen" stroke="none" stroke-width="1" fill="none" fill-rule="evenodd">
        <g id="21_Appointment-Details" transform="translate(-43.000000, -259.000000)" fill="#000000">
            <g id="calendar" transform="translate(24.000000, 240.000000)">
                <path d="M24.2005255,22.7647099 C24.2005255,22.9545586 24.0258476,23.1090866 23.8112434,23.1090866 C23.5966391,23.1090866 23.4219612,22.9545586 23.4219612,22.7647099 L23.4219612,20.3581484 C23.4219612,20.1679601 23.5966391,20.0134321 23.8112434,20.0134321 C24.0258476,20.0134321 24.2005255,20.1679601 24.2005255,20.3581484 L24.2005255,22.7647099 Z M32.5608781,22.7647099 C32.5608781,22.9545586 32.3862002,23.1090866 32.1719799,23.1090866 C31.9573756,23.1090866 31.7826977,22.9545586 31.7826977,22.7647099 L31.7826977,20.3581484 C31.7826977,20.1679601 31.9573756,20.0134321 32.1719799,20.0134321 C32.3862002,20.0134321 32.5608781,20.1679601 32.5608781,20.3581484 L32.5608781,22.7647099 Z M23.8112434,24.1228583 C24.6573754,24.1228583 25.3461054,23.5135764 25.3461054,22.7647099 L25.3461054,22.2073902 L30.6371179,22.2073902 L30.6371179,22.7647099 C30.6371179,23.5135764 31.3258478,24.1228583 32.1719799,24.1228583 C33.0184958,24.1228583 33.7072258,23.5135764 33.7072258,22.7647099 L33.7072258,22.2073902 L34.7917643,22.2073902 C35.3772232,22.2073902 35.8536523,22.6292007 35.8536523,23.1474639 L35.8536523,25.7139873 L20.145695,25.7139873 L20.145695,23.1474639 C20.145695,22.6292007 20.6225081,22.2073902 21.2083508,22.2073902 L22.2763814,22.2073902 L22.2763814,22.7647099 C22.2763814,23.5135764 22.9647274,24.1228583 23.8112434,24.1228583 L23.8112434,24.1228583 Z M34.7917643,21.1939581 C36.0095188,21.1939581 37,22.0701829 37,23.1474639 L37,26.81674 C37,27.0962489 36.742782,27.323456 36.4268262,27.323456 C36.1104864,27.323456 35.8536523,27.0962489 35.8536523,26.81674 L35.8536523,26.7274194 L20.145695,26.7274194 L20.145695,30.0519791 C20.145695,30.3314881 19.8888609,30.5586952 19.5729051,30.5586952 C19.2569493,30.5586952 19.0001152,30.3314881 19.0001152,30.0519791 L19.0001152,23.1474639 C19.0001152,22.0701829 19.9905964,21.1939581 21.2083508,21.1939581 L22.2763814,21.1939581 L22.2763814,20.3581484 C22.2763814,19.6092819 22.9647274,19 23.8112434,19 C24.6573754,19 25.3461054,19.6092819 25.3461054,20.3581484 L25.3461054,21.1939581 L30.6371179,21.1939581 L30.6371179,20.3581484 C30.6371179,19.6092819 31.3258478,19 32.1719799,19 C33.0184958,19 33.7072258,19.6092819 33.7072258,20.3581484 L33.7072258,21.1939581 L34.7917643,21.1939581 Z M36.426711,30.9982 C36.7426668,30.9982 36.9998848,31.2254071 36.9998848,31.504916 L36.9998848,35.0464943 C36.9998848,36.1237752 36.0094036,37 34.7916492,37 L21.2082357,37 C19.9904812,37 19,36.1237752 19,35.0464943 L19,32.3886125 C19,32.1091036 19.2568341,31.8818964 19.5727899,31.8818964 C19.8887458,31.8818964 20.1455798,32.1091036 20.1455798,32.3886125 L20.1455798,35.0464943 C20.1455798,35.5647574 20.6223929,35.9865679 21.2082357,35.9865679 L34.7916492,35.9865679 C35.3774919,35.9865679 35.8539211,35.5647574 35.8539211,35.0464943 L35.8539211,31.504916 C35.8539211,31.2254071 36.1107552,30.9982 36.426711,30.9982 Z M36.426711,27.9575303 C36.7426668,27.9575303 36.9998848,28.185077 36.9998848,28.4642463 L36.9998848,28.7339062 C36.9998848,29.0134151 36.7426668,29.2406222 36.426711,29.2406222 C36.1107552,29.2406222 35.8539211,29.0134151 35.8539211,28.7339062 L35.8539211,28.4642463 C35.8539211,28.185077 36.1107552,27.9575303 36.426711,27.9575303 Z" id="ic_calendar_grey"></path>
            </g>
        </g>
    </g>
</svg>