<?xml version="1.0" encoding="UTF-8"?>
<svg width="23px" height="26px" viewBox="0 0 23 26" version="1.1" xmlns="http://www.w3.org/2000/svg" xmlns:xlink="http://www.w3.org/1999/xlink">
    <!-- Generator: Sketch 55 (78076) - https://sketchapp.com -->
    <title>clipboard-1</title>
    <desc>Created with Sketch.</desc>
    <g id="Screen" stroke="none" stroke-width="1" fill="none" fill-rule="evenodd">
        <g id="32_List-Doctors-Active" transform="translate(-263.000000, -173.000000)" fill="#969696">
            <g id="action" transform="translate(153.000000, 162.000000)">
                <g id="clipboard-1" transform="translate(110.000000, 11.000000)">
                    <path d="M21.5425876,2.80681519 L16.3052685,2.80681519 L16.3052685,0.995108861 C16.3052685,0.473924051 15.8683083,0.0473924051 15.3344632,0.0473924051 L7.17906462,0.0473924051 C6.64501719,0.0473924051 6.20805703,0.473924051 6.20805703,0.995108861 L6.20805703,6.00303797 C6.20805703,6.52422278 6.64501719,6.95082025 7.17906462,6.95082025 L13.2038694,6.95082025 C13.7379843,6.95082025 14.1746073,6.52422278 14.1746073,6.00303797 C14.1746073,5.4816557 13.7379843,5.05505823 13.2038694,5.05505823 L8.14986995,5.05505823 L8.14986995,1.94315443 L14.3581967,1.94315443 L14.3581967,3.75966582 C14.3581967,4.28111392 14.7950894,4.70771139 15.3289346,4.70771139 L20.5662537,4.70771139 L20.5662537,24.043681 L1.94181292,24.043681 L1.94181292,4.70231392 L3.43587821,4.70231392 C3.96972338,4.70231392 4.40661612,4.27571646 4.40661612,3.75453165 C4.40661612,3.23308354 3.96972338,2.80681519 3.43587821,2.80681519 L0.970737908,2.80681519 C0.436892738,2.80681519 0,3.23308354 0,3.75453165 L0,24.9862633 C0,25.5077114 0.436892738,25.934243 0.970737908,25.934243 L21.5425876,25.934243 C22.076635,25.934243 22.5135952,25.5077114 22.5135952,24.9862633 L22.5135952,3.75453165 C22.5135952,3.23308354 22.076635,2.80681519 21.5425876,2.80681519 L21.5425876,2.80681519 Z" id="Fill-1"></path>
                    <path d="M16.7205863,12.6958987 L9.08851512,12.6958987 C8.55440027,12.6958987 8.11744011,13.1224962 8.11744011,13.643681 C8.11744011,14.1650633 8.55440027,14.5916608 9.08851512,14.5916608 L16.7205863,14.5916608 C17.2547011,14.5916608 17.6913242,14.1650633 17.6913242,13.643681 C17.6913242,13.1224962 17.2547011,12.6958987 16.7205863,12.6958987 L16.7205863,12.6958987 Z" id="Fill-4"></path>
                    <path d="M16.7205863,9.10987342 L9.08851512,9.10987342 C8.55440027,9.10987342 8.11744011,9.53640506 8.11744011,10.0575899 C8.11744011,10.579038 8.55440027,11.0055696 9.08851512,11.0055696 L16.7205863,11.0055696 C17.2547011,11.0055696 17.6913242,10.579038 17.6913242,10.0575899 C17.6913242,9.53640506 17.2547011,9.10987342 16.7205863,9.10987342 L16.7205863,9.10987342 Z" id="Fill-5"></path>
                    <path d="M16.7205863,16.2871241 L9.08851512,16.2871241 C8.55440027,16.2871241 8.11744011,16.7136557 8.11744011,17.2351038 C8.11744011,17.7562886 8.55440027,18.1828861 9.08851512,18.1828861 L16.7205863,18.1828861 C17.2547011,18.1828861 17.6913242,17.7562886 17.6913242,17.2351038 C17.6913242,16.7136557 17.2547011,16.2871241 16.7205863,16.2871241 L16.7205863,16.2871241 Z" id="Fill-6"></path>
                    <path d="M7.00659987,10.0575899 C7.00659987,10.6569722 6.509095,11.1424152 5.89542252,11.1424152 C5.28181746,11.1424152 4.78431259,10.6569722 4.78431259,10.0575899 C4.78431259,9.45853671 5.28181746,8.97309367 5.89542252,8.97309367 C6.509095,8.97309367 7.00659987,9.45853671 7.00659987,10.0575899 L7.00659987,10.0575899 Z" id="Fill-7"></path>
                    <path d="M7.00659987,13.643681 C7.00659987,14.2427342 6.509095,14.7284405 5.89542252,14.7284405 C5.28181746,14.7284405 4.78431259,14.2427342 4.78431259,13.643681 C4.78431259,13.044562 5.28181746,12.5588557 5.89542252,12.5588557 C6.509095,12.5588557 7.00659987,13.044562 7.00659987,13.643681 L7.00659987,13.643681 Z" id="Fill-8"></path>
                    <path d="M7.00659987,17.2351038 C7.00659987,17.8342228 6.509095,18.3199291 5.89542252,18.3199291 C5.28181746,18.3199291 4.78431259,17.8342228 4.78431259,17.2351038 C4.78431259,16.6360506 5.28181746,16.1503443 5.89542252,16.1503443 C6.509095,16.1503443 7.00659987,16.6360506 7.00659987,17.2351038 L7.00659987,17.2351038 Z" id="Fill-9"></path>
                    <path d="M16.7205863,19.8731494 L9.08851512,19.8731494 C8.55440027,19.8731494 8.11744011,20.2997468 8.11744011,20.8211949 C8.11744011,21.3423797 8.55440027,21.7689114 9.08851512,21.7689114 L16.7205863,21.7689114 C17.2547011,21.7689114 17.6913242,21.3423797 17.6913242,20.8211949 C17.6913242,20.2997468 17.2547011,19.8731494 16.7205863,19.8731494 L16.7205863,19.8731494 Z" id="Fill-10"></path>
                    <path d="M7.00659987,20.8211949 C7.00659987,21.4202481 6.509095,21.9056911 5.89542252,21.9056911 C5.28181746,21.9056911 4.78431259,21.4202481 4.78431259,20.8211949 C4.78431259,20.2220759 5.28181746,19.7363696 5.89542252,19.7363696 C6.509095,19.7363696 7.00659987,20.2220759 7.00659987,20.8211949 L7.00659987,20.8211949 Z" id="Fill-11"></path>
                </g>
            </g>
        </g>
    </g>
</svg>