<?xml version="1.0" encoding="UTF-8"?>
<svg width="17px" height="17px" viewBox="0 0 17 17" version="1.1" xmlns="http://www.w3.org/2000/svg" xmlns:xlink="http://www.w3.org/1999/xlink">
    <!-- Generator: Sketch 55 (78076) - https://sketchapp.com -->
    <title>cancel</title>
    <desc>Created with Sketch.</desc>
    <g id="Screen" stroke="none" stroke-width="1" fill="none" fill-rule="evenodd">
        <g id="35_Dashboard-test-indicators" transform="translate(-66.000000, -326.000000)" fill="#696969">
            <g id="indicators" transform="translate(16.000000, 120.000000)">
                <g id="details" transform="translate(46.117647, 202.725490)">
                    <g id="cancel" transform="translate(12.166667, 12.166667) rotate(-315.000000) translate(-12.166667, -12.166667) translate(4.000000, 4.000000)">
                        <path d="M8.75657848,7.83995222 L10.1167789,6.5023191 C10.3531806,6.27602269 10.3531806,5.91304867 10.1230937,5.69005673 C9.89648811,5.46718423 9.52727235,5.46718423 9.29738788,5.69005673 L7.93718748,7.0278093 L6.577149,5.69005673 C6.35042195,5.46718423 5.98136811,5.46718423 5.75128124,5.69005673 C5.52467562,5.91304867 5.52467562,6.27602269 5.75128124,6.5023191 L7.11148164,7.83995222 L5.75128124,9.17770479 C5.52467562,9.40057729 5.52467562,9.76371056 5.75128124,9.98984772 C5.864665,10.1013238 6.01363047,10.158734 6.16255545,10.158734 C6.31168283,10.158734 6.46064829,10.1013238 6.57382966,9.98984772 L7.93403006,8.65221459 L9.29423046,9.98984772 C9.40741182,10.1013238 9.55637729,10.158734 9.70550467,10.158734 C9.85442965,10.158734 10.0033951,10.1013238 10.1167789,9.98984772 C10.3433845,9.76697522 10.3433845,9.40384194 10.1167789,9.17770479 L8.75657848,7.83995222 Z" id="Fill-1"></path>
                        <path d="M13.5558166,2.31388474 C13.329211,2.09101224 12.9599952,2.09101224 12.7332682,2.31388474 L10.919897,4.09439634 C10.6931295,4.31726884 10.6931295,4.68040211 10.919897,4.90653927 C11.1464622,5.1295312 11.5156779,5.1295312 11.7456029,4.90653927 L13.128391,3.5465313 C15.3693497,6.16140141 15.2364951,10.0854783 12.7332682,12.5475067 C11.4541892,13.8054743 9.75072054,14.4998905 7.94050682,14.4998905 C6.13029309,14.4998905 4.43014379,13.8087389 3.14778595,12.5506121 C0.50518722,9.95158754 0.50518722,5.72501244 3.14778595,3.12614711 C4.77013317,1.53036727 7.08553412,0.851995621 9.33628891,1.31701005 C9.6502903,1.38075047 9.96117474,1.18323878 10.0260233,0.87425102 C10.0908314,0.565382701 9.89001135,0.259619787 9.57584804,0.195879367 C6.939888,-0.351866229 4.22932378,0.441126704 2.32519704,2.31388474 C0.825705843,3.78867324 -1.66977543e-13,5.7505325 -1.66977543e-13,7.83680701 C-1.66977543e-13,9.92296208 0.825705843,11.8849806 2.32519704,13.3596098 C3.82452633,14.8342391 5.81944913,15.6465413 7.94050682,15.6465413 C10.061605,15.6465413 12.0564873,14.8342391 13.5558166,13.3596098 C15.0553078,11.8849806 15.8810136,9.92296208 15.8810136,7.83680701 C15.8810136,5.7505325 15.0553078,3.78867324 13.5558166,2.31388474 L13.5558166,2.31388474 Z" id="Fill-3"></path>
                    </g>
                </g>
            </g>
        </g>
    </g>
</svg>