<?xml version="1.0" encoding="UTF-8"?>
<svg width="24px" height="23px" viewBox="0 0 24 23" version="1.1" xmlns="http://www.w3.org/2000/svg" xmlns:xlink="http://www.w3.org/1999/xlink">
    <!-- Generator: Sketch 55 (78076) - https://sketchapp.com -->
    <title>add</title>
    <desc>Created with Sketch.</desc>
    <g id="Screen" stroke="none" stroke-width="1" fill="none" fill-rule="evenodd">
        <g id="32_List-Doctors-Active" transform="translate(-309.000000, -175.000000)" fill="#FFFFFF">
            <g id="action" transform="translate(153.000000, 162.000000)">
                <g id="add" transform="translate(168.000000, 24.500000) rotate(-270.000000) translate(-168.000000, -24.500000) translate(156.000000, 13.000000)">
                    <path d="M20.3351857,0.907374188 L11.9783251,9.1213825 L3.62231618,0.907374188 C2.89955643,0.197136732 1.741233,0.197136732 1.01915461,0.907374188 C0.296565197,1.61710936 0.296565197,2.75563239 1.01915461,3.46603727 L9.37601524,11.6792084 L1.01915461,19.8932167 C0.296565197,20.6034542 0.296565197,21.7421447 1.01915461,22.4517124 C1.37312462,22.8003014 1.85025167,22.9873205 2.31409207,22.9873205 C2.7772511,22.9873205 3.25420781,22.8133609 3.60834817,22.4517124 L11.9650385,14.2377041 L20.3217287,22.4517124 C20.6758691,22.8003014 21.1528258,22.9873205 21.6159848,22.9873205 C22.0931119,22.9873205 22.5569523,22.8133609 22.9109223,22.4517124 C23.6335117,21.7421447 23.6335117,20.6034542 22.9109223,19.8932167 L14.5813163,11.6792084 L22.938177,3.46603727 C23.660085,2.75563239 23.660085,1.61710936 22.938177,0.907374188 C22.2162689,0.197136732 21.0577751,0.197136732 20.3351857,0.907374188 Z" id="Fill-4"></path>
                </g>
            </g>
        </g>
    </g>
</svg>