<?xml version="1.0" encoding="UTF-8"?>
<svg width="17px" height="17px" viewBox="0 0 17 17" version="1.1" xmlns="http://www.w3.org/2000/svg" xmlns:xlink="http://www.w3.org/1999/xlink">
    <!-- Generator: Sketch 55 (78076) - https://sketchapp.com -->
    <title>target</title>
    <desc>Created with Sketch.</desc>
    <g id="Screen" stroke="none" stroke-width="1" fill="none" fill-rule="evenodd">
        <g id="35_Dashboard-test-indicators" transform="translate(-244.000000, -326.000000)" fill="#696969">
            <g id="indicators" transform="translate(16.000000, 120.000000)">
                <g id="goal" transform="translate(228.666667, 203.686275)">
                    <g id="target" transform="translate(0.000000, 3.000000)">
                        <path d="M8.4650966,2.5076624 L8.4650966,0.589176471 C8.46840079,0.26516624 8.21059327,0 7.88823314,0 C7.56901601,0 7.307864,0.26516624 7.307864,0.589176471 L7.307864,2.0100665 C5.74772153,2.16384655 4.30999532,2.93655243 3.30104839,4.17710486 C3.09784062,4.42917647 3.13342112,4.79922251 3.37833423,5.00542199 C3.48789638,5.09704348 3.61696132,5.13972379 3.74586508,5.13972379 C3.91349235,5.13972379 4.07781543,5.06762148 4.19382479,4.92677238 C4.98368771,3.95461893 6.09256629,3.34240409 7.30472099,3.19181586 L7.30472099,4.5471509 C7.30472099,4.87116113 7.565873,5.13636829 7.88492894,5.13636829 C8.20414607,5.13636829 8.4650966,4.87116113 8.4650966,4.5471509 L8.4650966,2.62547315 C8.46840079,2.6058312 8.46840079,2.58614834 8.46840079,2.56650639 C8.46840079,2.54682353 8.46840079,2.52734527 8.4650966,2.5076624 L8.4650966,2.5076624 Z" id="Fill-1"></path>
                        <path d="M12.4044181,11.0354987 C12.1562008,10.8292992 11.7919741,10.8652685 11.5889275,11.1141483 C10.7990646,12.0863018 9.68684152,12.6985166 8.47484799,12.8491049 L8.47484799,11.4840307 C8.47484799,11.1598568 8.21373628,10.8946496 7.89468034,10.8946496 C7.57546321,10.8946496 7.3143515,11.1598568 7.3143515,11.4840307 L7.3143515,15.4517442 C7.3111682,15.7757545 7.5723202,16.0409207 7.89137615,16.0409207 C8.21059327,16.0409207 8.4715438,15.7757545 8.4715438,15.4517442 L8.4715438,14.0342097 C10.0318877,13.880266 11.469614,13.1077238 12.4818651,11.8638159 C12.6849117,11.6117442 12.6494924,11.2416982 12.4044181,11.0354987 L12.4044181,11.0354987 Z" id="Fill-2"></path>
                        <path d="M4.84829646,11.7754271 C3.89084656,10.9732992 3.28484979,9.84061381 3.13986832,8.60644501 L4.4743184,8.60644501 C4.79353553,8.60644501 5.05464724,8.34127877 5.05464724,8.01726854 C5.05464724,7.69309463 4.79353553,7.42792839 4.4743184,7.42792839 L0.580167656,7.42792839 C0.261111711,7.42792839 0,7.69309463 0,8.01726854 C0,8.34127877 0.257807519,8.60644501 0.580167656,8.60644501 L1.97288433,8.60644501 C2.12431301,10.1942097 2.88520381,11.6574527 4.11009174,12.685422 C4.21965389,12.7770026 4.34871883,12.8196829 4.47762259,12.8196829 C4.64524987,12.8196829 4.80957294,12.7476215 4.9255823,12.6035806 C5.12879007,12.351509 5.09320957,11.9816266 4.84829646,11.7754271 L4.84829646,11.7754271 Z" id="Fill-4"></path>
                        <path d="M15.2089915,7.42792839 L13.809868,7.42792839 C13.6584393,5.84016368 12.8944055,4.37692072 11.6662133,3.35230691 C11.4179557,3.14594373 11.0537291,3.18207673 10.8506825,3.43414834 C10.6474747,3.68605627 10.6830552,4.0561023 10.9312725,4.26230179 C11.8919057,5.06442967 12.4979025,6.19371867 12.6461882,7.42792839 L11.3084339,7.42792839 C10.9892168,7.42792839 10.7280648,7.69309463 10.7280648,8.01726854 C10.7280648,8.34127877 10.9892168,8.60644501 11.3084339,8.60644501 L13.2007282,8.60644501 C13.2199086,8.60963683 13.2392905,8.60963683 13.2586321,8.60963683 C13.278014,8.60963683 13.3004987,8.60963683 13.3198806,8.60644501 L15.2089915,8.60644501 C15.5280475,8.60644501 15.7891995,8.34127877 15.7891995,8.01726854 C15.7891995,7.69309463 15.5280475,7.42792839 15.2089915,7.42792839 L15.2089915,7.42792839 Z" id="Fill-6"></path>
                        <path d="M8.53609642,8.02046036 C8.53609642,8.38027621 8.24883324,8.672 7.89468034,8.672 C7.54036625,8.672 7.25310308,8.38027621 7.25310308,8.02046036 C7.25310308,7.6606445 7.54036625,7.36892072 7.89468034,7.36892072 C8.24883324,7.36892072 8.53609642,7.6606445 8.53609642,8.02046036 L8.53609642,8.02046036 Z" id="Fill-7"></path>
                    </g>
                </g>
            </g>
        </g>
    </g>
</svg>