<?xml version="1.0" encoding="UTF-8"?>
<svg width="60px" height="60px" viewBox="0 0 60 60" version="1.1" xmlns="http://www.w3.org/2000/svg" xmlns:xlink="http://www.w3.org/1999/xlink">
    <!-- Generator: Sketch 55 (78076) - https://sketchapp.com -->
    <title>Group 2</title>
    <desc>Created with Sketch.</desc>
    <g id="Screen" stroke="none" stroke-width="1" fill="none" fill-rule="evenodd">
        <g id="27_Call-Doctor" transform="translate(-116.000000, -634.000000)">
            <g id="Group-2" transform="translate(116.000000, 634.000000)">
                <circle id="Oval-5" fill="#FFFFFF" cx="30" cy="30" r="30"></circle>
                <path d="M21.699,37.598 L21,36.9 L38.47,19.43 L39.169,20.128 L21.699,37.598 Z M30.085,18.014 C27.6,18.014 25.585,20.029 25.585,22.514 L25.585,29.515 L24.587,30.514 C24.587,30.497 24.582,30.481 24.582,30.465 L24.582,22.545 C24.582,19.482 27.045,17 30.085,17 C32.249,17 34.103,18.271 35.001,20.1 L34.257,20.845 C33.593,19.187 31.979,18.014 30.085,18.014 Z M21.585,31.21 L21.585,29.006 L22.6,29.006 L22.6,31.718 C22.6,31.966 22.62,32.21 22.65,32.451 L21.858,33.243 C21.685,32.593 21.585,31.914 21.585,31.21 Z M35.587,26.506 L35.587,30.464 C35.587,33.527 33.124,36.009 30.085,36.009 C28.951,36.009 27.899,35.662 27.023,35.07 L27.75,34.343 C28.433,34.76 29.227,35.013 30.085,35.013 C32.57,35.013 34.585,32.998 34.585,30.513 L34.585,27.508 L35.587,26.506 Z M29.312,39.027 C27.562,39.027 25.953,38.431 24.657,37.439 L25.318,36.777 C26.421,37.544 27.779,38.003 29.254,38.003 L30.917,38.003 C34.592,38.003 37.57,35.189 37.57,31.718 L37.57,29.006 L38.585,29.006 L38.585,31.21 C38.585,35.526 35.125,39.026 30.857,39.026 L30.579,39.026 L30.579,41.015 L32.085,41.015 C32.36,41.015 32.585,41.239 32.585,41.515 C32.585,41.791 32.36,42.015 32.085,42.015 L28.085,42.015 C27.809,42.015 27.585,41.791 27.585,41.515 C27.585,41.24 27.809,41.015 28.085,41.015 L29.59,41.015 L29.59,39.027 L29.312,39.027 Z" id="Shape" fill="#2661DD" fill-rule="nonzero"></path>
            </g>
        </g>
    </g>
</svg>