<?xml version="1.0" encoding="UTF-8"?>
<svg width="24px" height="24px" viewBox="0 0 24 24" version="1.1" xmlns="http://www.w3.org/2000/svg" xmlns:xlink="http://www.w3.org/1999/xlink">
    <!-- Generator: Sketch 55 (78076) - https://sketchapp.com -->
    <title>Drugs</title>
    <desc>Created with Sketch.</desc>
    <g id="Screen" stroke="none" stroke-width="1" fill="none" fill-rule="evenodd">
        <g id="22_Notification" transform="translate(-48.000000, -139.000000)" fill="#696969">
            <g id="doctor-" transform="translate(24.000000, 120.000000)">
                <g id="Drugs" transform="translate(24.000000, 19.000000)">
                    <g id="pill">
                        <path d="M7.67632117,23.897927 C5.63754745,23.897927 3.72105109,23.1038832 2.27941606,21.6625401 C-0.696642336,18.6864818 -0.696642336,13.8443212 2.27918248,10.8684964 L6.17839416,6.96928467 C6.46557664,6.68233577 6.93109489,6.68233577 7.21827737,6.96928467 L16.972146,16.7233869 C17.1101898,16.8611971 17.1875036,17.0482336 17.1875036,17.2432701 C17.1875036,17.4383066 17.1101898,17.6253431 16.972146,17.7630949 L13.0729927,21.6623066 C11.6314161,23.1038832 9.71486131,23.897927 7.67632117,23.897927 L7.67632117,23.897927 Z M6.69821898,8.52928467 L3.31912409,11.9086131 C0.916729927,14.3110073 0.916729927,18.2199708 3.31912409,20.6225985 C4.48291971,21.7863942 6.03036496,22.4273285 7.67608759,22.4273285 C9.32210219,22.4273285 10.8693139,21.7863942 12.0330511,20.6225985 L15.412438,17.2435036 L6.69821898,8.52928467 Z" id="Fill-3"></path>
                        <path d="M2.23538686,21.7061022 C0.794043796,20.2647007 0,18.3479708 0,16.3091971 C0,14.2706569 0.793810219,12.3538686 2.23538686,10.9125255 L10.8925547,2.25512409 C13.8683796,-0.720467153 18.7103066,-0.720467153 21.6861314,2.25512409 C24.6619562,5.23118248 24.6619562,10.0731095 21.6861314,13.0489343 L19.4899854,15.2453139 C19.2028029,15.5324964 18.7372263,15.5324964 18.4500438,15.2453139 C18.1630949,14.9581314 18.1630949,14.4925547 18.4500438,14.2053723 L20.6464234,12.0092263 C21.810219,10.8454307 22.4512117,9.2979854 22.4512117,7.65226277 C22.4512117,6.00624818 21.810219,4.4590365 20.6464234,3.29524088 C18.243854,0.892671533 14.3348321,0.892671533 11.9322628,3.29524088 L3.27509489,11.9524088 C0.872467153,14.3548029 0.872467153,18.264 3.27509489,20.6663942 C5.67748905,23.0689635 9.58668613,23.0689635 11.9890219,20.6663942 C12.2762044,20.3794453 12.741781,20.3794453 13.0289635,20.6663942 C13.316146,20.9535766 13.316146,21.4191533 13.0289635,21.7063358 C11.5877956,23.1476788 9.67083212,23.9417226 7.63229197,23.9417226 C5.59375182,23.9417226 3.6770219,23.1476788 2.23538686,21.7061022 Z" id="Fill-4"></path>
                        <path d="M5.70394161,14.337927 C5.51573723,14.337927 5.32753285,14.2660438 5.18405839,14.1225693 C4.89687591,13.8353869 4.89687591,13.3698686 5.18405839,13.0826861 L13.0629489,5.20379562 C13.3498978,4.91661314 13.815708,4.91661314 14.1028905,5.20379562 C14.390073,5.4909781 14.3898394,5.95655474 14.1028905,6.24373723 L6.22376642,14.1225693 C6.08029197,14.2660438 5.89208759,14.337927 5.70394161,14.337927 L5.70394161,14.337927 Z" id="Fill-6"></path>
                    </g>
                </g>
            </g>
        </g>
    </g>
</svg>