<?xml version="1.0" encoding="UTF-8"?>
<svg width="24px" height="24px" viewBox="0 0 24 24" version="1.1" xmlns="http://www.w3.org/2000/svg" xmlns:xlink="http://www.w3.org/1999/xlink">
    <!-- Generator: Sketch 55 (78076) - https://sketchapp.com -->
    <title>add</title>
    <desc>Created with Sketch.</desc>
    <g id="Screen" stroke="none" stroke-width="1" fill="none" fill-rule="evenodd">
        <g id="32_List-Doctors-Active" transform="translate(-315.000000, -268.000000)" fill="#FFFFFF">
            <g id="delete" transform="translate(279.000000, 240.000000)">
                <g id="add" transform="translate(48.000000, 40.000000) rotate(-270.000000) translate(-48.000000, -40.000000) translate(36.000000, 28.000000)">
                    <path d="M20.3351857,0.94682524 L11.9783251,9.51796434 L3.62231618,0.94682524 C2.89955643,0.205707894 1.741233,0.205707894 1.01915461,0.94682524 C0.296565197,1.68741846 0.296565197,2.87544249 1.01915461,3.61673455 L9.37601524,12.1870001 L1.01915461,20.7581392 C0.296565197,21.4992566 0.296565197,22.6874553 1.01915461,23.4278738 C1.37312462,23.7916188 1.85025167,23.9867692 2.31409207,23.9867692 C2.7772511,23.9867692 3.25420781,23.8052461 3.60834817,23.4278738 L11.9650385,14.8567347 L20.3217287,23.4278738 C20.6758691,23.7916188 21.1528258,23.9867692 21.6159848,23.9867692 C22.0931119,23.9867692 22.5569523,23.8052461 22.9109223,23.4278738 C23.6335117,22.6874553 23.6335117,21.4992566 22.9109223,20.7581392 L14.5813163,12.1870001 L22.938177,3.61673455 C23.660085,2.87544249 23.660085,1.68741846 22.938177,0.94682524 C22.2162689,0.205707894 21.0577751,0.205707894 20.3351857,0.94682524 Z" id="Fill-4"></path>
                </g>
            </g>
        </g>
    </g>
</svg>