<?xml version="1.0" encoding="UTF-8"?>
<svg width="24px" height="24px" viewBox="0 0 24 24" version="1.1" xmlns="http://www.w3.org/2000/svg" xmlns:xlink="http://www.w3.org/1999/xlink">
    <!-- Generator: Sketch 55 (78076) - https://sketchapp.com -->
    <title>ic_setting</title>
    <desc>Created with Sketch.</desc>
    <g id="Symbols" stroke="none" stroke-width="1" fill="none" fill-rule="evenodd">
        <g id="header-color" transform="translate(-331.000000, -28.000000)" fill="#FFFFFF">
            <g id="ic_setting">
                <g transform="translate(331.000000, 28.000000)">
                    <path d="M16.0262158,11.1172252 C15.540662,11.1172252 15.1433796,11.5145076 15.1433796,12.0001226 C15.1433796,13.7310993 13.7310993,15.1433796 12.0001226,15.1433796 C10.2689007,15.1433796 8.85655905,13.7310993 8.85655905,12.0001226 C8.85655905,10.2689007 10.2689007,8.85655905 12.0001226,8.85655905 C12.4854924,8.85655905 12.8827135,8.45933796 12.8827135,7.97372293 C12.8827135,7.48835309 12.4854924,7.091132 12.0001226,7.091132 C9.29313445,7.091132 7.091132,9.29313445 7.091132,12.0001226 C7.091132,14.7071107 9.29313445,16.908868 12.0001226,16.908868 C14.7071107,16.908868 16.908868,14.7071107 16.908868,12.0001226 C16.908868,11.5145076 16.5115856,11.1172252 16.0262158,11.1172252 L16.0262158,11.1172252 Z M22.1708214,9.3812219 L21.4107683,9.3812219 C21.1998365,8.62123008 20.8957295,7.89041684 20.5083163,7.19908051 L21.0477523,6.65964446 C21.7589497,5.94844708 21.7589497,4.7861463 21.0477523,4.07519412 L19.9247446,2.95218635 C19.5815897,2.60884757 19.1206784,2.41771557 18.6350633,2.41771557 C18.1494483,2.41771557 17.688537,2.60884757 17.3453821,2.95218635 L16.8058848,3.49168369 C16.1193911,3.09924397 15.3885779,2.80016347 14.6235595,2.58917041 L14.6235595,1.82917859 C14.6235595,0.823927258 13.8045975,0 12.7943809,0 L11.2056191,0 C10.2001226,0 9.37644054,0.818900695 9.37644054,1.82917859 L9.37644054,2.58917041 C8.61620351,2.80016347 7.88563547,3.10427054 7.19405394,3.49168369 L6.6546179,2.95218635 C6.31146302,2.60884757 5.8504904,2.41771557 5.36493666,2.41771557 C4.87454025,2.41771557 4.418349,2.60884757 4.07519412,2.95218635 L2.95218635,4.07519412 C2.24105027,4.79117286 2.24105027,5.94844708 2.95218635,6.65964446 L3.49168369,7.19908051 C3.09924397,7.88563547 2.80016347,8.61620351 2.58917041,9.3812219 L1.82917859,9.3812219 C0.823927258,9.3812219 0,10.2001226 0,11.2104005 L0,12.7994074 C0,13.8045975 0.818900695,14.628586 1.82917859,14.628586 L2.58917041,14.628586 C2.80016347,15.3885779 3.10427054,16.1193911 3.49168369,16.8106661 L2.95218635,17.3501635 C2.24105027,18.0514916 2.24105027,19.2087658 2.95218635,19.9247446 L4.07519412,21.0477523 C4.418349,21.3911524 4.87956682,21.5822231 5.36493666,21.5822231 C5.85533306,21.5822231 6.31146302,21.3911524 6.6546179,21.0477523 L7.19405394,20.5083163 C7.88060891,20.900756 8.61136085,21.1998365 9.37644054,21.4107683 L9.37644054,22.1708214 C9.37644054,23.1760114 10.1953412,24 11.2056191,24 L12.7943809,24 C13.7998161,24 14.6235595,23.181038 14.6235595,22.1708214 L14.6235595,21.4107683 C15.3837965,21.1998365 16.1143645,20.8957295 16.8058848,20.5083163 L17.3453821,21.0477523 C17.688537,21.3911524 18.1494483,21.5822231 18.6350633,21.5822231 C19.1206784,21.5822231 19.5815897,21.3911524 19.9247446,21.0477523 L21.0477523,19.9247446 C21.7589497,19.2137924 21.7589497,18.0514916 21.0477523,17.3403555 L20.5083163,16.8008582 C20.900756,16.1143645 21.1998365,15.3837965 21.4107683,14.6187168 L22.1708214,14.6187168 C23.1760114,14.6187168 24,13.7998161 24,12.7895995 L24,11.2005926 C24,10.2001226 23.181038,9.3812219 22.1708214,9.3812219 L22.1708214,9.3812219 Z M22.1708214,12.8583163 L19.9884348,12.8583163 L19.8464651,13.5692072 C19.6402534,14.5991009 19.2432775,15.5700858 18.6546792,16.4428688 L18.2526767,17.0460564 L19.7973641,18.590989 C19.8217613,18.6154475 19.8217613,18.6546792 19.7973641,18.6791377 L18.6743564,19.7973641 C18.6693298,19.8021455 18.6546792,19.81698 18.630282,19.81698 C18.6056396,19.81698 18.590989,19.8021455 18.5859624,19.7973641 L17.041275,18.2526767 L16.4380875,18.6546792 C15.5602779,19.2432775 14.5940744,19.6402534 13.5644258,19.8464651 L12.8532897,19.9884348 L12.8532897,22.1708214 C12.8532897,22.2050266 12.8238047,22.2345116 12.7895995,22.2345116 L11.2005926,22.2345116 C11.1663261,22.2345116 11.1369023,22.2050266 11.1369023,22.1708214 L11.1369023,19.9884348 L10.4257049,19.8464651 C9.3960564,19.6402534 8.42507152,19.2432775 7.55204332,18.6546792 L6.94885574,18.2526767 L5.4139763,19.7973641 C5.40894973,19.8021455 5.39436044,19.81698 5.36996322,19.81698 C5.3452595,19.81698 5.33067021,19.8021455 5.32564365,19.7973641 L4.20263588,18.6743564 C4.17817736,18.6496526 4.17817736,18.6106661 4.20263588,18.5859624 L5.74756845,17.041275 L5.3452595,16.4380875 C4.75696772,15.5602779 4.35968533,14.5940744 4.15378014,13.5644258 L4.01150388,12.8532897 L1.82917859,12.8532897 C1.79491214,12.8532897 1.76548835,12.8238047 1.76548835,12.7895995 L1.76548835,11.2005926 C1.76548835,11.1663261 1.79491214,11.1369023 1.82917859,11.1369023 L4.01150388,11.1369023 L4.15378014,10.4257049 C4.35968533,9.3960564 4.75696772,8.42507152 5.3452595,7.55204332 L5.74756845,6.94885574 L4.20263588,5.4139763 C4.17817736,5.38957908 4.17817736,5.35028606 4.20263588,5.32564365 L5.32564365,4.20263588 C5.33067021,4.19779322 5.3452595,4.18295872 5.36996322,4.18295872 C5.39436044,4.18295872 5.40894973,4.19779322 5.4139763,4.20263588 L6.95872497,5.74756845 L7.56185125,5.3452595 C8.43972211,4.75696772 9.40586432,4.35968533 10.4355129,4.15378014 L11.1467103,4.01150388 L11.1467103,1.82917859 C11.1467103,1.79491214 11.176134,1.76548835 11.2104005,1.76548835 L12.7994074,1.76548835 C12.8336126,1.76548835 12.8630977,1.79491214 12.8630977,1.82917859 L12.8630977,4.01150388 L13.5742338,4.15378014 C14.6038823,4.35968533 15.5748672,4.75696772 16.4478954,5.3452595 L17.051083,5.74756845 L18.5859624,4.20263588 C18.590989,4.19779322 18.6056396,4.18295872 18.630282,4.18295872 C18.6546792,4.18295872 18.6693298,4.19779322 18.6743564,4.20263588 L19.7973641,5.32564365 C19.8217613,5.35028606 19.8217613,5.38957908 19.7973641,5.4139763 L18.2526767,6.95872497 L18.6546792,7.56185125 C19.2432775,8.43972211 19.6402534,9.40586432 19.8464651,10.4355129 L19.9884348,11.1467103 L22.1708214,11.1467103 C22.2050266,11.1467103 22.2345116,11.176134 22.2345116,11.2104005 L22.2345116,12.7943809 C22.2345116,12.8288312 22.2050266,12.8583163 22.1708214,12.8583163 L22.1708214,12.8583163 Z"></path>
                </g>
            </g>
        </g>
    </g>
</svg>