<?xml version="1.0" encoding="UTF-8"?>
<svg width="30px" height="32px" viewBox="0 0 30 32" version="1.1" xmlns="http://www.w3.org/2000/svg" xmlns:xlink="http://www.w3.org/1999/xlink">
    <!-- Generator: Sketch 55 (78076) - https://sketchapp.com -->
    <title>ic_services</title>
    <desc>Created with Sketch.</desc>
    <g id="Symbols" stroke="none" stroke-width="1" fill="none" fill-rule="evenodd">
        <g id="services" transform="translate(-16.000000, -14.000000)" fill="#696969">
            <g transform="translate(0.500000, 0.000000)" id="ic_services">
                <path d="M30.298834,46 C25.4629982,46 21.5290331,42.0656442 21.5290331,37.2301991 L21.5290331,33.2482654 C21.5290331,32.7419397 21.9394998,32.3317855 22.4454348,32.3317855 C22.951448,32.3317855 23.3619147,32.7419397 23.3619147,33.2482654 L23.3619147,37.2301991 C23.3619147,41.0552585 26.4737745,44.1671183 30.2985215,44.1671183 C34.1235809,44.1671183 37.2354407,41.0552585 37.2354407,37.2301991 L37.2354407,36.2914537 C37.2354407,35.7854405 37.6459075,35.3750519 38.1518425,35.3750519 C38.6581682,35.3750519 39.0683224,35.7854405 39.0683224,36.2914537 L39.0683224,37.2301991 C39.0683224,42.0656442 35.1342791,46 30.298834,46 L30.298834,46 Z M38.1518425,33.1008442 C34.5444383,33.1008442 31.6092182,30.1657023 31.6092182,26.5582199 C31.6092182,22.950425 34.5441258,20.0152831 38.1518425,20.0152831 C41.7596374,20.0152831 44.6944668,22.950425 44.6944668,26.5582199 C44.6944668,30.1657023 41.7593249,33.1008442 38.1518425,33.1008442 L38.1518425,33.1008442 Z M38.1518425,21.8484773 C35.554824,21.8484773 33.4420999,23.9612014 33.4420999,26.5582199 C33.4420999,29.1552385 35.554824,31.2679626 38.1518425,31.2679626 C40.7489392,31.2679626 42.8615851,29.1552385 42.8615851,26.5582199 C42.8615851,23.9612014 40.7489392,21.8484773 38.1518425,21.8484773 L38.1518425,21.8484773 Z M39.1778531,26.5588449 C39.1778531,27.1252484 38.718871,27.584543 38.152155,27.584543 C37.5857515,27.584543 37.1264569,27.1252484 37.1264569,26.5588449 C37.1264569,25.9921289 37.5857515,25.5328343 38.152155,25.5328343 C38.718871,25.5328343 39.1778531,25.9921289 39.1778531,26.5588449 L39.1778531,26.5588449 Z M38.1518425,28.5003198 C37.0809884,28.5003198 36.2097426,27.6290741 36.2097426,26.5582199 C36.2097426,25.4870533 37.0809884,24.6158075 38.1518425,24.6158075 C39.2226967,24.6158075 40.0940205,25.4870533 40.0940205,26.5582199 C40.0940205,27.6290741 39.2226967,28.5003198 38.1518425,28.5003198 L38.1518425,28.5003198 Z M38.1518425,26.4486892 C38.212311,26.4486892 38.2611389,26.4978296 38.2611389,26.5582199 C38.2611389,26.6186884 38.212311,26.6675163 38.1518425,26.6675163 C38.0914522,26.6675163 38.0423118,26.6186884 38.0423118,26.5582199 C38.0423118,26.4978296 38.0914522,26.4486892 38.1518425,26.4486892 Z M22.4454348,30.0839058 C18.6158442,30.0839058 15.5,26.9680617 15.5,23.138471 L15.5,16.1981924 C15.5,14.9860108 16.4860108,14 17.6981924,14 L19.7202919,14 C20.2262269,14 20.6366937,14.4104667 20.6366937,14.9164018 C20.6366937,15.4224149 20.2262269,15.8328817 19.7202919,15.8328817 L17.6981924,15.8328817 C17.4967871,15.8328817 17.3328817,15.9967871 17.3328817,16.1981924 L17.3328817,23.138471 C17.3328817,25.957676 19.6262299,28.2510242 22.4454348,28.2510242 C25.2646398,28.2510242 27.5580661,25.957676 27.5580661,23.138471 L27.5580661,16.1981924 C27.5580661,15.9967871 27.3941607,15.8328817 27.1927554,15.8328817 L25.1706559,15.8328817 C24.6647209,15.8328817 24.2542541,15.4224149 24.2542541,14.9164018 C24.2542541,14.4104667 24.6647209,14 25.1706559,14 L27.1924429,14 C28.4046245,14 29.3906353,14.9860108 29.3906353,16.1981924 L29.3906353,23.138471 C29.3909478,26.9680617 26.2751036,30.0839058 22.4454348,30.0839058 Z"></path>
            </g>
        </g>
    </g>
</svg>