<?xml version="1.0" encoding="UTF-8"?>
<svg width="73px" height="18px" viewBox="0 0 73 18" version="1.1" xmlns="http://www.w3.org/2000/svg" xmlns:xlink="http://www.w3.org/1999/xlink">
    <!-- Generator: Sketch 55 (78076) - https://sketchapp.com -->
    <title>logo_healer</title>
    <desc>Created with Sketch.</desc>
    <g id="Symbols" stroke="none" stroke-width="1" fill="none" fill-rule="evenodd">
        <g id="header-color" transform="translate(-151.000000, -65.000000)" fill="#FFFFFF">
            <g id="logo_healer">
                <g transform="translate(151.000000, 65.000000)">
                    <g>
                        <polyline id="Fill-1" points="10.605913 1.02091304 13.9965652 1.02091304 13.9965652 17.8074783 10.605913 17.8074783 10.605913 10.6164783 3.39104348 10.6164783 3.39104348 17.8074783 0 17.8074783 0 1.02091304 3.39104348 1.02091304 3.39104348 8.0193913 10.605913 8.0193913 10.605913 1.02091304"></polyline>
                        <path d="M38.6953043,14.0196522 C39.4004348,13.3219565 39.7533913,12.3644348 39.7533913,11.1455217 C39.7533913,9.9273913 39.4004348,8.96908696 38.6953043,8.27178261 C37.9893913,7.57447826 37.1641304,7.22543478 36.2183478,7.22543478 C35.2721739,7.22543478 34.4504348,7.57056522 33.7531304,8.25965217 C33.0558261,8.94952174 32.7067826,9.90352174 32.7067826,11.1216522 C32.7067826,12.3401739 33.0593478,13.3023913 33.7648696,14.0075217 C34.4703913,14.7134348 35.2921304,15.0656087 36.230087,15.0656087 C37.1680435,15.0656087 37.9893913,14.7169565 38.6953043,14.0196522 L38.6953043,14.0196522 Z M31.0597826,16.0638261 C29.8647391,14.7733043 29.2676087,13.125913 29.2676087,11.1216522 C29.2676087,9.11778261 29.8608261,7.47821739 31.0476522,6.20373913 C32.2336957,4.92886957 33.7413913,4.29143478 35.5687826,4.29143478 C37.3965652,4.29143478 38.7915652,5.04547826 39.7533913,6.5523913 L39.7533913,4.48395652 L43.1201739,4.48395652 L43.1201739,17.8074783 L39.7533913,17.8074783 L39.7533913,15.5707826 C38.7434348,17.1907826 37.3402174,18 35.544913,18 C33.7488261,18 32.2536522,17.3547391 31.0597826,16.0638261 L31.0597826,16.0638261 Z" id="Fill-2"></path>
                        <polygon id="Fill-4" points="45.5251304 17.8074783 48.9161739 17.8074783 48.9161739 0.0156521739 45.5251304 0.0156521739"></polygon>
                        <path d="M59.1730435,7.947 C58.572,7.41795652 57.8461304,7.15343478 56.9966087,7.15343478 C56.1463043,7.15343478 55.4372609,7.41795652 54.8683043,7.947 C54.2989565,8.47643478 53.9581304,9.18195652 53.8458261,10.0635652 L60.147,10.0635652 C60.0988696,9.18195652 59.7744783,8.47643478 59.1730435,7.947 L59.1730435,7.947 Z M56.9484783,18 C55.0083913,18 53.429087,17.3707826 52.2109565,16.1119565 C50.9920435,14.8535217 50.3831739,13.1896957 50.3831739,11.1216522 C50.3831739,9.0536087 50.9959565,7.398 52.2226957,6.15521739 C53.4494348,4.91321739 55.0365652,4.29143478 56.9844783,4.29143478 C58.9323913,4.29143478 60.5316522,4.89717391 61.7826522,6.10708696 C63.0328696,7.31817391 63.6585652,8.93308696 63.6585652,10.9533913 C63.6585652,11.4186522 63.626087,11.8514348 63.5623043,12.2517391 L53.8458261,12.2517391 C53.9264348,13.1176957 54.246913,13.8153913 54.8080435,14.3444348 C55.3691739,14.8734783 56.0825217,15.138 56.9484783,15.138 C58.1184783,15.138 58.9844348,14.657087 59.5459565,13.6948696 L63.2015217,13.6948696 C62.8164783,14.9615217 62.0710435,15.9957391 60.9648261,16.7975217 C59.8586087,17.5993043 58.5195652,18 56.9484783,18 L56.9484783,18 Z" id="Fill-6"></path>
                        <path d="M68.5162174,4.48395652 L68.5162174,6.84078261 C69.4138696,5.14173913 70.7126087,4.29143478 72.4120435,4.29143478 L72.4120435,7.75486957 L71.5703478,7.75486957 C70.56,7.75486957 69.7985217,8.00726087 69.2855217,8.51204348 C68.7725217,9.01721739 68.5162174,9.88708696 68.5162174,11.1216522 L68.5162174,17.8074783 L65.1251739,17.8074783 L65.1251739,4.48395652 L68.5162174,4.48395652" id="Fill-7"></path>
                        <path d="M22.0707391,8.35434783 C22.0707391,8.35434783 23.3804348,3.28265217 27.5051739,5.9583913 C27.5051739,5.9583913 30.8641304,8.90882609 26.0906087,12.4462174 C24.5836957,13.7590435 23.0337391,15.8184783 23.9705217,18 C23.9705217,18 16.7603478,14.8726957 15.6247826,9.53686957 C15.6247826,9.53686957 14.4888261,4.63734783 18.246913,4.30552174 C18.246913,4.30552174 21.4728261,3.52721739 22.0707391,8.35434783" id="Fill-8"></path>
                    </g>
                </g>
            </g>
        </g>
    </g>
</svg>