<?xml version="1.0" encoding="UTF-8"?>
<svg width="20px" height="26px" viewBox="0 0 20 26" version="1.1" xmlns="http://www.w3.org/2000/svg" xmlns:xlink="http://www.w3.org/1999/xlink">
    <!-- Generator: Sketch 55 (78076) - https://sketchapp.com -->
    <title>ic_appointment_white@1.5x</title>
    <desc>Created with Sketch.</desc>
    <g id="Screen" stroke="none" stroke-width="1" fill="none" fill-rule="evenodd">
        <g id="12_Main-Services" transform="translate(-32.000000, -516.000000)" fill="#FFFFFF">
            <g id="Group-2" transform="translate(16.000000, 329.000000)">
                <g id="price-services" transform="translate(0.000000, 171.000000)">
                    <g id="ic_appointment_white" transform="translate(16.000000, 16.000000)">
                        <path d="M9.67743847,16.1834403 C8.23789958,16.1834403 7.06664549,15.0056697 7.06664549,13.5578127 L7.06664549,12.7369937 L6.25079221,12.7369937 C4.81125332,12.7369937 3.63999923,11.5592231 3.63999923,10.111366 C3.63999923,8.66350897 4.81125332,7.48542411 6.25079221,7.48542411 L7.06664549,7.48542411 L7.06664549,6.6649194 C7.06664549,5.21725091 8.23764961,4.03922891 9.67743847,4.03922891 C11.1170399,4.03922891 12.288044,5.21706235 12.288044,6.6649194 L12.288044,7.48567553 L13.1038972,7.48567553 C14.5434361,7.48567553 15.7146902,8.66350897 15.7146902,10.111366 C15.7146902,11.5592231 14.5434361,12.7372451 13.1038972,12.7372451 L12.288044,12.7372451 L12.288044,13.5578127 C12.288044,15.0056697 11.1167899,16.1834403 9.67743847,16.1834403 L9.67743847,16.1834403 Z M6.25079221,8.87608343 C5.57367461,8.87608343 5.022669,9.43027295 5.022669,10.111366 C5.022669,10.7924591 5.57367461,11.3468372 6.25079221,11.3468372 L7.75801162,11.3468372 C8.13953473,11.3468372 8.44906528,11.6579049 8.44906528,12.0419469 L8.44906528,13.5578127 C8.44906528,14.2389057 9.0000709,14.7930324 9.67725099,14.7930324 C10.3544311,14.7930324 10.9053742,14.2389057 10.9053742,13.5578127 L10.9053742,12.0419469 C10.9053742,11.6579049 11.2149048,11.3468372 11.5966778,11.3468372 L13.1038972,11.3468372 C13.7810773,11.3468372 14.3320205,10.7924591 14.3320205,10.111366 C14.3320205,9.43027295 13.7810773,8.87608343 13.1038972,8.87608343 L11.5966778,8.87608343 C11.2149048,8.87608343 10.9053742,8.56476431 10.9053742,8.18103662 L10.9053742,6.66517082 C10.9053742,5.98382633 10.3544311,5.42988822 9.67725099,5.42988822 C9.0000709,5.42988822 8.44906528,5.98407774 8.44906528,6.66517082 L8.44906528,8.18103662 C8.44906528,8.56476431 8.13953473,8.87608343 7.75801162,8.87608343 L6.25079221,8.87608343 Z" id="Fill-2"></path>
                        <path d="M11.8327785,22.3203806 L15.8169922,22.3203806 L15.8169922,24.8822107 C15.8169922,25.0196739 15.6507593,25.1127616 15.4996499,25.0602151 L13.9128762,24.506277 C13.8565071,24.4866664 13.7932636,24.4866664 13.7368319,24.506277 L12.1501207,25.0602151 C11.9990113,25.113013 11.8327785,25.0196739 11.8327785,24.8822107 L11.8327785,22.3203806 Z" id="Fill-3"></path>
                        <path d="M15.5877658,25.7705356 C15.4803394,25.7705356 15.3746628,25.7523078 15.2731108,25.7169834 L13.8247603,25.2114434 L12.3766598,25.7169834 C12.2751078,25.7523078 12.1691812,25.7705356 12.0617548,25.7705356 C11.5544947,25.7705356 11.1414123,25.3720371 11.1414123,24.8824622 L11.1414123,22.3203806 C11.1414123,21.93659 11.4509429,21.6252709 11.8327785,21.6252709 L15.8169922,21.6252709 C16.1985153,21.6252709 16.5080458,21.93659 16.5080458,22.3203806 L16.5080458,24.8824622 C16.5080458,25.3720371 16.0952759,25.7702842 15.5877658,25.7705356 L15.5877658,25.7705356 Z M13.8247603,23.7964594 C13.9323742,23.7964594 14.0381133,23.8141844 14.1389154,23.8495087 L15.125626,24.1937637 L15.125626,23.0156788 L12.5238321,23.0156788 L12.5238321,24.1937637 L13.5101053,23.8495087 C13.6114074,23.8141844 13.7173339,23.7964594 13.8247603,23.7964594 L13.8247603,23.7964594 Z" id="Fill-4"></path>
                        <path d="M17.1427303,22.9678464 L3.1104914,22.9678464 C1.39535595,22.9678464 0,21.5644276 0,19.8393186 L0,3.15360677 C0,1.42856067 1.39535595,0.0251418633 3.1104914,0.0251418633 L17.1427303,0.0251418633 C18.3623544,0.0251418633 19.3546895,1.02321098 19.3546895,2.24988249 L19.3546895,14.9143419 C19.3546895,15.2980696 19.0451589,15.6093887 18.6633858,15.6093887 C18.2818002,15.6093887 17.9722697,15.2980696 17.9722697,14.9143419 L17.9722697,2.24988249 C17.9722697,1.78972354 17.6002456,1.41554976 17.1427303,1.41554976 L3.1104914,1.41554976 C2.15771475,1.41554976 1.38241979,2.19532465 1.38241979,3.15360677 L1.38241979,19.8393186 C1.38241979,20.7976008 2.15771475,21.5774385 3.1104914,21.5774385 L17.1427303,21.5774385 C17.6002456,21.5774385 17.9722697,21.2032019 17.9722697,20.7431058 L17.9722697,18.4599732 C17.9722697,18.0761826 18.2815502,17.7648635 18.6633858,17.7648635 C19.0451589,17.7648635 19.3546895,18.0761826 19.3546895,18.4599732 L19.3546895,20.7431058 C19.3546895,21.9697773 18.3623544,22.9678464 17.1427303,22.9678464 L17.1427303,22.9678464 Z" id="Fill-6"></path>
                        <path d="M13.2923153,18.5954878 L6.06237417,18.5954878 C5.68053858,18.5954878 5.37125801,18.2841687 5.37125801,17.900441 C5.37125801,17.516399 5.68053858,17.2050799 6.06237417,17.2050799 L13.2923153,17.2050799 C13.6741509,17.2050799 13.9836814,17.516399 13.9836814,17.900441 C13.9836814,18.2841687 13.6741509,18.5954878 13.2923153,18.5954878 L13.2923153,18.5954878 Z" id="Fill-8"></path>
                    </g>
                </g>
            </g>
        </g>
    </g>
</svg>