<?xml version="1.0" encoding="UTF-8"?>
<svg width="18px" height="17px" viewBox="0 0 18 17" version="1.1" xmlns="http://www.w3.org/2000/svg" xmlns:xlink="http://www.w3.org/1999/xlink">
    <!-- Generator: Sketch 55 (78076) - https://sketchapp.com -->
    <title>heart</title>
    <desc>Created with Sketch.</desc>
    <g id="Screen" stroke="none" stroke-width="1" fill="none" fill-rule="evenodd">
        <g id="39_UserProfile" transform="translate(-35.000000, -657.000000)" fill="#4B66EA">
            <g id="calendar" transform="translate(16.000000, 637.000000)">
                <g id="heart" transform="translate(19.000000, 20.000000)">
                    <path d="M15.8745562,1.13633698 C15.1344706,0.568190447 14.2560395,0.201885443 13.3290635,0.0821354784 C11.7366647,-0.127181667 10.1780462,0.35882658 9.00068399,1.4128412 C7.82327505,0.347519716 6.25718099,-0.138348363 4.65730651,0.0746598661 C3.73033058,0.198054192 2.84825504,0.568190447 2.10433817,1.1438126 C0.766156843,2.18647363 -0.00364433607,3.74532569 2.49378916e-08,5.42733846 C2.49378916e-08,6.86620694 0.564502201,8.22317075 1.58492328,9.24359183 L8.04759014,15.7063054 C8.2941919,15.9528605 8.61554979,16.0725637 8.93714129,16.0725637 C9.25854589,16.0725637 9.5799505,15.9492161 9.82669243,15.7063054 L10.8285179,14.7044799 C11.0900242,14.4427868 11.0900242,14.0167703 10.8285179,13.7514328 C10.5667781,13.4896929 10.1406214,13.4896929 9.87523719,13.7514328 L8.93714129,14.6895287 L2.53797041,8.28671345 C1.77181359,7.52032302 1.34930133,6.50377991 1.34565697,5.41981613 C1.34565697,4.16012873 1.92127912,2.98641087 2.93039334,2.20147157 C3.48358865,1.77162386 4.14153598,1.49511965 4.83303012,1.40536558 C6.11135983,1.23725775 7.35974036,1.65575187 8.26059837,2.56025424 L9.00068399,3.30033986 L9.73324728,2.56772985 C10.6303208,1.66705874 11.8788415,1.24837772 13.1533399,1.41667245 C13.8448341,1.50628635 14.4989501,1.7791462 15.0521454,2.20147157 C16.1061601,3.01271568 16.6892578,4.2347914 16.651833,5.55049917 C16.6221175,6.58587148 16.1698429,7.59152823 15.3848569,8.38015861 L11.975931,11.7852533 C11.7142378,12.0469465 11.7142378,12.4729162 11.975931,12.7383004 C12.2376709,13.0000403 12.6636406,13.0000403 12.9290248,12.7383004 L16.3379508,9.32956137 C17.3696787,8.29783343 17.9600652,6.97100568 17.99749,5.58792396 C18.049866,3.83493959 17.2762336,2.21277844 15.8745562,1.13633698 L15.8745562,1.13633698 Z" id="Fill-1"></path>
                </g>
            </g>
        </g>
    </g>
</svg>