<?xml version="1.0" encoding="UTF-8"?>
<svg width="25px" height="25px" viewBox="0 0 25 25" version="1.1" xmlns="http://www.w3.org/2000/svg" xmlns:xlink="http://www.w3.org/1999/xlink">
    <!-- Generator: Sketch 55 (78076) - https://sketchapp.com -->
    <title>ic_hospital_white@1.5x</title>
    <desc>Created with Sketch.</desc>
    <g id="Screen" stroke="none" stroke-width="1" fill="none" fill-rule="evenodd">
        <g id="12_Main-Services" transform="translate(-212.000000, -345.000000)" fill="#FFFFFF">
            <g id="Group-2" transform="translate(16.000000, 329.000000)">
                <g id="find-hospital" transform="translate(180.000000, 0.000000)">
                    <g id="ic_hospital_white" transform="translate(16.000000, 16.000000)">
                        <path d="M15.5674631,24.2522362 L8.6355672,24.2522362 C8.23077156,24.2522362 7.9030303,23.9172997 7.9030303,23.5043156 L7.9030303,19.1808858 C7.9030303,17.8833195 8.93674642,16.8280822 10.20744,16.8280822 L13.9953455,16.8280822 C15.2659779,16.8280822 16.3,17.8835695 16.3,19.1808858 L16.3,23.5043156 C16.2997552,23.9172997 15.9720139,24.2522362 15.5674631,24.2522362 L15.5674631,24.2522362 Z M9.36779809,22.756395 L14.835171,22.756395 L14.835171,19.1808858 C14.835171,18.7081005 14.4584063,18.3236735 13.9955903,18.3236735 L10.20744,18.3236735 C9.74462403,18.3236735 9.36779809,18.7081005 9.36779809,19.1808858 L9.36779809,22.756395 Z" id="Fill-2"></path>
                        <path d="M5.19561258,24.2522362 L0.731904749,24.2522362 C0.327703028,24.2522362 0,23.9087867 0,23.4853057 L0,16.2005879 C0,14.6362266 1.21462311,13.3634771 2.70754002,13.3634771 C3.11174174,13.3634771 3.43920017,13.7066062 3.43920017,14.1301512 C3.43920017,14.5536321 3.11174174,14.8970817 2.70754002,14.8970817 C2.02155895,14.8970817 1.4635649,15.4817788 1.4635649,16.2005879 L1.4635649,22.7186316 L5.19561258,22.7186316 C5.59975315,22.7186316 5.92727273,23.0617607 5.92727273,23.4853057 C5.92727273,23.9087867 5.59975315,24.2522362 5.19561258,24.2522362 L5.19561258,24.2522362 Z" id="Fill-4"></path>
                        <path d="M23.9650649,24.2522362 L19.5013571,24.2522362 C19.0972165,24.2522362 18.769697,23.9087867 18.769697,23.4853057 C18.769697,23.0617607 19.0972165,22.7183753 19.5013571,22.7183753 L23.2334048,22.7183753 L23.2334048,16.2005879 C23.2334048,15.4817788 22.6754107,14.8970817 21.9893685,14.8970817 C21.585228,14.8970817 21.2575249,14.5536321 21.2575249,14.1301512 C21.2575249,13.7066062 21.585228,13.3634771 21.9893685,13.3634771 C23.4823466,13.3634771 24.6969697,14.6362266 24.6969697,16.2003316 L24.6969697,23.4853057 C24.6969697,23.9087867 24.3692055,24.2522362 23.9650649,24.2522362 L23.9650649,24.2522362 Z" id="Fill-6"></path>
                        <path d="M16.0567437,14.8483079 L8.14628665,14.8483079 C7.73916292,14.8483079 7.40909091,14.5158293 7.40909091,14.1057994 C7.40909091,13.6957074 7.73916292,13.3634771 8.14628665,13.3634771 L16.0567437,13.3634771 C16.4638674,13.3634771 16.7939394,13.6957074 16.7939394,14.1057994 C16.7939394,14.5158293 16.4638674,14.8483079 16.0567437,14.8483079 L16.0567437,14.8483079 Z" id="Fill-7"></path>
                        <path d="M16.0567437,11.3837027 L8.14628665,11.3837027 C7.73916292,11.3837027 7.40909091,11.0512316 7.40909091,10.6412873 C7.40909091,10.231281 7.73916292,9.89887191 8.14628665,9.89887191 L16.0567437,9.89887191 C16.4638674,9.89887191 16.7939394,10.231281 16.7939394,10.6412873 C16.7939394,11.0512316 16.4638674,11.3837027 16.0567437,11.3837027 L16.0567437,11.3837027 Z" id="Fill-8"></path>
                        <path d="M19.4987258,24.2522362 L5.1982439,24.2522362 C4.78250845,24.2522362 4.44545455,23.9172384 4.44545455,23.5041786 L4.44545455,7.752783 C4.44545455,6.01329453 5.81341916,4.56505413 7.55950805,4.45592985 C7.57548336,4.45499235 7.59095551,4.45449236 7.60693083,4.45449236 L17.0900389,4.45449236 C17.1057626,4.45449236 17.1214863,4.45499235 17.1372101,4.45592985 C18.8835505,4.56505413 20.2515152,6.01304453 20.2515152,7.752783 L20.2515152,23.5041786 C20.2515152,23.9172384 19.9143984,24.2522362 19.4987258,24.2522362 L19.4987258,24.2522362 Z M5.95078167,22.7561211 L18.7459364,22.7561211 L18.7459364,7.752783 C18.7459364,6.80822676 18.0091224,6.02041948 17.0645035,5.95035745 L7.63246616,5.95035745 C6.6877844,6.02041948 5.95078167,6.80822676 5.95078167,7.752783 L5.95078167,22.7561211 Z" id="Fill-9"></path>
                        <path d="M12.3485778,0 C11.4670059,0 10.7524256,0.715970989 10.7524256,1.59939732 L10.7524256,2.85500186 L9.49918258,2.85500186 C8.61754864,2.85500186 7.9030303,3.5712213 7.9030303,4.45439919 C7.9030303,5.33776341 8.61754864,6.05379651 9.49918258,6.05379651 L10.7524256,6.05379651 L10.7524256,7.30958739 C10.7524256,8.19301373 11.4670059,8.90898472 12.3485778,8.90898472 C13.2299638,8.90898472 13.9444822,8.19301373 13.9444822,7.30958739 L13.9444822,6.05379651 L15.1977871,6.05379651 C16.0794211,6.05379651 16.7939394,5.33776341 16.7939394,4.45439919 C16.7939394,3.5712213 16.0794211,2.85500186 15.1977871,2.85500186 L13.9444822,2.85500186 L13.9444822,1.59939732 C13.9444822,0.715970989 13.2299638,0 12.3485778,0 L12.3485778,0 Z" id="Fill-10"></path>
                    </g>
                </g>
            </g>
        </g>
    </g>
</svg>