<?xml version="1.0" encoding="UTF-8"?>
<svg width="28px" height="27px" viewBox="0 0 28 27" version="1.1" xmlns="http://www.w3.org/2000/svg" xmlns:xlink="http://www.w3.org/1999/xlink">
    <!-- Generator: Sketch 55 (78076) - https://sketchapp.com -->
    <title>logo hospital</title>
    <desc>Created with Sketch.</desc>
    <g id="Screen" stroke="none" stroke-width="1" fill="none" fill-rule="evenodd">
        <g id="42_Insurrance" transform="translate(-32.000000, -129.000000)">
            <g id="insurance" transform="translate(16.000000, 120.000000)">
                <g id="logo-hospital" transform="translate(16.000000, 9.000000)">
                    <path d="M0.219371901,13.4990924 C0.219371901,6.89271429 5.02657851,1.25652101 11.6496198,0.0975630252 C12.2730248,-0.0113445378 12.869124,0.39592437 12.9808926,1.00762185 C13.0919669,1.61931933 12.676595,2.20333613 12.0524959,2.31269748 C6.52561983,3.27970588 2.51398347,7.98428571 2.51398347,13.4990924 C2.51398347,18.775437 6.16300826,23.319605 11.3876694,24.5493529 C12.0036694,24.6943361 12.3829421,25.3021765 12.2353058,25.9057059 C12.087438,26.509916 11.4681983,26.8820168 10.8519669,26.7370336 C4.59153719,25.2633782 0.219371901,19.8198151 0.219371901,13.4990924" id="Fill-109" fill="#206292"></path>
                    <path d="M14.7129587,1.12946218 C14.7129587,1.07818487 14.7166612,1.02645378 14.7240661,0.974495798 C14.8103802,0.358941176 15.3895868,-0.0712436975 16.017157,0.0136134454 C22.8412893,0.936378151 27.9879669,6.73434454 27.9879669,13.4988655 L27.9879669,13.4990924 C27.9879669,16.798084 26.7693884,19.9806807 24.5555372,22.4605966 C22.3636694,24.916916 19.3500826,26.5205798 16.0703802,26.977084 C15.4430413,27.0642101 14.8626777,26.636521 14.7735868,26.0214202 C14.6849587,25.4058655 15.1209256,24.8368235 15.7482645,24.7494706 C21.4179174,23.9607983 25.6935868,19.1241681 25.6935868,13.4990924 C25.6938182,7.85178151 21.3989421,3.01242857 15.7036033,2.24236134 C15.1292562,2.16476471 14.7129587,1.68239496 14.7129587,1.12946218" id="Fill-110" fill="#2F76A6"></path>
                    <path d="M15.3625124,20.5683277 C15.8132893,20.5676471 16.1819174,20.2053025 16.1809917,19.7628655 L16.1543802,16.1843445 L19.8235372,16.1775378 C20.2750083,16.1768571 20.6431736,15.8140588 20.6424793,15.3720756 L20.6376198,12.6797899 C20.6369256,12.2373529 20.2666777,11.8763697 19.8161322,11.8768235 L16.1661818,11.8818151 L16.1594711,8.30510924 C16.1585455,7.86267227 15.7887603,7.50123529 15.3377521,7.50236975 L13.7329587,7.50509244 L13.7329587,20.5712773 L15.3625124,20.5683277" id="Fill-111" fill="#40A890"></path>
                    <path d="M14.0712727,7.50509244 L12.5919008,7.50713445 C12.1406612,7.50826891 11.7724959,7.87084034 11.7731901,8.31282353 L11.7574545,11.8913445 L8.13041322,11.8981513 C7.67917355,11.8988319 7.31077686,12.2614034 7.31170248,12.7040672 L7.31656198,15.3961261 C7.3174876,15.8378824 7.68727273,16.1995462 8.13828099,16.1984118 L11.7877686,16.191605 L11.7947107,19.7705798 C11.7956364,20.2130168 12.1651901,20.574 12.6164298,20.5733193 L14.0712727,20.5712773 L14.0712727,7.50509244" id="Fill-112" fill="#31947D"></path>
                </g>
            </g>
        </g>
    </g>
</svg>