<?xml version="1.0" encoding="UTF-8"?>
<svg width="13px" height="16px" viewBox="0 0 13 16" version="1.1" xmlns="http://www.w3.org/2000/svg" xmlns:xlink="http://www.w3.org/1999/xlink">
    <!-- Generator: Sketch 55 (78076) - https://sketchapp.com -->
    <title>ic_location</title>
    <desc>Created with Sketch.</desc>
    <g id="Symbols" stroke="none" stroke-width="1" fill="none" fill-rule="evenodd">
        <g id="doctor-" transform="translate(-92.000000, -66.000000)" fill="#696969">
            <g id="address">
                <g transform="translate(92.000000, 62.000000)">
                    <path d="M6.13745715,6.9306279 C4.33763379,6.9306279 2.86956396,8.3955495 2.86956396,10.1985211 C2.86956396,12.0014927 4.33763379,13.4665678 6.13745715,13.4665678 C6.44160614,13.4665678 6.69043088,13.2177815 6.69043088,12.9137861 C6.69043088,12.6096371 6.44160614,12.3608123 6.13745715,12.3608123 C4.9457782,12.3608123 3.97531947,11.3902 3.97531947,10.1985211 C3.97531947,9.00684214 4.9457782,8.03622984 6.13745715,8.03622984 C7.32928966,8.03622984 8.29978679,9.00684214 8.29978679,10.1985211 C8.29978679,10.7145608 8.11561578,11.2121719 7.78071403,11.6022827 C7.58110906,11.8356351 7.60871359,12.182669 7.84221955,12.3824276 C8.07557193,12.5820325 8.42275943,12.5542744 8.6223644,12.3209221 C9.12911302,11.7312447 9.40550391,10.9756713 9.40550391,10.1985211 C9.40550391,8.39869773 7.94042873,6.9306279 6.13745715,6.9306279 L6.13745715,6.9306279 Z M10.4007261,5.72347659 C9.19361319,4.55625396 7.60257072,3.94810955 5.91942355,4.00347219 C2.85412999,4.11097247 0.323343158,6.4913357 0.02848526,9.53820064 C-0.0268389888,10.1248834 -0.00226749731,10.7114126 0.108265821,11.2889578 C0.111414044,11.3134141 0.123738182,11.3842107 0.151304324,11.494744 C0.246557247,11.9094264 0.381662057,12.3147792 0.559843763,12.7017034 C1.18326857,14.1699268 2.54084348,16.4304656 5.47414206,18.8630433 C5.66760416,19.022758 5.90111011,19.1026921 6.13745715,19.1026921 C6.37399615,19.1026921 6.6075021,19.022758 6.8009642,18.8630433 C9.73426278,16.427471 11.0917993,14.1699268 11.7152625,12.7017034 C11.8934058,12.3147792 12.0316972,11.9094264 12.1237635,11.494744 C12.1513681,11.3842107 12.1636538,11.3134141 12.166802,11.2889578 C12.2374451,10.9112095 12.2743407,10.5210987 12.2743407,10.1371691 C12.2743407,8.45705502 11.6077238,6.89058405 10.4007261,5.72347659 L10.4007261,5.72347659 Z M11.0763653,11.0923475 C11.0763653,11.1015234 11.0733707,11.1076663 11.0733707,11.1169574 C11.0702225,11.1322378 11.0610849,11.1752763 11.0457661,11.2427711 L11.0457661,11.248914 C10.9689802,11.5899586 10.8552987,11.9277014 10.7078697,12.2471308 C10.7047215,12.2533121 10.7017269,12.2594549 10.7017269,12.2626032 C10.1303245,13.6110021 8.87733202,15.6933593 6.14060537,17.978508 C3.40391711,15.6963539 2.15077105,13.6110021 1.57952227,12.2626032 C1.57648922,12.2564603 1.573341,12.250279 1.573341,12.2471308 C1.42595044,11.9277014 1.3122689,11.5929532 1.23548299,11.248914 L1.23548299,11.2427711 C1.2201642,11.1752763 1.21102668,11.1322378 1.20787846,11.1169574 C1.20787846,11.1076663 1.20488381,11.1015234 1.20488381,11.0923475 C1.10648266,10.6163516 1.08191117,10.127878 1.1280979,9.64259109 C1.36759315,7.14251862 3.44396097,5.19215648 5.95631918,5.10604108 C7.33543254,5.05701328 8.64079302,5.55761903 9.63286699,6.51594559 C10.624941,7.47411857 11.1685852,8.7580174 11.1685852,10.1371691 C11.1685852,10.4566369 11.1378708,10.779061 11.0763653,11.0923475 L11.0763653,11.0923475 Z" id="ic_location"></path>
                </g>
            </g>
        </g>
    </g>
</svg>