<?xml version="1.0" encoding="UTF-8"?>
<svg width="24px" height="16px" viewBox="0 0 24 16" version="1.1" xmlns="http://www.w3.org/2000/svg" xmlns:xlink="http://www.w3.org/1999/xlink">
    <!-- Generator: Sketch 55 (78076) - https://sketchapp.com -->
    <title>ic_menu_white</title>
    <desc>Created with Sketch.</desc>
    <g id="Symbols" stroke="none" stroke-width="1" fill="none" fill-rule="evenodd">
        <g id="header-color" transform="translate(-16.000000, -66.000000)" fill="#FFFFFF">
            <g id="ic_menu_white">
                <g transform="translate(16.000000, 62.000000)">
                    <path d="M0,5.41176471 C0,4.63206859 0.641942024,4 1.41170852,4 L22.5882915,4 C23.3679566,4 24,4.62663269 24,5.41176471 C24,6.19146082 23.358058,6.82352941 22.5882915,6.82352941 L1.41170852,6.82352941 C0.632043433,6.82352941 0,6.19689672 0,5.41176471 Z M0,12 C0,11.2203039 0.641942024,10.5882353 1.41170852,10.5882353 L22.5882915,10.5882353 C23.3679566,10.5882353 24,11.214868 24,12 C24,12.7796961 23.358058,13.4117647 22.5882915,13.4117647 L1.41170852,13.4117647 C0.632043433,13.4117647 0,12.785132 0,12 Z M0,18.5882353 C0,17.8085392 0.641942024,17.1764706 1.41170852,17.1764706 L22.5882915,17.1764706 C23.3679566,17.1764706 24,17.8031033 24,18.5882353 C24,19.3679314 23.358058,20 22.5882915,20 L1.41170852,20 C0.632043433,20 0,19.3733673 0,18.5882353 Z"></path>
                </g>
            </g>
        </g>
    </g>
</svg>