<?xml version="1.0" encoding="UTF-8"?>
<svg width="20px" height="24px" viewBox="0 0 20 24" version="1.1" xmlns="http://www.w3.org/2000/svg" xmlns:xlink="http://www.w3.org/1999/xlink">
    <!-- Generator: Sketch 55 (78076) - https://sketchapp.com -->
    <title>ic_notification</title>
    <desc>Created with Sketch.</desc>
    <g id="Symbols" stroke="none" stroke-width="1" fill="none" fill-rule="evenodd">
        <g id="header-color" transform="translate(-339.000000, -62.000000)" fill="#FFFFFF">
            <g id="ic_notification">
                <g transform="translate(339.000000, 62.000000)">
                    <path d="M19.5510174,18.8373829 C19.3502694,18.5276873 19.1448116,18.2276409 18.9393538,17.9376125 C18.7876,17.7162345 18.6409231,17.5097913 18.4990171,17.2984928 C18.4256175,17.1854683 18.352279,17.0771763 18.2786959,16.9688843 C17.8971401,16.3936827 17.5007209,15.7987525 17.1387383,15.2038223 C16.5024858,14.1614039 16.1354876,13.0354617 16.0131549,11.7572837 C15.924953,10.8181176 15.7930783,9.88399124 15.6119647,8.97911967 C15.3622836,7.71563059 14.7996143,6.71758608 13.9385142,6.01442533 C12.9598524,5.20321839 11.6973174,4.93261121 10.3760628,5.24734647 C9.60285881,5.43412259 8.81032623,5.13432203 8.44809903,4.52476446 C8.27200107,4.2296963 8.18386034,3.89043861 8.19364695,3.54140882 C8.21799117,2.5923477 9.01076841,1.80080787 9.9552994,1.7713072 C10.7234266,1.75157863 11.4280631,2.22358934 11.7020884,2.94647865 C11.8734154,3.40355465 12.3823807,3.63476614 12.8375196,3.45757775 C13.2924139,3.28567489 13.5225217,2.77432996 13.3464238,2.31700812 C12.8080986,0.891142445 11.4232921,-0.0381900948 9.90153417,0.00120559053 C8.99621081,0.0256665621 8.13486608,0.404319943 7.4839948,1.05825144 C6.82841371,1.7172841 6.45664455,2.57772029 6.43199451,3.48713988 C6.41242127,4.17063351 6.5887639,4.84429358 6.93612768,5.42932873 C7.70431604,6.71758608 9.25066289,7.33218335 10.7869784,6.96342499 C11.3350902,6.83067197 12.1278675,6.79613161 12.8227174,7.37157904 C12.8227174,7.37157904 12.827733,7.37157904 12.827733,7.3763729 C13.3708292,7.82386117 13.7181929,8.45818702 13.8895199,9.3186232 C14.0558313,10.1641247 14.1831796,11.0344559 14.2663047,11.9145592 C14.4082719,13.4436157 14.8729527,14.8598322 15.6413858,16.1233213 C16.0229415,16.7427125 16.4291474,17.3525159 16.8204897,17.9426522 C16.8940729,18.0506984 16.9674114,18.1637843 17.040811,18.2720149 C17.1925036,18.5029805 17.3540439,18.7291523 17.5057365,18.9454291 C17.7062399,19.2306637 17.8971401,19.5060033 18.073238,19.7814043 C18.1465765,19.8944902 18.2641383,20.1059731 18.2397329,20.2485597 C18.2201597,20.3566059 18.1123845,20.5090875 17.9264999,20.6663015 C17.5497151,20.9909317 17.0553686,21.1827475 16.5710533,21.3351677 C15.0297221,21.8316394 13.3170639,22.1120801 11.1688401,22.215271 L8.83473161,22.215271 C6.69146222,22.1168739 4.97378839,21.8366791 3.43245719,21.3351677 C2.9529129,21.1777079 2.45379537,20.9909317 2.07701057,20.6663015 C1.89112599,20.5042936 1.78335085,20.3566059 1.76377762,20.2485597 C1.7394334,20.1059731 1.86176613,19.8944902 1.93033363,19.7814043 C2.11120256,19.5012094 2.29733181,19.2306637 2.49777398,18.9454291 C2.64946657,18.7291523 2.81100693,18.5029805 2.96276068,18.2720149 C3.03609915,18.1637843 3.10943762,18.0506984 3.18302076,17.9426522 C3.57442432,17.3525159 3.98056898,16.7427125 4.36212475,16.1233213 C5.13532876,14.8646261 5.59529982,13.4486554 5.73720578,11.9145592 C5.82033087,11.0344559 5.9426636,10.1641247 6.11399058,9.3186232 C6.18255808,8.96449225 6.28531757,8.64496313 6.41743691,8.36452239 C6.62289473,7.92207382 6.43701015,7.39604001 5.9966735,7.18455709 C5.55609218,6.97811386 5.03256927,7.16488997 4.82209581,7.60758439 C4.63144025,8.01543114 4.47968651,8.47785413 4.38175916,8.96953195 C4.20064555,9.87415768 4.06852621,10.8082841 3.98056898,11.7474502 C3.86300723,13.0208343 3.49600904,14.1515703 2.85498555,15.1939888 C2.49300301,15.7889189 2.0965838,16.3838491 1.71502803,16.9592965 C1.64144489,17.0673427 1.56810642,17.1804286 1.49476795,17.2886592 C1.35280082,17.4999578 1.20612388,17.706401 1.05437013,17.9277789 C0.853683289,18.2177459 0.643209831,18.5178538 0.44270649,18.8275493 C-0.281503258,19.9878475 -0.115191915,21.1188909 0.927021759,22.0184155 C1.5386854,22.549489 2.23353529,22.8200347 2.89413202,23.0363729 C4.59223262,23.5871136 6.46141553,23.8917694 8.77595074,24 L11.2276209,24 C13.542095,23.8917694 15.4112779,23.5871136 17.1093785,23.0363729 C17.7697917,22.8248285 18.4648251,22.5545287 19.0764887,22.0184155 C20.1136868,21.1138512 20.2850138,19.9830537 19.5510174,18.8373829 L19.5510174,18.8373829 Z"></path>
                </g>
            </g>
        </g>
    </g>
</svg>