<?xml version="1.0" encoding="UTF-8"?>
<svg width="16px" height="16px" viewBox="0 0 16 16" version="1.1" xmlns="http://www.w3.org/2000/svg" xmlns:xlink="http://www.w3.org/1999/xlink">
    <!-- Generator: Sketch 55 (78076) - https://sketchapp.com -->
    <title>Fill 1</title>
    <desc>Created with Sketch.</desc>
    <g id="Screen" stroke="none" stroke-width="1" fill="none" fill-rule="evenodd">
        <g id="34_Quick-Search-Doctor" transform="translate(-314.000000, -58.000000)" fill="#969696">
            <g id="Group-2">
                <g id="search" transform="translate(24.000000, 48.000000)">
                    <path d="M305.398814,22.4898557 L303.983557,21.0745979 C303.752546,20.8437526 303.376423,20.8437526 303.142196,21.0745979 C302.911392,21.305567 302.911392,21.6816907 303.142196,21.9159175 L304.557495,23.3311753 C304.89399,23.6676701 304.89399,24.212 304.557495,24.5484948 C304.395928,24.7100619 304.178113,24.799134 303.947144,24.799134 C303.716299,24.799134 303.501907,24.7100619 303.336959,24.5484948 L300.625124,21.8366598 L302.261412,20.2003711 C302.492381,19.969567 302.492381,19.5934433 302.261412,19.3592165 C302.030402,19.1282062 301.654443,19.1282062 301.420216,19.3592165 L300.809907,19.969567 L299.952134,19.1117938 C301.726938,16.9146392 301.595021,13.6783093 299.552959,11.6396701 C298.497247,10.5839175 297.091928,10 295.594196,10 C294.099845,10 292.694402,10.5805361 291.635433,11.6396701 C289.454856,13.8202474 289.454856,17.3732371 291.635433,19.5538144 C292.691186,20.6095258 294.096464,21.1934433 295.594196,21.1934433 C296.890773,21.1934433 298.117866,20.7546804 299.110938,19.9529485 L299.968546,20.8107216 L299.358361,21.4210722 C299.246113,21.5331959 299.183433,21.6849072 299.183433,21.8400412 C299.183433,21.9950103 299.246113,22.1501443 299.358361,22.2590103 L302.492381,25.3930309 C302.901371,25.7856082 303.425866,25.9868041 303.950526,25.9868041 C304.475021,25.9868041 304.999474,25.7856082 305.398814,25.386433 C306.197124,24.5879588 306.197124,23.2881649 305.398814,22.4898557 L305.398814,22.4898557 Z M298.721619,18.7092371 C297.890278,19.5405773 296.781866,19.9991753 295.60401,19.9991753 C294.426361,19.9991753 293.317948,19.5405773 292.486608,18.7092371 C290.767845,16.9905155 290.767845,14.1929897 292.486608,12.4742268 C293.317948,11.6428866 294.426361,11.1842887 295.60401,11.1842887 C296.781866,11.1842887 297.890278,11.6428866 298.721619,12.4742268 C300.440381,14.1929897 300.440381,16.9905155 298.721619,18.7092371 L298.721619,18.7092371 Z" id="Fill-1"></path>
                </g>
            </g>
        </g>
    </g>
</svg>