<?xml version="1.0" encoding="UTF-8"?>
<svg width="144px" height="144px" viewBox="0 0 144 144" version="1.1" xmlns="http://www.w3.org/2000/svg" xmlns:xlink="http://www.w3.org/1999/xlink">
    <!-- Generator: Sketch 55 (78076) - https://sketchapp.com -->
    <title>img</title>
    <desc>Created with Sketch.</desc>
    <defs>
        <rect id="path-1" x="0" y="0" width="144" height="144" rx="24"></rect>
        <mask id="mask-2" maskContentUnits="userSpaceOnUse" maskUnits="objectBoundingBox" x="0" y="0" width="144" height="144" fill="white">
            <use xlink:href="#path-1"></use>
        </mask>
    </defs>
    <g id="Screen" stroke="none" stroke-width="1" fill="none" fill-rule="evenodd">
        <g id="45_Add-Drugs" transform="translate(-116.000000, -136.000000)">
            <g id="img" transform="translate(116.000000, 136.000000)">
                <use id="Rectangle" stroke="#969696" mask="url(#mask-2)" stroke-width="2" stroke-dasharray="8,8,8,8" xlink:href="#path-1"></use>
                <path d="M89.968425,58.9907602 C93.2983967,58.9907602 96,61.6931835 96,65.0247799 L96,85.691193 C96,89.1694574 93.1708073,92 89.6931071,92 L54.3068929,92 C50.8291927,92 48,89.1694574 48,85.691193 L48,65.0247799 C48,61.6931835 50.7016033,58.9907602 54.0320662,58.9907602 L61.1640533,58.9907602 L61.2427682,58.6568881 C62.0480916,55.2078591 65.0740101,52.8 68.6208469,52.8 L75.3892228,52.8 C76.3620455,52.8 77.1577905,53.5959865 77.1577905,54.5686132 C77.1577905,55.5417312 76.3620455,56.3378405 75.3892228,56.3378405 L68.6208469,56.3378405 C66.7245669,56.3378405 65.1133062,57.6251767 64.6811724,59.4624559 L64.2883348,61.1625258 C64.1016785,61.9586351 63.3941041,62.5286008 62.5691326,62.5286008 L54.0320662,62.5286008 C52.6568273,62.5286008 51.5367671,63.6490008 51.5367671,65.0247799 L51.5367671,85.691193 C51.5367671,87.2141313 52.774347,88.4621595 54.3068929,88.4621595 L89.6931071,88.4621595 C91.2160745,88.4621595 92.4632329,87.2237126 92.4632329,85.691193 L92.4632329,65.0247799 C92.4632329,63.6490008 91.3436639,62.5286008 89.968425,62.5286008 L81.4308674,62.5286008 C80.4585358,62.5286008 79.6627908,61.7326143 79.6627908,60.7599876 C79.6627908,59.7868696 80.4585358,58.9907602 81.4308674,58.9907602 L89.968425,58.9907602 Z M80.6375122,72.6315591 C81.60726,72.6315591 82.4,73.4252756 82.4,74.3949788 C82.4,80.1365332 77.7287586,84.8 72.0002448,84.8 C66.2713638,84.8 61.6,80.1462082 61.6,74.4050212 C61.6,68.6638342 66.2713638,64 72.0002448,64 C72.9695029,64 73.762855,64.793594 73.762855,65.7632972 C73.762855,66.7334903 72.9695029,67.5270843 72.0002448,67.5270843 C68.2102473,67.5270843 65.1255876,70.6037306 65.1255876,74.3949788 C65.1255876,78.1867169 68.2102473,81.2727932 72.0002448,81.2727932 C75.7897527,81.2727932 78.8750244,78.1867169 78.8750244,74.3949788 C78.8750244,73.4252756 79.6677645,72.6315591 80.6375122,72.6315591 Z" id="ic_camera" fill="#969696"></path>
            </g>
        </g>
    </g>
</svg>