<?xml version="1.0" encoding="UTF-8"?>
<svg width="18px" height="26px" viewBox="0 0 18 26" version="1.1" xmlns="http://www.w3.org/2000/svg" xmlns:xlink="http://www.w3.org/1999/xlink">
    <!-- Generator: Sketch 55 (78076) - https://sketchapp.com -->
    <title>Fill 1</title>
    <desc>Created with Sketch.</desc>
    <g id="Screen" stroke="none" stroke-width="1" fill="none" fill-rule="evenodd">
        <g id="49_News" transform="translate(-342.000000, -59.000000)" fill="#FFFFFF" stroke="#FFFFFF" stroke-width="0.5">
            <path d="M351.000215,79.6580818 L344.967135,83.9890629 C344.717223,84.1554595 344.440308,84.2444066 344.142953,84.2444066 C343.919737,84.2444066 343.717475,84.2049697 343.516226,84.1108575 C343.056246,83.8796925 342.75,83.4182105 342.75,82.9267189 L342.75,62.6690107 C342.75,61.0588673 344.151134,59.75 345.857159,59.75 L356.142841,59.75 C357.848866,59.75 359.25,61.0588673 359.25,62.6690107 L359.25,82.9267189 C359.25,83.4336471 358.956768,83.8902976 358.477428,84.1139354 C358.003855,84.3354254 357.451108,84.2820716 357.025616,83.9840494 L351.000215,79.6580818 Z M357.607047,82.4381649 L357.607047,62.6690107 C357.607047,61.9302176 356.951432,61.3176877 356.142841,61.3176877 L347.821365,61.3176877 L347.821365,67.7402146 C347.821365,68.175743 347.448719,68.5238499 347.000112,68.5238499 C346.551411,68.5238499 346.178412,68.1757508 346.178412,67.7402146 L346.178412,61.3176877 L345.857159,61.3176877 C345.048795,61.3176877 344.392953,61.9303413 344.392953,62.6690107 L344.392953,82.4395357 L350.158163,78.3013287 C350.649158,77.9078383 351.379311,77.9078383 351.860756,78.293648 L357.607047,82.4381649 Z" id="Fill-1"></path>
        </g>
    </g>
</svg>