<?xml version="1.0" encoding="UTF-8"?>
<svg width="60px" height="60px" viewBox="0 0 60 60" version="1.1" xmlns="http://www.w3.org/2000/svg" xmlns:xlink="http://www.w3.org/1999/xlink">
    <!-- Generator: Sketch 55 (78076) - https://sketchapp.com -->
    <title>ic_call</title>
    <desc>Created with Sketch.</desc>
    <g id="Screen" stroke="none" stroke-width="1" fill="none" fill-rule="evenodd">
        <g id="25_Doctor-Details" transform="translate(-24.000000, -178.000000)">
            <g id="ic_call" transform="translate(24.000000, 178.000000)">
                <rect id="Rectangle" fill="#4B66EA" x="7.5" y="15" width="45" height="45" rx="22.5"></rect>
                <rect id="Rectangle" fill="#696969" x="0" y="0" width="60" height="60" rx="30"></rect>
                <path d="M38.1401333,36.5466 C39.1854,37.6080667 39.1908667,39.112 38.1401333,40.2052 L38.1242,40.2214 L36.4922,41.8534 C35.8255333,42.5200667 35.0148667,42.8987333 34.0815333,42.9786667 L34.0760667,42.9786667 C33.9054667,42.9945333 33.7348667,43 33.5695333,43 C32.3106667,43 31.1747333,42.6372667 30.3960667,42.3492667 C28.2789333,41.5654 26.3161333,40.3867333 24.2200667,38.6479333 C21.6867333,36.5252667 19.6922,33.9760667 18.2789333,31.0640667 L18.2789333,31.0586 C17.7456,29.9385333 17.1213333,28.4346667 17.0094,26.7492667 C16.9294,25.4052 17.3562667,24.2961333 18.2896,23.4479333 C18.3054667,23.4372667 18.3161333,23.4266 18.3268,23.4159333 C18.6148667,23.1760667 18.8815333,22.8987333 19.1640667,22.6052 C19.3669333,22.3974 19.5695333,22.1841333 19.7934667,21.9760667 C20.9294,20.8880667 22.4229333,20.8932667 23.5213333,21.9919333 L26.1456,24.6159333 C26.6841333,25.1333333 26.9721333,25.7628 26.9773333,26.4294667 C26.9828,27.112 26.7002667,27.7573333 26.1508,28.3068 L24.5187333,29.9385333 C24.1401333,30.312 23.532,30.312 23.1588667,29.9385333 C22.7854,29.5599333 22.7854,28.9520667 23.1588667,28.5786667 L24.7908667,26.9466 C24.9080667,26.824 25.0520667,26.6372667 25.0520667,26.4453333 C25.0468667,26.2640667 24.9135333,26.0987333 24.8015333,25.9919333 L24.7854,25.9760667 L22.1562667,23.3466 C21.8041333,22.9945333 21.4896,23 21.1106667,23.3628 L21.1054667,23.368 C20.9135333,23.544 20.732,23.7307333 20.5401333,23.9333333 C20.2414,24.2427333 19.9268,24.568 19.5695333,24.8666667 C19.0789333,25.3252667 18.8760667,25.8692667 18.9242,26.6266 C19.0148667,27.9867333 19.5534,29.2666667 20.0122667,30.2320667 C21.3028667,32.8932667 23.132,35.2294667 25.4575333,37.1760667 C27.3828,38.7760667 29.1640667,39.8479333 31.0734667,40.5520667 C32.2200667,40.9786667 33.1002667,41.1385333 33.9268,41.0692667 C34.4122667,41.0266 34.7960667,40.8453333 35.1427333,40.4987333 L36.7695333,38.8718667 C37.2015333,38.4132667 36.9828,38.0932667 36.7802,37.8906667 C36.7747333,37.8854 36.7640667,37.8799333 36.7588667,37.8692667 C36.4922,37.5867333 36.2148667,37.3094 35.9161333,37.0214 C35.7669333,36.8718667 35.6068,36.7174667 35.4520667,36.5628 L34.1508,35.2612 C34.0174667,35.1278667 33.8255333,34.9734667 33.6336,34.9734667 C33.4414,34.9734667 33.244,35.1333333 33.1161333,35.2612 C32.9773333,35.4 32.8388,35.5385333 32.7002667,35.6718667 C32.2948,36.0718667 31.9106667,36.4453333 31.5482,36.856 L31.5106667,36.8932667 C30.9135333,37.4854 30.3054667,37.2826 30.1028667,37.2132667 C30.0815333,37.2080667 30.0601333,37.2026 30.0388,37.1919333 C29.1908667,36.8453333 28.3960667,36.3547333 27.4520667,35.6080667 C27.4468667,35.6080667 27.4468667,35.6026 27.4414,35.6026 C26.5028667,34.8401333 25.6974,34.0666667 24.9828,33.2453333 C24.6307333,32.8453333 24.6734667,32.2372667 25.0734667,31.8906667 C25.4734667,31.5385333 26.0815333,31.5812667 26.4281333,31.9812667 C27.0734667,32.7174667 27.7986667,33.4106667 28.6468667,34.1039333 C29.2974,34.6159333 29.8575333,34.9841333 30.4068,35.2508 C30.7161333,34.9200667 31.0362,34.6052 31.3456,34.3013333 C31.4789333,34.168 31.6174667,34.0346667 31.7508,33.9013333 C32.3054667,33.3466 32.9508,33.0534 33.6229333,33.0534 C34.2896,33.0534 34.9401333,33.3466 35.4948,33.9013333 L36.7960667,35.2026 C36.9456,35.3520667 37.0948,35.5013333 37.244,35.6453333 C37.5427333,35.9333333 37.8468667,36.2320667 38.1401333,36.5466 Z M37.7614667,30.024 C37.8520667,30.5466 37.5002667,31.0427333 36.9773333,31.1333333 C36.9242,31.144 36.8708,31.1492667 36.8174667,31.1492667 C36.3588667,31.1492667 35.9534,30.8187333 35.8734667,30.3492667 C35.6122667,28.8026 34.8760667,27.3893333 33.7562667,26.2692667 C32.6362,25.1492667 31.2229333,24.4132667 29.6760667,24.1520667 C29.1534,24.0612 28.8015333,23.5654 28.8922,23.0427333 C28.9828,22.5200667 29.4789333,22.168 30.0015333,22.2586 C31.9482,22.5893333 33.7187333,23.5068 35.1106667,24.9039333 C36.5135333,26.312 37.4307333,28.0826 37.7614667,30.024 Z M42.9562667,29.7893333 C43.0468667,30.312 42.6948,30.8080667 42.1614667,30.8932667 C42.1080667,30.9039333 42.0546667,30.9094 42.0015333,30.9094 C41.5427333,30.9094 41.1374667,30.5786667 41.0575333,30.1094 C40.588,27.3252667 39.2708,24.7867333 37.2546667,22.7706 C35.2388,20.7547333 32.7002667,19.4427333 29.9161333,18.968 C29.3934667,18.8773333 29.0414,18.3812667 29.132,17.8586 C29.2229333,17.3359333 29.7187333,16.9841333 30.2414,17.0747333 C33.4200667,17.6132667 36.3161333,19.1174667 38.6148667,21.4159333 C40.9135333,23.7146 42.4174667,26.6106667 42.9562667,29.7893333 Z" id="ic_call_white" fill="#FFFFFF"></path>
            </g>
        </g>
    </g>
</svg>