<?xml version="1.0" encoding="UTF-8"?>
<svg width="22px" height="19px" viewBox="0 0 22 19" version="1.1" xmlns="http://www.w3.org/2000/svg" xmlns:xlink="http://www.w3.org/1999/xlink">
    <!-- Generator: Sketch 55 (78076) - https://sketchapp.com -->
    <title>speech-bubble-1</title>
    <desc>Created with Sketch.</desc>
    <g id="Screen" stroke="none" stroke-width="1" fill="none" fill-rule="evenodd">
        <g id="51_News-Details" transform="translate(-27.000000, -748.000000)" fill="#4B66EA">
            <g id="tabbar" transform="translate(0.000000, 733.000000)">
                <g id="speech-bubble-1" transform="translate(27.000000, 15.000000)">
                    <path d="M18.7406134,2.74755468 C16.6670014,0.976041323 13.9213264,0 11,0 C8.07867356,0 5.3332804,0.976041323 3.25944293,2.74755468 C1.15855614,4.54549951 0,6.94142213 0,9.4998901 C0,11.5178591 0.752816357,13.4960985 2.12799246,15.1181998 C1.85744292,15.6324871 1.48759983,16.0414331 1.01874497,16.3402022 C0.631094422,16.5864381 0.446426467,17.0305528 0.550115523,17.4701616 C0.649183654,17.9052643 1.00995394,18.2218925 1.46077593,18.2832729 C2.3892438,18.4107594 4.20160452,18.4723596 5.88311416,17.4920321 C6.26636919,17.2677217 6.39271205,16.779811 6.16268014,16.4061435 C5.93287363,16.0326409 5.43229217,15.9094406 5.0493189,16.133751 C4.34598026,16.5424222 3.60218034,16.7094186 2.9573922,16.7579404 C3.32700987,16.3271239 3.61998781,15.8216288 3.83638236,15.2500275 C3.94469234,14.968568 3.8771254,14.6565007 3.6741428,14.4366963 C2.33069329,13.0212661 1.62301549,11.3111331 1.62301549,9.4998901 C1.62301549,5.13468513 5.82918458,1.58264644 11,1.58264644 C16.1710408,1.58264644 20.3772663,5.13468513 20.3772663,9.4998901 C20.3772663,13.8652599 16.1710408,17.4173536 11,17.4173536 C10.2518046,17.4173536 9.50338373,17.342675 8.7820122,17.1930432 C8.34460218,17.1007254 7.91181307,17.3776239 7.82181773,17.8041543 C7.72714512,18.2306847 8.01110661,18.6526541 8.44851664,18.740466 C9.28236825,18.9119683 10.1390991,19 11.0046209,19 C13.9213264,19 16.6713969,18.0239587 18.7452344,16.2524453 C20.8415002,14.4542807 22,12.0585229 22,9.4998901 C22,6.94142213 20.8415002,4.54549951 18.7406134,2.74755468 L18.7406134,2.74755468 Z" id="Fill-1"></path>
                    <path d="M12,9.99989407 C12,10.5523013 11.5523013,11 11.0001059,11 C10.4476987,11 10,10.5523013 10,9.99989407 C10,9.44769874 10.4476987,9 11.0001059,9 C11.5523013,9 12,9.44769874 12,9.99989407 L12,9.99989407 Z" id="Fill-2"></path>
                    <path d="M15,9.99989407 C15,10.5523013 14.5522538,11 14,11 C13.4477462,11 13,10.5523013 13,9.99989407 C13,9.44769874 13.4477462,9 14,9 C14.5522538,9 15,9.44769874 15,9.99989407 L15,9.99989407 Z" id="Fill-3"></path>
                    <path d="M9,9.99989407 C9,10.5523013 8.55230126,11 7.99989407,11 C7.44769874,11 7,10.5523013 7,9.99989407 C7,9.44769874 7.44769874,9 7.99989407,9 C8.55230126,9 9,9.44769874 9,9.99989407 L9,9.99989407 Z" id="Fill-4"></path>
                </g>
            </g>
        </g>
    </g>
</svg>