<?xml version="1.0" encoding="UTF-8"?>
<svg width="60px" height="60px" viewBox="0 0 60 60" version="1.1" xmlns="http://www.w3.org/2000/svg" xmlns:xlink="http://www.w3.org/1999/xlink">
    <!-- Generator: Sketch 55 (78076) - https://sketchapp.com -->
    <title>ic_message</title>
    <desc>Created with Sketch.</desc>
    <g id="Screen" stroke="none" stroke-width="1" fill="none" fill-rule="evenodd">
        <g id="25_Doctor-Details" transform="translate(-291.000000, -178.000000)">
            <g id="ic_message" transform="translate(291.000000, 178.000000)">
                <rect id="Rectangle" stroke="#969696" x="0.5" y="0.5" width="59" height="59" rx="29.5"></rect>
                <path d="M39.1138977,21.3248082 C41.5929412,23.5004962 42.9599693,26.3997954 42.9599693,29.4957903 C42.9599693,32.5919847 41.5929412,35.4910844 39.1193504,37.6670384 C36.6722251,39.8107417 33.4271458,40.9918465 29.9854373,40.9918465 C28.9641228,40.9918465 27.9531816,40.8853197 26.9692379,40.6777852 C26.4530946,40.5715243 26.1180205,40.0609003 26.229734,39.544757 C26.3359284,39.0286138 26.8466189,38.6935396 27.3627621,38.8052532 C28.2139795,38.9863223 29.0971151,39.0766905 29.9799847,39.0766905 C36.0818056,39.0766905 41.0451458,34.778312 41.0451458,29.4957903 C41.0451458,24.213468 36.0818056,19.915156 29.9799847,19.915156 C23.8784297,19.915156 18.915156,24.213468 18.915156,29.4957903 C18.915156,31.6875703 19.7502148,33.7569974 21.3354834,35.4698056 C21.5750026,35.7357903 21.6547315,36.113422 21.5269258,36.4540153 C21.2715806,37.1457084 20.925867,37.7574066 20.4897187,38.2787366 C21.2505678,38.2200205 22.1282506,38.0179386 22.9581893,37.5234066 C23.4100972,37.2519693 24.0007826,37.4010537 24.271954,37.8530281 C24.5433913,38.305202 24.3943069,38.8956215 23.9420665,39.1670588 C21.9578875,40.3533504 19.8193043,40.2788082 18.7237136,40.1245371 C18.1917442,40.0502609 17.7660358,39.66711 17.6491355,39.1405934 C17.5267826,38.608624 17.7446905,38.071202 18.2021176,37.7732327 C18.7553657,37.4116931 19.1917801,36.9168286 19.5110281,36.294491 C17.8883223,34.3315908 17,31.9377289 17,29.4957903 C17,26.3997954 18.3670946,23.5004962 20.8461381,21.3248082 C23.2932634,19.1811049 26.5328235,18 29.9799847,18 C33.4271458,18 36.6670384,19.1811049 39.1138977,21.3248082 Z M31.230179,29.5117494 C31.230179,30.2053043 30.668087,30.7673964 29.974798,30.7673964 C29.281243,30.7673964 28.7191509,30.2053043 28.7191509,29.5117494 C28.7191509,28.8184604 29.281243,28.2563683 29.974798,28.2563683 C30.668087,28.2563683 31.230179,28.8184604 31.230179,29.5117494 Z M35.1454066,29.5117494 C35.1454066,30.2053043 34.5833146,30.7673964 33.8900256,30.7673964 C33.1967366,30.7673964 32.6346445,30.2053043 32.6346445,29.5117494 C32.6346445,28.8184604 33.1967366,28.2563683 33.8900256,28.2563683 C34.5833146,28.2563683 35.1454066,28.8184604 35.1454066,29.5117494 Z M27.3149514,29.5117494 C27.3149514,30.2053043 26.7528593,30.7673964 26.0593043,30.7673964 C25.3660153,30.7673964 24.8039233,30.2053043 24.8039233,29.5117494 C24.8039233,28.8184604 25.3660153,28.2563683 26.0593043,28.2563683 C26.7528593,28.2563683 27.3149514,28.8184604 27.3149514,29.5117494 Z" id="ic_message_grey" fill="#969696"></path>
            </g>
        </g>
    </g>
</svg>