<?xml version="1.0" encoding="UTF-8"?>
<svg width="18px" height="18px" viewBox="0 0 18 18" version="1.1" xmlns="http://www.w3.org/2000/svg" xmlns:xlink="http://www.w3.org/1999/xlink">
    <!-- Generator: Sketch 55 (78076) - https://sketchapp.com -->
    <title>ic_drugs</title>
    <desc>Created with Sketch.</desc>
    <g id="Screen" stroke="none" stroke-width="1" fill="none" fill-rule="evenodd">
        <g id="44_List-Drugs" transform="translate(-43.000000, -139.000000)" fill="#4B66EA">
            <g id="drugs" transform="translate(24.000000, 120.000000)">
                <path d="M28.0001334,37 C23.0374985,37 19,32.9627683 19,28.0001334 C19,23.0374985 23.0374985,19 28.0001334,19 C28.1877891,19 28.3771792,19.0060039 28.5635007,19.0174781 C29.1425448,19.053168 29.719254,19.1451613 30.2776847,19.2907896 C31.0826094,19.5008598 31.8547127,19.8224028 32.5723805,20.2466793 C33.8959099,21.0286557 35.0049662,22.1437159 35.7794044,23.4716482 C36.5778582,24.8408073 37,26.406628 37,28.0001334 C37.0002668,32.9627683 32.9627683,37 28.0001334,37 L28.0001334,37 Z M28.0001334,20.4512126 C23.8378202,20.4512126 20.4512126,23.8378202 20.4512126,28.0001334 C20.4512126,32.1625133 23.8378202,35.5487874 28.0001334,35.5487874 C32.1625133,35.5487874 35.5487874,32.1625133 35.5487874,28.0001334 C35.5487874,25.3421341 34.1254596,22.8499096 31.834166,21.4958936 C31.2327072,21.1404619 30.5856855,20.8712865 29.9112458,20.695105 C29.4432741,20.5731588 28.9596255,20.4960419 28.4739089,20.4658222 C28.3172735,20.4561492 28.1577695,20.4512126 28.0001334,20.4512126 L28.0001334,20.4512126 Z M31.8169548,29.8823604 L24.1833121,29.8823604 C23.1454355,29.8823604 22.3010852,29.0380767 22.3010852,28.0001334 C22.3010852,26.9622569 23.1454355,26.1179065 24.1833121,26.1179065 L31.8169548,26.1179065 C32.854898,26.1179065 33.6991817,26.9622569 33.6991817,28.0001334 C33.6991817,29.0378098 32.854898,29.8823604 31.8169548,29.8823604 L31.8169548,29.8823604 Z M24.1833121,27.5691191 C23.9495597,27.5691191 23.7522978,27.766381 23.7522978,28.0001334 C23.7522978,28.233619 23.9495597,28.4308809 24.1833121,28.4308809 L31.8169548,28.4308809 C32.0504403,28.4308809 32.247969,28.233619 32.247969,28.0001334 C32.247969,27.766381 32.0504403,27.5691191 31.8169548,27.5691191 L24.1833121,27.5691191 Z" id="ic_drugs"></path>
            </g>
        </g>
    </g>
</svg>