<?xml version="1.0" encoding="UTF-8"?>
<svg width="215px" height="215px" viewBox="0 0 215 215" version="1.1" xmlns="http://www.w3.org/2000/svg" xmlns:xlink="http://www.w3.org/1999/xlink">
    <!-- Generator: Sketch 55 (78076) - https://sketchapp.com -->
    <title>ic_drugs</title>
    <desc>Created with Sketch.</desc>
    <g id="Screen" stroke="none" stroke-width="1" fill="none" fill-rule="evenodd">
        <g id="02_Walkthroughs-_03" transform="translate(-80.000000, -136.000000)">
            <g id="ic_drugs" transform="translate(80.000000, 136.000000)">
                <path d="M128.289088,43.0544599 L171.046412,85.2110278 C174.611196,88.724162 174.611196,94.471364 171.046412,97.9839771 C167.483742,101.498674 161.654639,101.498674 158.091441,97.9839771 L115.332003,55.8294932 C111.769332,52.314796 111.769332,46.567594 115.332003,43.0544599 C118.895201,39.5418467 124.726418,39.5418467 128.289088,43.0544599 L128.289088,43.0544599 Z" id="Fill-1" fill="#82A0F6"></path>
                <path d="M164.725294,107.5 C160.707424,107.5 156.934981,105.958445 154.10485,103.163127 L111.027874,60.5899047 C108.197743,57.7951129 106.64,54.0669702 106.64,50.0941779 C106.64,46.1213857 108.197743,42.3937691 111.027874,39.5963467 C113.858005,36.8015549 117.630448,35.26 121.648318,35.26 C125.668317,35.26 129.44076,36.8015549 132.270891,39.5963467 L175.347867,82.1695692 C181.204044,87.9569768 181.204044,97.3741412 175.347867,103.163127 C172.519866,105.958445 168.745293,107.5 164.725294,107.5 L164.725294,107.5 Z M121.245868,46.44 C120.321453,46.44 119.457141,46.7870331 118.817284,47.41786 C118.175299,48.0486868 117.82,48.8958867 117.82,49.8042355 C117.82,50.7131069 118.175299,51.5603068 118.817284,52.1932242 L161.85419,94.48214 C162.496175,95.1108763 163.358359,95.46 164.282775,95.46 C165.20719,95.46 166.071502,95.1108763 166.713487,94.48214 C168.028838,93.1875601 168.028838,91.0008331 166.713487,89.7067758 L123.674985,47.41786 C123.032469,46.7870331 122.170284,46.44 121.245868,46.44 L121.245868,46.44 Z" id="Fill-2" fill="#4B66EA"></path>
                <path d="M160.095015,139.32 C157.53053,139.32 155.18791,137.627649 154.502096,135.066835 C153.689655,132.020918 155.533211,128.901057 158.62549,128.097623 C168.863212,125.438739 178.257634,120.108385 185.791474,112.68239 C197.16406,101.474697 203.425766,86.5713133 203.425766,70.7192269 C203.425766,54.8676649 197.16406,39.9642809 185.791474,28.7565878 C162.316859,5.61800627 124.12359,5.61800627 100.648443,28.7565878 C92.6182001,36.6718801 87.0439035,46.5952327 84.5315595,57.4547011 C83.8186114,60.5257905 80.7178191,62.447319 77.6000013,61.7466743 C74.4848437,61.0460296 72.5354094,57.9896245 73.2462293,54.9164374 C76.2448678,41.961328 82.8896506,30.1269355 92.4644374,20.6913072 C120.450843,-6.8971024 165.989074,-6.8971024 193.976011,20.6913072 C207.534795,34.0539023 215,51.821224 215,70.7192269 C215,89.6193275 207.534795,107.386649 193.97814,120.749769 C184.995525,129.603799 173.791067,135.958374 161.574648,139.131204 C161.080373,139.258641 160.583437,139.32 160.095015,139.32 L160.095015,139.32 Z" id="Fill-4" fill="#4B66EA"></path>
                <path d="M105.230376,88.1092205 C100.054588,85.0908274 94.4231743,82.7513896 88.463964,81.218113 C84.4259161,80.1769087 80.2345783,79.5084231 75.9334447,79.2445885 C74.5697482,79.1608315 73.1959739,79.12 71.81,79.12 C35.4744644,79.12 6.02,108.189439 6.02,144.05 C6.02,179.908467 35.4744644,208.98 71.81,208.98 C108.145536,208.98 137.6,179.908467 137.6,144.05 C137.6,120.231602 124.604837,99.4069933 105.230376,88.1092205 L105.230376,88.1092205 Z M111.8,144.051042 C111.8,149.017073 107.66045,153.08 102.600765,153.08 L41.8792349,153.08 C36.8195496,153.08 32.68,149.017073 32.68,144.051042 C32.68,139.08501 36.8195496,135.02 41.8792349,135.02 L102.600765,135.02 C107.66045,135.02 111.8,139.08501 111.8,144.051042 L111.8,144.051042 Z" id="Fill-5" fill="#82A0F6"></path>
                <path d="M71.8110645,215 C32.2147521,215 0,183.173157 0,144.051052 C0,104.928947 32.2147521,73.1 71.8110645,73.1 C73.3083482,73.1 74.8194709,73.1473309 76.3061091,73.2377854 C80.9262378,73.519141 85.5277369,74.2443548 89.9833932,75.392391 C96.4057979,77.0484449 102.566324,79.583275 108.292516,82.9279886 C118.85281,89.0925692 127.701847,97.8829604 133.881003,108.351493 C140.251777,119.145031 143.62,131.488918 143.62,144.051052 C143.622129,183.173157 111.407377,215 71.8110645,215 L71.8110645,215 Z M71.381064,84.28 C38.1874869,84.28 11.18,110.901666 11.18,143.621049 C11.18,176.340956 38.1874869,202.96 71.381064,202.96 C104.575173,202.96 131.58,176.340956 131.58,143.621049 C131.58,122.726875 120.229259,103.135833 101.956672,92.4920964 C97.160164,89.6980958 92.0003008,87.5821437 86.6217858,86.1972046 C82.8898093,85.2386023 79.0328129,84.6323965 75.1593245,84.3948435 C73.9101896,84.3188056 72.6381788,84.28 71.381064,84.28 L71.381064,84.28 Z M102.766275,159.1 L41.7137247,159.1 C33.412968,159.1 26.66,152.349236 26.66,144.05 C26.66,135.751297 33.412968,129 41.7137247,129 L102.766275,129 C111.067565,129 117.82,135.751297 117.82,144.05 C117.82,152.347103 111.067565,159.1 102.766275,159.1 L102.766275,159.1 Z M41.2868272,141.04 C39.4175063,141.04 37.84,142.614869 37.84,144.481065 C37.84,146.345131 39.4175063,147.92 41.2868272,147.92 L102.333173,147.92 C104.20036,147.92 105.78,146.345131 105.78,144.481065 C105.78,142.614869 104.20036,141.04 102.333173,141.04 L41.2868272,141.04 Z" id="Fill-6" fill="#4B66EA"></path>
            </g>
        </g>
    </g>
</svg>