<?xml version="1.0" encoding="UTF-8"?>
<svg width="24px" height="24px" viewBox="0 0 24 24" version="1.1" xmlns="http://www.w3.org/2000/svg" xmlns:xlink="http://www.w3.org/1999/xlink">
    <!-- Generator: Sketch 55 (78076) - https://sketchapp.com -->
    <title>ic_edit_white</title>
    <desc>Created with Sketch.</desc>
    <g id="Symbols" stroke="none" stroke-width="1" fill="none" fill-rule="evenodd">
        <g id="header-color" transform="translate(-335.000000, -62.000000)" fill="#FFFFFF">
            <g id="ic_edit_white">
                <g transform="translate(335.000000, 62.000000)">
                    <path d="M19.6912453,4.30451382 C20.0366578,4.65492427 20.0366578,5.21753081 19.6912453,5.56312844 L6.09687461,19.1574991 C5.92404494,19.3303287 5.69697848,19.4190574 5.46991201,19.4190574 C5.24290725,19.4190574 5.01559397,19.3303287 4.84301111,19.1574991 C4.49741348,18.8070886 4.49741348,18.244297 4.84301111,17.8986377 L18.4374435,4.30451382 C18.7827943,3.95885449 19.3455859,3.95885449 19.6912453,4.30451382 Z M22.5688808,1.58958867 C23.4920171,2.50766529 24.0005719,3.73666254 24.0005719,5.03988832 C24.0005719,6.34311409 23.4920171,7.56729852 22.5688808,8.49043477 L22.0901901,8.96906374 C21.739718,9.31472307 21.1769263,9.31472307 20.831267,8.96906374 C20.4859162,8.61865328 20.4859162,8.05586164 20.831267,7.71044912 L21.3102045,7.23151164 C21.8976156,6.64416227 22.2184086,5.86417661 22.2184086,5.0350755 C22.2184086,4.20566586 21.8976156,3.42574191 21.3102045,2.83833084 L21.1622411,2.69036741 C20.5745832,2.10270953 19.794906,1.78191644 18.9654964,1.78191644 C18.1361485,1.78191644 17.3564096,2.10270953 16.7688134,2.69036741 L2.44381942,17.0102401 L1.89114704,22.1093631 L6.99008498,21.5516311 L18.0968438,10.4400595 C18.4473159,10.0947087 19.0098607,10.0947087 19.3555201,10.4400595 C19.7011177,10.7905317 19.7011177,11.3533233 19.3555201,11.6989827 L8.02194165,23.0324994 C7.87879105,23.1757117 7.6912144,23.2694383 7.48876737,23.2891832 L0.98275777,23.9949404 C0.953078702,24 0.918648515,24 0.888969447,24 C0.657090158,24 0.430085394,23.9062117 0.262068549,23.7382565 C0.0697407838,23.5459288 -0.0242943508,23.2793108 0.00538471724,23.0127545 L0.711326958,16.5067449 C0.735946393,16.3042362 0.824860192,16.1167212 0.968072493,15.9735706 L15.5149499,1.43144428 C16.4332734,0.508308031 17.6622706,0 18.9654964,0 C20.2687222,0 21.4929066,0.508308031 22.4160429,1.43144428 L22.5688808,1.58958867 Z"></path>
                </g>
            </g>
        </g>
    </g>
</svg>