<?xml version="1.0" encoding="UTF-8"?>
<svg width="18px" height="18px" viewBox="0 0 18 18" version="1.1" xmlns="http://www.w3.org/2000/svg" xmlns:xlink="http://www.w3.org/1999/xlink">
    <!-- Generator: Sketch 55 (78076) - https://sketchapp.com -->
    <title>ic_expand</title>
    <desc>Created with Sketch.</desc>
    <g id="Screen" stroke="none" stroke-width="1" fill="none" fill-rule="evenodd">
        <g id="46_DrugsDetails" transform="translate(-317.000000, -382.000000)" fill="#969696">
            <g id="about" transform="translate(24.000000, 363.000000)">
                <path d="M299.318459,19 C299.682041,19 299.979592,19.297551 299.979592,19.6611327 C299.979592,20.024898 299.682041,20.3224949 299.318459,20.3224949 L294.322495,20.3224949 L294.322495,25.3184592 C294.322495,25.6820408 294.024898,25.9795918 293.661133,25.9795918 C293.297551,25.9795918 293,25.6820408 293,25.3184592 L293,19.6611327 C293,19.297551 293.297551,19 293.661133,19 L299.318459,19 Z M310.992653,19.6611327 L310.996418,19.6611327 L310.996418,25.3184592 C310.996418,25.6820408 310.698821,25.9795918 310.335102,25.9795918 C309.97152,25.9795918 309.673923,25.6820408 309.673923,25.3184592 L309.673923,20.3224949 L304.677959,20.3224949 C304.314194,20.3224949 304.016827,20.024898 304.016827,19.6611327 C304.016827,19.297551 304.314194,19 304.677959,19 L310.331474,19 C310.695056,19 310.992653,19.297551 310.992653,19.6611327 Z M310.992653,30.6815408 L310.996418,30.6815408 L310.996418,36.3388673 C310.996418,36.702449 310.698821,37 310.335102,37 L304.677959,37 C304.314194,37 304.016827,36.702449 304.016827,36.3388673 C304.016827,35.975102 304.314194,35.6775051 304.677959,35.6775051 L309.670158,35.6775051 L309.670158,30.6815408 C309.670158,30.3179592 309.967755,30.0204082 310.331474,30.0204082 C310.695056,30.0204082 310.992653,30.3179592 310.992653,30.6815408 Z M299.318459,35.6775051 C299.682041,35.6775051 299.979592,35.975102 299.979592,36.3388673 C299.979592,36.702449 299.682041,37 299.318459,37 L293.661133,37 C293.297551,37 293,36.702449 293,36.3388673 L293,30.6815408 C293,30.3179592 293.297551,30.0204082 293.661133,30.0204082 C294.024898,30.0204082 294.322495,30.3179592 294.322495,30.6815408 L294.322495,35.6775051 L299.318459,35.6775051 Z" id="ic_expand"></path>
            </g>
        </g>
    </g>
</svg>