<?xml version="1.0" encoding="UTF-8"?>
<svg width="18px" height="18px" viewBox="0 0 18 18" version="1.1" xmlns="http://www.w3.org/2000/svg" xmlns:xlink="http://www.w3.org/1999/xlink">
    <!-- Generator: Sketch 55 (78076) - https://sketchapp.com -->
    <title>ic_goals</title>
    <desc>Created with Sketch.</desc>
    <g id="Screen" stroke="none" stroke-width="1" fill="none" fill-rule="evenodd">
        <g id="39_UserProfile" transform="translate(-35.000000, -576.000000)" fill="#4B66EA">
            <g id="calendar" transform="translate(16.000000, 557.000000)">
                <path d="M28.6503777,19.6611327 L28.6503777,21.8139235 C28.6541445,21.8360102 28.6541445,21.8578673 28.6541445,21.8799541 C28.6541445,21.9019949 28.6541445,21.9240816 28.6503777,21.9461224 L28.6503777,24.1024949 C28.6503777,24.4660765 28.3528889,24.7636735 27.9889751,24.7636735 C27.625245,24.7636735 27.3275265,24.4660765 27.3275265,24.1024949 L27.3275265,22.5816327 C25.9456462,22.7506122 24.6815027,23.4375969 23.7810433,24.5284796 C23.6487903,24.6865306 23.4614588,24.7674388 23.2703604,24.7674388 C23.1234075,24.7674388 22.9762709,24.7195459 22.8513679,24.6167347 C22.5721621,24.385352 22.5315996,23.9701122 22.7632605,23.6872551 C23.91348,22.2951939 25.5525163,21.4281173 27.3311096,21.2555561 L27.3311096,19.6611327 C27.3311096,19.297551 27.6288281,19 27.9927419,19 C28.3602389,19 28.6541445,19.297551 28.6503777,19.6611327 Z M32.2116068,31.4715204 C32.4430839,31.1922449 32.8583095,31.1518827 33.1412822,31.3832653 C33.4206717,31.614648 33.4610504,32.0298878 33.2295733,32.3127449 C32.075587,33.7085714 30.4365506,34.5754643 28.6577276,34.7482092 L28.6577276,36.3388673 C28.6577276,36.702449 28.3602389,37 27.996325,37 C27.6325949,37 27.3348765,36.702449 27.3385055,36.3388673 L27.3385055,31.8865765 C27.3385055,31.5228112 27.636178,31.2252143 28.0000919,31.2252143 C28.363822,31.2252143 28.6614945,31.5228112 28.6614945,31.8865765 L28.6614945,33.4183673 C30.0431911,33.2493878 31.3111474,32.5624031 32.2116068,31.4715204 Z M22.579512,28.657551 C22.7447938,30.042449 23.4356421,31.3134694 24.5271539,32.2135612 C24.8063597,32.4449439 24.8469222,32.86 24.6152613,33.1428571 C24.4830084,33.3044898 24.2956768,33.385352 24.1045784,33.385352 C23.9576256,33.385352 23.810489,33.3374592 23.685586,33.2346939 C22.2891895,32.0811786 21.4217589,30.4392296 21.2491272,28.657551 L19.6614026,28.657551 C19.2939057,28.657551 19,28.36 19,27.9964184 C19,27.6326531 19.2976725,27.335102 19.6614026,27.335102 L24.1008116,27.335102 C24.4647254,27.335102 24.7623979,27.6326531 24.7623979,27.9964184 C24.7623979,28.36 24.4647254,28.657551 24.1008116,28.657551 L22.579512,28.657551 Z M34.7435229,27.335102 L36.3385514,27.335102 C36.7022815,27.335102 37,27.6326531 37,27.9964184 C37,28.36 36.7022815,28.657551 36.3385514,28.657551 L34.1849275,28.657551 C34.1628318,28.6611327 34.1371989,28.6611327 34.1151031,28.6611327 C34.0930533,28.6611327 34.0709575,28.6611327 34.0490915,28.657551 L31.8918385,28.657551 C31.5279247,28.657551 31.2302062,28.36 31.2302062,27.9964184 C31.2302062,27.6326531 31.5279247,27.335102 31.8918385,27.335102 L33.4169049,27.335102 C33.2478563,25.9501582 32.557008,24.682949 31.4618671,23.7828571 C31.1788944,23.5514745 31.138332,23.1362347 31.3699929,22.8535612 C31.60147,22.5707041 32.0166956,22.5301582 32.2997142,22.7617245 C33.6998775,23.9114745 34.5708912,25.5534235 34.7435229,27.335102 Z M28.0000919,28.7311122 C27.5961668,28.7311122 27.2686811,28.4037602 27.2686811,28 C27.2686811,27.5962398 27.5961668,27.2688878 28.0000919,27.2688878 C28.4038332,27.2688878 28.7313189,27.5962398 28.7313189,28 C28.7313189,28.4037602 28.4038332,28.7311122 28.0000919,28.7311122 Z" id="ic_goals"></path>
            </g>
        </g>
    </g>
</svg>