<?xml version="1.0" encoding="UTF-8"?>
<svg width="22px" height="21px" viewBox="0 0 22 21" version="1.1" xmlns="http://www.w3.org/2000/svg" xmlns:xlink="http://www.w3.org/1999/xlink">
    <!-- Generator: Sketch 55 (78076) - https://sketchapp.com -->
    <title>like</title>
    <desc>Created with Sketch.</desc>
    <g id="Screen" stroke="none" stroke-width="1" fill="none" fill-rule="evenodd">
        <g id="51_News-Details" transform="translate(-104.000000, -747.000000)" fill="#969696">
            <g id="tabbar" transform="translate(0.000000, 733.000000)">
                <path d="M122.653101,20.817312 L118.408238,20.817312 L118.408238,17.8076516 C118.408238,16.3232297 117.959142,15.2465809 117.070305,14.6006926 C115.673643,13.5871188 113.777828,14.1567565 113.696138,14.1837245 L113.12482,14.3630819 L113.12482,18.6464655 C113.12482,19.6826342 112.553275,20.6020159 111.424131,21.3869496 C111.056726,21.642782 110.965966,22.1451957 111.224584,22.5128811 C111.483032,22.8762493 111.991028,22.9657879 112.362855,22.7102358 C113.931967,21.6201871 114.76196,20.216333 114.76196,18.6464655 L114.76196,15.6188638 C115.170069,15.5829811 115.709754,15.6098931 116.109019,15.8970107 C116.553409,16.2198427 116.780168,16.8613018 116.780168,17.798681 L116.780168,22.4231183 L122.657749,22.4231183 C123.587403,22.4231183 124.344719,23.1543962 124.37193,24.0691805 L123.152026,31.6449688 L123.147604,31.6719369 C123.093126,32.0935024 122.934338,33.3808498 120.94799,33.3808498 L111.800607,33.3808498 C110.902643,33.3808498 110.172311,32.6587668 110.172311,31.7706703 L110.172311,24.2801034 C110.172311,22.912132 109.047588,21.7951713 107.659826,21.7951713 L106.512485,21.7951713 C105.129371,21.7951713 104,22.9075346 104,24.2801034 L104,31.9634276 C104,33.3315672 105.124722,34.4483037 106.512485,34.4483037 C106.961353,34.4483037 107.328759,34.0849915 107.328759,33.6410554 C107.328759,33.196895 106.961353,32.8335267 106.512485,32.8335267 C106.027335,32.8335267 105.632718,32.4434707 105.632718,31.9634276 L105.632718,24.2801034 C105.632718,23.8002285 106.027335,23.4099482 106.512485,23.4099482 L107.659826,23.4099482 C108.145203,23.4099482 108.539593,23.8002285 108.539593,24.2801034 L108.539593,31.9634276 C108.539593,32.0262784 108.548663,32.0935024 108.562382,32.1517557 C108.752859,33.7531888 110.131551,35 111.800607,35 L120.938919,35 C121.864094,35 122.689439,34.7803307 123.315236,34.3631384 C124.122609,33.8293834 124.621535,32.9726282 124.757477,31.8871769 L125.986508,24.2667035 C125.995578,24.2218501 126,24.1725675 126,24.127658 C126,22.3020142 124.499085,20.817312 122.653101,20.817312 L122.653101,20.817312 Z" id="like"></path>
            </g>
        </g>
    </g>
</svg>