<?xml version="1.0" encoding="UTF-8"?>
<svg width="22px" height="26px" viewBox="0 0 22 26" version="1.1" xmlns="http://www.w3.org/2000/svg" xmlns:xlink="http://www.w3.org/1999/xlink">
    <!-- Generator: Sketch 55 (78076) - https://sketchapp.com -->
    <title>ic_location</title>
    <desc>Created with Sketch.</desc>
    <g id="Screen" stroke="none" stroke-width="1" fill="none" fill-rule="evenodd">
        <g id="24_Maps-Doctors" transform="translate(-318.000000, -489.000000)" fill="#FFFFFF">
            <g id="ic_locate" transform="translate(299.000000, 472.000000)">
                <path d="M30.0223646,22.0658532 C26.9366582,22.0658532 24.4197266,24.5773873 24.4197266,27.6684911 C24.4197266,30.7595949 26.9366582,33.2713924 30.0223646,33.2713924 C30.5438127,33.2713924 30.9704101,32.8448608 30.9704101,32.3236759 C30.9704101,31.8022278 30.5438127,31.3756304 30.0223646,31.3756304 C27.9792911,31.3756304 26.3154886,29.7115646 26.3154886,27.6684911 C26.3154886,25.6254177 27.9792911,23.9613519 30.0223646,23.9613519 C32.0657013,23.9613519 33.7295696,25.6254177 33.7295696,27.6684911 C33.7295696,28.5532152 33.4138177,29.4063443 32.8396456,30.0751696 C32.4974329,30.4752405 32.5447595,31.0702127 32.9450937,31.4126886 C33.3451646,31.7549013 33.9404,31.7073114 34.2826127,31.3072405 C35.1514076,30.2962684 35.6252658,29.0008759 35.6252658,27.6684911 C35.6252658,24.5827848 33.1134684,22.0658532 30.0223646,22.0658532 L30.0223646,22.0658532 Z M37.3315241,19.9962532 C35.2619899,17.9951089 32.5342278,16.9524759 29.648557,17.0473924 C24.3932658,17.2316962 20.0543595,21.3127089 19.5488405,26.5364051 C19.4539899,27.542243 19.4961165,28.5478177 19.6856203,29.5379899 C19.6910177,29.579919 19.7121468,29.7012962 19.7594076,29.8908 C19.9227139,30.6017519 20.1543443,31.2967089 20.4598278,31.9600709 C21.5286582,34.4772658 23.8561519,38.3528456 28.8851443,42.5233772 C29.2168253,42.7972 29.6171595,42.934243 30.0223646,42.934243 C30.4278987,42.934243 30.8282329,42.7972 31.1599139,42.5233772 C36.1889063,38.3477114 38.5163342,34.4772658 39.5852304,31.9600709 C39.8906481,31.2967089 40.1277418,30.6017519 40.2855848,29.8908 C40.3329114,29.7012962 40.3539747,29.579919 40.3593722,29.5379899 C40.4804861,28.8903595 40.5437418,28.2215342 40.5437418,27.5633063 C40.5437418,24.6828354 39.4008608,21.9972 37.3315241,19.9962532 L37.3315241,19.9962532 Z M38.4898734,29.2009114 C38.4898734,29.216643 38.4847392,29.2271747 38.4847392,29.2431038 C38.4793418,29.2693013 38.4636759,29.3430886 38.4374127,29.4588051 L38.4374127,29.4693367 C38.3057671,30.0540405 38.1108658,30.6330835 37.8581063,31.1807291 C37.8527089,31.1913266 37.8475747,31.2018582 37.8475747,31.2072557 C36.8679342,33.5190177 34.7197418,37.0891139 30.027762,41.0068861 C25.3358481,37.0942481 23.1873924,33.5190177 22.2080152,31.2072557 C22.2028152,31.1967241 22.1974177,31.1861266 22.1974177,31.1807291 C21.9447241,30.6330835 21.7498228,30.0591747 21.6181772,29.4693367 L21.6181772,29.4588051 C21.5919139,29.3430886 21.5762481,29.2693013 21.5708506,29.2431038 C21.5708506,29.2271747 21.5657165,29.216643 21.5657165,29.2009114 C21.3970127,28.3848405 21.3548861,27.5473772 21.4340709,26.7153772 C21.8446734,22.4291291 25.4045013,19.0853316 29.7118127,18.9376911 C32.0762329,18.8536354 34.3142076,19.7118987 36.0150684,21.3549013 C37.7159291,22.9976405 38.6479797,25.1988203 38.6479797,27.5633063 C38.6479797,28.1110177 38.5953215,28.6637975 38.4898734,29.2009114 L38.4898734,29.2009114 Z" id="ic_location"></path>
            </g>
        </g>
    </g>
</svg>