<?xml version="1.0" encoding="UTF-8"?>
<svg width="21px" height="22px" viewBox="0 0 21 22" version="1.1" xmlns="http://www.w3.org/2000/svg" xmlns:xlink="http://www.w3.org/1999/xlink">
    <!-- Generator: Sketch 55 (78076) - https://sketchapp.com -->
    <title>levels</title>
    <desc>Created with Sketch.</desc>
    <g id="Screen" stroke="none" stroke-width="1" fill="none" fill-rule="evenodd">
        <g id="51_News-Details" transform="translate(-251.000000, -747.000000)" fill="#969696">
            <g id="tabbar" transform="translate(0.000000, 733.000000)">
                <g id="levels" transform="translate(251.000000, 14.000000)">
                    <path d="M17.4702516,0 C15.808214,0 14.407531,1.14840425 14.0366442,2.68295787 L0.823951319,2.68295787 C0.370829598,2.68295787 0,3.05072188 0,3.50002837 C0,3.94956185 0.370829598,4.31704213 0.823951319,4.31704213 L14.0366442,4.31704213 C14.407531,5.85602185 15.808214,7 17.4702516,7 C17.9233733,7 18.2942602,6.63229274 18.2942602,6.18298624 C18.2942602,5.73345277 17.9233733,5.36574551 17.4702516,5.36574551 C16.4310131,5.36574551 15.5884631,4.52609052 15.5884631,3.50002837 C15.5884631,2.46954012 16.4354768,1.63431124 17.4702516,1.63431124 C18.5047975,1.63431124 19.3518112,2.47419321 19.3518112,3.50002837 C19.3518112,3.94956185 19.7226981,4.31704213 20.1758198,4.31704213 C20.6291132,4.31704213 21,3.94956185 21,3.50002837 C21,1.57070015 19.4159625,0 17.4702516,0 L17.4702516,0 Z" id="Fill-1"></path>
                    <path d="M20.1760491,10.6829929 L6.96359098,10.6829929 C6.59270432,9.14402562 5.19179313,8 3.52998513,8 C1.58427515,8 9.41061638e-06,9.57068742 9.41061638e-06,11.5 C-0.00445427699,13.4293126 1.57958255,15 3.52998513,15 C3.98310665,15 4.35393608,14.632239 4.35393608,14.1829361 C4.35393608,13.7334063 3.98310665,13.365929 3.52998513,13.365929 C2.49074709,13.365929 1.64819744,12.5260538 1.64819744,11.5 C1.64819744,10.4695201 2.49521078,9.63429799 3.52998513,9.63429799 C4.56922317,9.63429799 5.41154391,10.4741732 5.41154391,11.5 C5.41154391,11.9495298 5.78237334,12.3172341 6.23549486,12.3172341 L20.1760491,12.3172341 C20.6291706,12.3172341 21,11.9495298 21,11.5 C21,11.0506971 20.6291706,10.6829929 20.1760491,10.6829929 L20.1760491,10.6829929 Z" id="Fill-3"></path>
                    <path d="M17.4702516,15 C15.808214,15 14.407531,16.1486312 14.0366442,17.6829579 L0.823951319,17.6829579 C0.370829598,17.6829579 0,18.0506651 0,18.4999716 C0,18.9495051 0.370829598,19.3172691 0.823951319,19.3172691 L14.0366442,19.3172691 C14.407531,20.8560219 15.808214,22 17.4702516,22 C17.9233733,22 18.2942602,21.6322927 18.2942602,21.1829862 C18.2942602,20.7334528 17.9233733,20.3656888 17.4702516,20.3656888 C16.4310131,20.3656888 15.5884631,19.5260338 15.5884631,18.4999716 C15.5884631,17.4694834 16.4354768,16.6342545 17.4702516,16.6342545 C18.5047975,16.6342545 19.3518112,17.4741365 19.3518112,18.4999716 C19.3518112,18.9495051 19.7226981,19.3172691 20.1758198,19.3172691 C20.6291132,19.3172691 21,18.9495051 21,18.4999716 C21,16.5706434 19.4159625,15 17.4702516,15 L17.4702516,15 Z" id="Fill-4"></path>
                </g>
            </g>
        </g>
    </g>
</svg>