<?xml version="1.0" encoding="UTF-8"?>
<svg width="17px" height="16px" viewBox="0 0 17 16" version="1.1" xmlns="http://www.w3.org/2000/svg" xmlns:xlink="http://www.w3.org/1999/xlink">
    <!-- Generator: Sketch 55 (78076) - https://sketchapp.com -->
    <title>ic_message_blue</title>
    <desc>Created with Sketch.</desc>
    <g id="Screen" stroke="none" stroke-width="1" fill="none" fill-rule="evenodd">
        <g id="24_Maps-Doctors" transform="translate(-118.000000, -737.000000)" fill="#4B66EA">
            <g id="doctor" transform="translate(24.000000, 548.000000)">
                <g id="Group-2" transform="translate(0.000000, 182.000000)">
                    <path d="M107.901949,9.71892164 C109.438815,11.0797555 110.286294,12.8931885 110.286294,14.8296494 C110.286294,16.766235 109.438815,18.5795433 107.905329,19.9405435 C106.388251,21.2813719 104.376487,22.0201209 102.242824,22.0201209 C101.609667,22.0201209 100.982941,21.9534913 100.372952,21.823684 C100.052973,21.7572207 99.8452457,21.4378393 99.9145018,21.1150057 C99.9803362,20.7921721 100.296935,20.5825923 100.616915,20.6524661 C101.144621,20.7657198 101.692115,20.8222428 102.239443,20.8222428 C106.022225,20.8222428 109.099213,18.1337235 109.099213,14.8296494 C109.099213,11.5257001 106.022225,8.83722242 102.239443,8.83722242 C98.4568271,8.83722242 95.3798802,11.5257001 95.3798802,14.8296494 C95.3798802,16.2005484 95.8975691,17.494919 96.8803452,18.566234 C97.0288335,18.7326002 97.0782609,18.9687986 96.9990287,19.1818305 C96.8407291,19.6144658 96.6264064,19.9970665 96.3560193,20.3231442 C96.8277024,20.2864189 97.3718158,20.1600221 97.8863304,19.8507058 C98.1664876,19.6809291 98.5326789,19.7741774 98.7007897,20.0568751 C98.8690654,20.3396976 98.7766415,20.708989 98.4962783,20.8787657 C97.2662003,21.6207589 95.9404006,21.5741348 95.2611968,21.4776424 C94.9314061,21.4311846 94.6674911,21.1915341 94.5950196,20.8622122 C94.5191678,20.5294799 94.6542583,20.193337 94.937837,20.0069652 C95.2808193,19.780832 95.5513713,19.4713077 95.749287,19.0820524 C94.7433018,17.8543115 94.1925926,16.3570158 94.1925926,14.8296494 C94.1925926,12.8931885 95.0401134,11.0797555 96.5769791,9.71892164 C98.0940573,8.37809333 100.1024,7.63934426 102.239443,7.63934426 C104.376487,7.63934426 106.385036,8.37809333 107.901949,9.71892164 Z M103.014493,14.8396314 C103.014493,15.2734312 102.666028,15.6250046 102.236228,15.6250046 C101.806263,15.6250046 101.457798,15.2734312 101.457798,14.8396314 C101.457798,14.4059979 101.806263,14.0544246 102.236228,14.0544246 C102.666028,14.0544246 103.014493,14.4059979 103.014493,14.8396314 Z M105.441711,14.8396314 C105.441711,15.2734312 105.093246,15.6250046 104.663446,15.6250046 C104.233646,15.6250046 103.885181,15.2734312 103.885181,14.8396314 C103.885181,14.4059979 104.233646,14.0544246 104.663446,14.0544246 C105.093246,14.0544246 105.441711,14.4059979 105.441711,14.8396314 Z M100.587275,14.8396314 C100.587275,15.2734312 100.23881,15.6250046 99.8088451,15.6250046 C99.3790454,15.6250046 99.0305804,15.2734312 99.0305804,14.8396314 C99.0305804,14.4059979 99.3790454,14.0544246 99.8088451,14.0544246 C100.23881,14.0544246 100.587275,14.4059979 100.587275,14.8396314 Z" id="ic_message_blue"></path>
                </g>
            </g>
        </g>
    </g>
</svg>