<?xml version="1.0" encoding="UTF-8"?>
<svg width="20px" height="24px" viewBox="0 0 20 24" version="1.1" xmlns="http://www.w3.org/2000/svg" xmlns:xlink="http://www.w3.org/1999/xlink">
    <!-- Generator: Sketch 55 (78076) - https://sketchapp.com -->
    <title>ic_list</title>
    <desc>Created with Sketch.</desc>
    <g id="Screen" stroke="none" stroke-width="1" fill="none" fill-rule="evenodd">
        <g id="22_Notification" transform="translate(-50.000000, -422.000000)" fill="#696969">
            <g id="doctor-" transform="translate(24.000000, 403.000000)">
                <path d="M45.1374033,21.5582929 C45.6118255,21.5582929 46,21.9534913 46,22.4369319 L46,42.121117 C46,42.6045576 45.6118255,43 45.1374033,43 L26.8623571,43 C26.3881146,43 26,42.6045576 26,42.121117 L26,22.4369319 C26,21.9534913 26.3881146,21.5582929 26.8623571,21.5582929 L29.0522697,21.5582929 C29.5265122,21.5582929 29.9146268,21.9534913 29.9146268,22.4369319 C29.9146268,22.9201284 29.5265122,23.3156318 29.0522697,23.3156318 L27.7250136,23.3156318 L27.7250136,41.247238 L44.270075,41.247238 L44.270075,23.3206359 L39.6174915,23.3206359 C39.143249,23.3206359 38.7551344,22.9251324 38.7551344,22.4416918 L38.7551344,20.757583 L33.2399542,20.757583 L33.2399542,23.6426652 L37.7296854,23.6426652 C38.2041674,23.6426652 38.5920425,24.0381686 38.5920425,24.5215482 C38.5920425,25.0047447 38.2041674,25.4002482 37.7296854,25.4002482 L32.3775373,25.4002482 C31.9031151,25.4002482 31.5149406,25.0047447 31.5149406,24.5215482 L31.5149406,19.8786389 C31.5149406,19.3954424 31.9031151,19 32.3775373,19 L39.6224028,19 C40.0966453,19 40.4848198,19.3954424 40.4848198,19.8786389 L40.4848198,21.5582929 L45.1374033,21.5582929 Z M40.8537682,30.7265772 C41.3282503,30.7265772 41.7161253,31.1220806 41.7161253,31.6052771 C41.7161253,32.0886567 41.3282503,32.4841602 40.8537682,32.4841602 L34.0738017,32.4841602 C33.5993196,32.4841602 33.2111451,32.0886567 33.2111451,31.6052771 C33.2111451,31.1220806 33.5993196,30.7265772 34.0738017,30.7265772 L40.8537682,30.7265772 Z M40.8537682,27.4019314 C41.3282503,27.4019314 41.7161253,27.7973739 41.7161253,28.2805704 C41.7161253,28.764011 41.3282503,29.1594534 40.8537682,29.1594534 L34.0738017,29.1594534 C33.5993196,29.1594534 33.2111451,28.764011 33.2111451,28.2805704 C33.2111451,27.7973739 33.5993196,27.4019314 34.0738017,27.4019314 L40.8537682,27.4019314 Z M40.8537682,34.0560439 C41.3282503,34.0560439 41.7161253,34.4514863 41.7161253,34.9349269 C41.7161253,35.4181234 41.3282503,35.8136269 40.8537682,35.8136269 L34.0738017,35.8136269 C33.5993196,35.8136269 33.2111451,35.4181234 33.2111451,34.9349269 C33.2111451,34.4514863 33.5993196,34.0560439 34.0738017,34.0560439 L40.8537682,34.0560439 Z M32.2243278,28.2805704 C32.2243278,28.8362647 31.7823683,29.2863245 31.2372111,29.2863245 C30.6921137,29.2863245 30.2501542,28.8362647 30.2501542,28.2805704 C30.2501542,27.7251812 30.6921137,27.2751214 31.2372111,27.2751214 C31.7823683,27.2751214 32.2243278,27.7251812 32.2243278,28.2805704 Z M32.2243278,31.6052771 C32.2243278,32.1606663 31.7823683,32.6109703 31.2372111,32.6109703 C30.6921137,32.6109703 30.2501542,32.1606663 30.2501542,31.6052771 C30.2501542,31.049827 30.6921137,30.599523 31.2372111,30.599523 C31.7823683,30.599523 32.2243278,31.049827 32.2243278,31.6052771 Z M32.2243278,34.9349269 C32.2243278,35.4903771 31.7823683,35.9406811 31.2372111,35.9406811 C30.6921137,35.9406811 30.2501542,35.4903771 30.2501542,34.9349269 C30.2501542,34.3795378 30.6921137,33.9292338 31.2372111,33.9292338 C31.7823683,33.9292338 32.2243278,34.3795378 32.2243278,34.9349269 Z M40.8537682,37.3806896 C41.3282503,37.3806896 41.7161253,37.7761931 41.7161253,38.2596337 C41.7161253,38.7428302 41.3282503,39.1382726 40.8537682,39.1382726 L34.0738017,39.1382726 C33.5993196,39.1382726 33.2111451,38.7428302 33.2111451,38.2596337 C33.2111451,37.7761931 33.5993196,37.3806896 34.0738017,37.3806896 L40.8537682,37.3806896 Z M32.2243278,38.2596337 C32.2243278,38.8150228 31.7823683,39.2650827 31.2372111,39.2650827 C30.6921137,39.2650827 30.2501542,38.8150228 30.2501542,38.2596337 C30.2501542,37.7041835 30.6921137,37.2538795 31.2372111,37.2538795 C31.7823683,37.2538795 32.2243278,37.7041835 32.2243278,38.2596337 Z" id="ic_list"></path>
            </g>
        </g>
    </g>
</svg>