<?xml version="1.0" encoding="UTF-8"?>
<svg width="21px" height="25px" viewBox="0 0 21 25" version="1.1" xmlns="http://www.w3.org/2000/svg" xmlns:xlink="http://www.w3.org/1999/xlink">
    <!-- Generator: Sketch 55 (78076) - https://sketchapp.com -->
    <title>ic_price</title>
    <desc>Created with Sketch.</desc>
    <g id="Screen" stroke="none" stroke-width="1" fill="none" fill-rule="evenodd">
        <g id="12_Main-Services" transform="translate(-212.000000, -516.000000)" fill="#FFFFFF">
            <g id="Group-2" transform="translate(16.000000, 329.000000)">
                <g id="find-appointment" transform="translate(180.000000, 171.000000)">
                    <path d="M36.0942735,18.6648885 L31.2090608,18.6648885 L31.2090608,16.9152489 C31.2090608,16.4119192 30.8014776,16 30.303523,16 L22.6964141,16 C22.1982709,16 21.7906876,16.4119192 21.7906876,16.9152489 L21.7906876,21.7516127 C21.7906876,22.2549424 22.1982709,22.6669252 22.6964141,22.6669252 L28.3161696,22.6669252 C28.8143758,22.6669252 29.2216446,22.2549424 29.2216446,21.7516127 C29.2216446,21.2480923 28.8143758,20.8361096 28.3161696,20.8361096 L23.601952,20.8361096 L23.601952,17.8308156 L29.3928912,17.8308156 L29.3928912,19.5850956 C29.3928912,20.0886796 29.8004115,20.5006624 30.2983661,20.5006624 L35.1835788,20.5006624 L35.1835788,39.1742062 L17.8112643,39.1742062 L17.8112643,20.4954498 L19.2048832,20.4954498 C19.7028378,20.4954498 20.1103581,20.083467 20.1103581,19.5801374 C20.1103581,19.0765534 19.7028378,18.6648885 19.2048832,18.6648885 L16.9054749,18.6648885 C16.4075203,18.6648885 16,19.0765534 16,19.5801374 L16,40.0844968 C16,40.5880808 16.4075203,41 16.9054749,41 L36.0942735,41 C36.5924168,41 37,40.5880808 37,40.0844968 L37,19.5801374 C37,19.0765534 36.5924168,18.6648885 36.0942735,18.6648885 L36.0942735,18.6648885 Z M31.7850829,28.0192308 L24.5561455,28.0192308 C24.0502431,28.0192308 23.6363636,28.4519748 23.6363636,28.9806691 C23.6363636,29.5095636 24.0502431,29.9423077 24.5561455,29.9423077 L31.7850829,29.9423077 C32.2909853,29.9423077 32.7045455,29.5095636 32.7045455,28.9806691 C32.7045455,28.4519748 32.2909853,28.0192308 31.7850829,28.0192308 L31.7850829,28.0192308 Z M31.7850829,24.6538462 L24.5561455,24.6538462 C24.0502431,24.6538462 23.6363636,25.0865385 23.6363636,25.6152511 C23.6363636,26.1442308 24.0502431,26.5769231 24.5561455,26.5769231 L31.7850829,26.5769231 C32.2909853,26.5769231 32.7045455,26.1442308 32.7045455,25.6152511 C32.7045455,25.0865385 32.2909853,24.6538462 31.7850829,24.6538462 L31.7850829,24.6538462 Z M31.7850829,31.8653846 L24.5561455,31.8653846 C24.0502431,31.8653846 23.6363636,32.2980619 23.6363636,32.8270232 C23.6363636,33.3557175 24.0502431,33.7884615 24.5561455,33.7884615 L31.7850829,33.7884615 C32.2909853,33.7884615 32.7045455,33.3557175 32.7045455,32.8270232 C32.7045455,32.2980619 32.2909853,31.8653846 31.7850829,31.8653846 L31.7850829,31.8653846 Z M22.2045455,25.6152387 C22.2045455,26.1465838 21.7771561,26.5769231 21.249971,26.5769231 C20.7228439,26.5769231 20.2954545,26.1465838 20.2954545,25.6152387 C20.2954545,25.0841855 20.7228439,24.6538462 21.249971,24.6538462 C21.7771561,24.6538462 22.2045455,25.0841855 22.2045455,25.6152387 L22.2045455,25.6152387 Z M22.2045455,28.9807984 C22.2045455,29.5117872 21.7771561,29.9423077 21.249971,29.9423077 C20.7228439,29.9423077 20.2954545,29.5117872 20.2954545,28.9807984 C20.2954545,28.4497512 20.7228439,28.0192308 21.249971,28.0192308 C21.7771561,28.0192308 22.2045455,28.4497512 22.2045455,28.9807984 L22.2045455,28.9807984 Z M22.2045455,32.3461247 C22.2045455,32.8771719 21.7771561,33.3076923 21.249971,33.3076923 C20.7228439,33.3076923 20.2954545,32.8771719 20.2954545,32.3461247 C20.2954545,31.8151358 20.7228439,31.3846154 21.249971,31.3846154 C21.7771561,31.3846154 22.2045455,31.8151358 22.2045455,32.3461247 L22.2045455,32.3461247 Z M31.7850829,35.2307692 C32.2909853,35.2307692 32.7045455,35.6635133 32.7045455,36.1924746 C32.7045455,36.7211689 32.2909853,37.1538462 31.7850829,37.1538462 L24.5561455,37.1538462 C24.0502431,37.1538462 23.6363636,36.7211689 23.6363636,36.1924746 C23.6363636,35.6635133 24.0502431,35.2307692 24.5561455,35.2307692 L31.7850829,35.2307692 Z M22.2045455,35.7116843 C22.2045455,36.2427376 21.7771561,36.6730769 21.249971,36.6730769 C20.7228439,36.6730769 20.2954545,36.2427376 20.2954545,35.7116843 C20.2954545,35.1805727 20.7228439,34.75 21.249971,34.75 C21.7771561,34.75 22.2045455,35.1805727 22.2045455,35.7116843 Z" id="ic_price"></path>
                </g>
            </g>
        </g>
    </g>
</svg>