<?xml version="1.0" encoding="UTF-8"?>
<svg width="22px" height="22px" viewBox="0 0 22 22" version="1.1" xmlns="http://www.w3.org/2000/svg" xmlns:xlink="http://www.w3.org/1999/xlink">
    <!-- Generator: Sketch 55 (78076) - https://sketchapp.com -->
    <title>ic_search</title>
    <desc>Created with Sketch.</desc>
    <g id="Symbols" stroke="none" stroke-width="1" fill="none" fill-rule="evenodd">
        <g id="header-color" transform="translate(-282.000000, -26.000000)" fill="#FFFFFF">
            <g id="ic_search">
                <g transform="translate(282.000000, 26.000000)">
                    <path d="M21.1766173,17.187727 L19.2303394,15.2401414 C18.9126516,14.922467 18.3954021,14.922467 18.0732909,15.2401414 C17.7558865,15.557986 17.7558865,16.075583 18.0732909,16.3979106 L20.0196254,18.3454963 C20.4823768,18.8085586 20.4823768,19.55763 20.0196254,20.0206923 C19.7974367,20.2430303 19.4978959,20.3656057 19.1802648,20.3656057 C18.8628037,20.3656057 18.5679698,20.2430303 18.3411309,20.0206923 L14.6117858,16.2888413 L16.8620278,14.0370873 C17.179659,13.7194697 17.179659,13.2018727 16.8620278,12.879545 C16.5443399,12.5616436 16.0273173,12.5616436 15.7052061,12.879545 L14.8659021,13.7194697 L13.6862831,12.539058 C16.127013,9.51547668 15.9455986,5.06184998 13.1373329,2.25640735 C11.6855072,0.803549319 9.75289638,0 7.69319909,0 C5.63815198,0 3.70537106,0.798895997 2.24906526,2.25640735 C-0.749688419,5.25717602 -0.749688419,10.1465693 2.24906526,13.147338 C3.7009477,14.6001393 5.63350179,15.4036886 7.69319909,15.4036886 C9.47626633,15.4036886 11.1637777,14.7998917 12.5294613,13.6966003 L13.7088535,14.877012 L12.8697197,15.7169366 C12.7153558,15.871234 12.629157,16.0800093 12.629157,16.2934946 C12.629157,16.506753 12.7153558,16.7202383 12.8697197,16.8700526 L17.179659,21.1828879 C17.7421061,21.7231273 18.4633971,22 19.184915,22 C19.906206,22 20.6274403,21.7231273 21.1766173,21.1738083 C22.2744609,20.075 22.2744609,18.2863083 21.1766173,17.187727 L21.1766173,17.187727 Z M11.9940648,11.9850856 C10.8507967,13.129122 9.32649594,13.7602146 7.706696,13.7602146 C6.08717961,13.7602146 4.56287884,13.129122 3.41961074,11.9850856 C1.0559493,9.6198927 1.0559493,5.77011969 3.41961074,3.40487 C4.56287884,2.26083368 6.08717961,1.62974102 7.706696,1.62974102 C9.32649594,1.62974102 10.8507967,2.26083368 11.9940648,3.40487 C14.3577262,5.77011969 14.3577262,9.6198927 11.9940648,11.9850856 L11.9940648,11.9850856 Z"></path>
                </g>
            </g>
        </g>
    </g>
</svg>