<?xml version="1.0" encoding="UTF-8"?>
<svg width="22px" height="21px" viewBox="0 0 22 21" version="1.1" xmlns="http://www.w3.org/2000/svg" xmlns:xlink="http://www.w3.org/1999/xlink">
    <!-- Generator: Sketch 55 (78076) - https://sketchapp.com -->
    <title>circular</title>
    <desc>Created with Sketch.</desc>
    <g id="Screen" stroke="none" stroke-width="1" fill="none" fill-rule="evenodd">
        <g id="51_News-Details" transform="translate(-327.000000, -747.000000)" fill="#969696">
            <g id="tabbar" transform="translate(0.000000, 733.000000)">
                <g id="circular" transform="translate(327.000000, 14.000000)">
                    <path d="M20.3557628,13.6695859 C20.3734502,13.5574345 20.3867847,13.4497002 20.3998987,13.3377104 C20.4041966,13.3160558 20.4041966,13.2946167 20.4041966,13.2729082 L20.417531,13.1178247 C20.4218289,13.0919684 20.4218289,13.0660583 20.4218289,13.0360004 C20.4264023,12.9886512 20.4307002,12.9410865 20.4307002,12.8937373 C20.4307002,12.8678811 20.4352184,12.8377693 20.4352184,12.8119131 C20.4395163,12.7601467 20.4395163,12.7127975 20.4395163,12.6610312 C20.4395163,12.6351211 20.4395163,12.613682 20.4440346,12.5878257 C20.4440346,12.5145664 20.4483325,12.4413609 20.4483325,12.3681016 C20.4483325,9.54535499 19.1480589,6.916584 16.8777321,5.1671943 C16.534012,4.89995935 16.035954,4.96034443 15.7625979,5.29636774 C15.4892418,5.63239104 15.5510101,6.11951172 15.8947302,6.3865312 C17.7815539,7.84326065 18.8613684,10.0238569 18.8613684,12.3723571 C18.8613684,12.4327422 18.8613684,12.4931273 18.8570705,12.557714 L18.8570705,12.6178836 C18.8570705,12.6610312 18.8525522,12.6999771 18.8525522,12.7428554 C18.8525522,12.7645639 18.8482543,12.7904201 18.8482543,12.8119131 C18.8439565,12.8505897 18.8439565,12.8895357 18.8394382,12.9326832 C18.8394382,12.9541224 18.8351403,12.9756154 18.8351403,12.99727 L18.8217508,13.1264973 C18.8217508,13.1395331 18.8174529,13.1523535 18.8174529,13.169591 C18.7115487,13.1609722 18.610218,13.1565551 18.500016,13.1565551 C16.5693318,13.1565551 15,14.6907456 15,16.5784122 C15,17.0049324 15.3571096,17.3539915 15.7933443,17.3539915 C16.2298545,17.3539915 16.5869641,17.0049324 16.5869641,16.5784122 C16.5869641,15.5484184 17.4463745,14.707983 18.500016,14.707983 C19.5536023,14.707983 20.4130127,15.5484184 20.4130127,16.5784122 C20.4130127,17.6081906 19.5536023,18.4485721 18.500016,18.4485721 C18.0637262,18.4485721 17.7066166,18.7976851 17.7066166,19.2242052 C17.7066166,19.6509408 18.0637262,20 18.500016,20 C20.4307002,20 21.9999768,18.4658634 21.9999768,16.5784122 C22.0044951,15.3457701 21.3475809,14.2728442 20.3557628,13.6695859 L20.3557628,13.6695859 Z" id="Fill-1"></path>
                    <path d="M13.8888881,1.71864185 C13.4139987,0.903421908 12.6672119,0.329889647 11.7779745,0.105897356 C10.8886832,-0.122462784 9.96928296,0.0207802858 9.1837,0.513619324 C8.39795517,1.00645836 7.84552723,1.78147169 7.62969292,2.70431993 C7.56494262,2.96857483 7.5346179,3.23742158 7.53040913,3.50621233 C7.13327399,3.68075832 6.74461034,3.88683123 6.37342927,4.11978321 C3.95187614,5.63850694 2.35901888,8.17857952 2.00488872,11.0950711 C1.95751309,11.534096 2.25973509,11.9372262 2.68277035,11.9954082 C2.7173578,12 2.74746669,12 2.78205414,12 C3.16607735,12 3.5028868,11.6999063 3.55031639,11.2964962 C3.84395898,8.87306762 5.16907378,6.7584684 7.18070358,5.49963172 C7.40943399,5.35633265 7.64253506,5.22641712 7.88006072,5.11005313 C7.92306571,5.20412989 7.97491991,5.29815066 8.0267741,5.39222742 C8.66985245,6.49863734 9.80530284,7.11243221 10.9664915,7.11243221 C11.5707736,7.11243221 12.1794803,6.94662192 12.7319083,6.60167379 C13.0988806,6.37331365 13.2154311,5.87610676 12.9951722,5.49526387 C12.7751291,5.11442098 12.2960309,4.99346514 11.9290586,5.22204928 C11.0440299,5.77743816 9.89152865,5.48171234 9.35636746,4.56339994 C8.82099043,3.64514355 9.10594569,2.44880072 9.99075848,1.89346783 C10.4182183,1.62462109 10.9232706,1.54387187 11.4067935,1.66947554 C11.8903163,1.79479923 12.3002396,2.10844444 12.5592948,2.55183718 C12.7793379,2.93268007 13.2586519,3.0536359 13.6256242,2.82527576 C13.9923807,2.59669163 14.1089312,2.09948474 13.8888881,1.71864185 L13.8888881,1.71864185 Z" id="Fill-3"></path>
                    <path d="M14.9396438,19.2791398 C14.7717072,18.881353 14.3075613,18.6911612 13.901033,18.8554103 C11.6736076,19.7548084 9.18985776,19.61207 7.09064971,18.4621095 C7.08634081,18.4621095 7.08634081,18.4576776 7.08181094,18.4576776 C7.02894404,18.4274653 6.97585617,18.4015226 6.92729818,18.3713103 C6.90962063,18.3626628 6.89194309,18.3495834 6.87426555,18.3408818 C6.83885523,18.319371 6.8034449,18.2976441 6.76378092,18.2760793 C6.74151826,18.2632161 6.72406169,18.2501367 6.70632891,18.2372194 C6.67097383,18.2154925 6.6398724,18.1939817 6.60473829,18.1722007 C6.5870055,18.1593375 6.56479809,18.1464743 6.54712055,18.1333949 C6.51171022,18.1118301 6.47652087,18.0858875 6.44116579,18.0598908 C6.4277419,18.0512433 6.41890313,18.0425957 6.40575546,18.0339482 C6.46315223,17.9473647 6.520549,17.8610515 6.57363686,17.7702523 C7.51944057,16.1184102 6.91392954,14.0215442 5.22583481,13.1004191 C4.84129304,12.8887166 4.35963528,13.0227534 4.14297491,13.3989754 C3.92653551,13.7749812 4.0635917,14.2464342 4.4479125,14.4581908 C5.37167453,14.9640178 5.69859856,16.1097627 5.18589461,17.0091608 C4.83698414,17.623082 4.18291511,17.9691457 3.51116853,17.9691457 C3.1928623,17.9691457 2.87455607,17.8912098 2.57851249,17.7311762 C1.65491619,17.2253493 1.32777119,16.0796044 1.84047513,15.1802063 C2.0571355,14.8042005 1.92013456,14.3327475 1.53559279,14.1209909 C1.15105102,13.9090181 0.669393254,14.043109 0.452732886,14.419331 C-0.501688626,16.0796044 0.103601442,18.1766326 1.79197238,19.1019733 C2.33097167,19.4003134 2.91880516,19.53862 3.49774465,19.53862 C4.08988704,19.53862 4.67341164,19.3916659 5.19473339,19.1148906 C5.22583481,19.1364013 5.25235112,19.1581823 5.28323158,19.1796931 C5.28776145,19.1841249 5.29207035,19.1841249 5.29637925,19.1883406 C5.35399699,19.2274167 5.41139375,19.2704922 5.46879052,19.3095142 C5.48646806,19.3224315 5.50873072,19.3355109 5.52618729,19.3483741 C5.57043638,19.3785865 5.61037658,19.4045291 5.65434946,19.4349576 C5.67661212,19.4478208 5.69859856,19.4651159 5.72517011,19.4779791 C5.7648341,19.5039758 5.80908319,19.5299184 5.84880242,19.555915 C5.87100983,19.5687783 5.89758139,19.5860733 5.91956783,19.5992068 L6.05231512,19.6768725 C6.07430156,19.6899519 6.0919791,19.7028692 6.11402078,19.7115167 C6.18025632,19.7505387 6.24671283,19.7849667 6.31294837,19.8240428 C7.74040984,20.6066451 9.31807518,21 10.9002151,21 C12.120076,21 13.3397711,20.7664624 14.5065441,20.2952796 C14.9130723,20.1310304 15.1075252,19.6768725 14.9396438,19.2791398 L14.9396438,19.2791398 Z" id="Fill-4"></path>
                </g>
            </g>
        </g>
    </g>
</svg>