<?xml version="1.0" encoding="UTF-8"?>
<svg width="19px" height="24px" viewBox="0 0 19 24" version="1.1" xmlns="http://www.w3.org/2000/svg" xmlns:xlink="http://www.w3.org/1999/xlink">
    <!-- Generator: Sketch 55 (78076) - https://sketchapp.com -->
    <title>shopping-bag</title>
    <desc>Created with Sketch.</desc>
    <g id="Screen" stroke="none" stroke-width="1" fill="none" fill-rule="evenodd">
        <g id="47_Drugs-Shop" transform="translate(-341.000000, -59.000000)" fill="#FFFFFF">
            <g id="shopping-bag" transform="translate(341.000000, 59.000000)">
                <path d="M17.2459492,5.74781726 C16.7633909,5.74781726 16.3686701,6.14259898 16.3686701,6.62491371 L16.3686701,20.6498071 C16.3686701,21.4976041 15.6816853,22.1847716 14.8337056,22.1847716 L3.2893401,22.1847716 C2.44129949,22.1847716 1.75437563,21.4976041 1.75437563,20.6498071 L1.75437563,7.50219289 L4.24446701,7.50219289 L4.24446701,8.96412183 L4.10308629,8.96412183 C3.62077157,8.96412183 3.22605076,9.35884264 3.22605076,9.84115736 C3.22605076,10.3237157 3.62077157,10.7184975 4.10308629,10.7184975 L6.14016244,10.7184975 C6.62247716,10.7184975 7.01719797,10.3237157 7.01719797,9.84115736 C7.01719797,9.35884264 6.62247716,8.96412183 6.14016244,8.96412183 L5.99878173,8.96412183 L5.99878173,3.98869036 C5.99878173,2.76542132 6.99295431,1.76655838 8.22097462,1.76655838 L9.90207107,1.76655838 C11.1253401,1.76655838 12.124203,2.76067005 12.124203,3.98869036 L12.124203,5.74781726 L9.27837563,5.74781726 C8.79581726,5.74781726 8.4013401,6.14259898 8.4013401,6.62491371 C8.4013401,7.10741117 8.79581726,7.50219289 9.27837563,7.50219289 L12.124203,7.50219289 L12.124203,8.96412183 L11.9828832,8.96412183 C11.5005685,8.96412183 11.1057868,9.35884264 11.1057868,9.84115736 C11.1057868,10.3237157 11.5005685,10.7184975 11.9828832,10.7184975 L14.0198985,10.7184975 C14.5022132,10.7184975 14.8969949,10.3237157 14.8969949,9.84115736 C14.8969949,9.35884264 14.5022132,8.96412183 14.0198985,8.96412183 L13.8785787,8.96412183 L13.8785787,3.98869036 C13.8738274,1.79579695 12.0901523,0.0121827411 9.89725888,0.0121827411 L8.2159797,0.0121827411 C6.02308629,0.0121827411 4.23971574,1.79579695 4.23971574,3.98869036 L4.23971574,5.74781726 L0.877035533,5.74781726 C0.394720812,5.74781726 0,6.14259898 0,6.62491371 L0,20.6498071 C0,22.4624772 1.4764264,23.9391472 3.2893401,23.9391472 L14.8337056,23.9391472 C16.6465584,23.9391472 18.1230457,22.4624772 18.1230457,20.6498071 L18.1230457,6.62491371 C18.1230457,6.14259898 17.728264,5.74781726 17.2459492,5.74781726 L17.2459492,5.74781726 Z" id="Fill-1"></path>
            </g>
        </g>
    </g>
</svg>