<?xml version="1.0" encoding="UTF-8"?>
<svg width="18px" height="24px" viewBox="0 0 18 24" version="1.1" xmlns="http://www.w3.org/2000/svg" xmlns:xlink="http://www.w3.org/1999/xlink">
    <!-- Generator: Sketch 55 (78076) - https://sketchapp.com -->
    <title>ic_Doctors</title>
    <desc>Created with Sketch.</desc>
    <g id="Symbols" stroke="none" stroke-width="1" fill="none" fill-rule="evenodd">
        <g id="tabbar" transform="translate(-103.000000, -32.000000)" fill="#696969">
            <g id="ic_Doctors">
                <g transform="translate(103.500000, 32.500000)">
                    <g>
                        <path d="M4.97283718,2.78936273 L4.97283718,5.31479339 C5.92645911,4.92776166 7.25286936,4.70232683 8.68670579,4.70232683 L8.69677342,4.70232683 C9.8785759,4.70255564 11.0316055,4.86049158 11.9370058,5.14673261 L11.9541665,5.15210964 C11.9919774,5.16417935 12.0315042,5.17710711 12.0701731,5.19032087 L12.0898507,5.19701356 C12.1298352,5.21085655 12.165358,5.22315507 12.1999654,5.23591122 L12.2348589,5.24883897 C12.2350877,5.24883897 12.241094,5.25129867 12.2415516,5.25129867 C12.269924,5.26205273 12.2985252,5.27252078 12.3262112,5.28327484 C12.3398826,5.28865187 12.3530392,5.2939717 12.3662529,5.29934873 L12.395083,5.31096082 C12.3968562,5.31164725 12.3986295,5.31233368 12.4004028,5.31296291 L12.4004028,2.7817548 C12.2543078,2.46405244 11.5354447,1.33968122 8.69122479,1.33899479 L8.68178638,1.33899479 C5.87263161,1.33899479 5.11647252,2.50157724 4.97283718,2.78936273 L4.97283718,2.78936273 Z M11.4626773,11.9838948 C11.5423613,12.8450194 11.727348,13.5486255 12.01443,14.0823654 C12.0862444,14.0561075 12.1626086,14.0423989 12.2401788,14.0423989 C15.0706128,14.0423989 17.3734688,16.3450261 17.3734688,19.1754029 L17.3734688,22.7948303 C17.3734688,23.1583519 17.0787046,23.453116 16.7151831,23.453116 L0.658056905,23.453116 C0.294706986,23.453116 0,23.1583519 0,22.7948303 L0,19.1754029 C0,16.3450261 2.30262714,14.0423989 5.13300402,14.0423989 C5.20081586,14.0423989 5.26771772,14.0528754 5.33148623,14.0730538 C5.61780996,13.537004 5.80174711,12.8304357 5.88015746,11.9662452 C5.21775829,11.4214266 4.68807066,10.736646 4.32278862,10.0728354 C4.3201001,10.067916 4.31746879,10.062825 4.31478028,10.0579056 L4.30248175,10.0355394 C4.17085893,9.79174259 4.05244987,9.4642014 3.95188798,9.06464234 C3.9009206,8.86288932 3.85492984,8.64729331 3.81557456,8.42426099 C3.69388982,7.73263202 3.60199267,6.72740147 3.65672337,5.68358565 L3.65672337,2.66248771 C3.65672337,2.59790615 3.66633338,2.53378221 3.68486697,2.47183197 C3.71524147,2.3719565 4.47431789,0.0228809772 8.68670579,0.0228809772 L8.69322687,0.0228809772 C12.4187648,0.0241966334 13.4193499,1.78608908 13.6383209,2.32928348 C13.6385497,2.33019872 13.6390073,2.33111396 13.6394077,2.33197199 C13.6720703,2.41377149 13.6881442,2.46920066 13.6950657,2.49534217 C13.7093663,2.5498561 13.7167454,2.60591449 13.7167454,2.66248771 L13.7167454,5.6092897 C13.7592659,6.3332506 13.7260051,6.97635512 13.6916907,7.38077402 C13.6608586,7.74275108 13.3431563,8.01154536 12.9804928,7.98094205 C12.6182869,7.95010994 12.3494926,7.63172114 12.3803247,7.26951527 C12.393898,7.10914648 12.4040776,6.95024506 12.4109395,6.79326363 C12.346547,6.74946905 12.2729216,6.70595498 12.190813,6.66328378 L12.1787433,6.65744913 C12.155748,6.64560822 12.1349835,6.63514018 12.1135325,6.62461493 L11.8485136,6.50998123 C11.8275203,6.50174408 11.8056118,6.49367853 11.7839321,6.48561299 L11.7506403,6.47314286 C11.7227255,6.46307523 11.6945247,6.4530076 11.6661522,6.44339759 L11.6491631,6.43739133 C11.6163289,6.42640846 11.5846388,6.41594041 11.5524338,6.40587278 L11.5372179,6.40072456 C10.7596651,6.15492567 9.74718189,6.01884105 8.69008074,6.01838344 L8.68024192,6.01838344 C6.88107174,6.01838344 5.54261545,6.39812117 4.9630593,6.79278485 C4.98325182,7.27797471 5.03433619,7.7555854 5.11178192,8.19568002 C5.14553136,8.3871938 5.18465783,8.57127126 5.22801728,8.74287859 C5.32497542,9.12859467 5.41615612,9.32788798 5.46168926,9.41254759 C5.46843915,9.4243885 5.47421659,9.43491375 5.47959362,9.445439 C6.06168376,10.499025 7.24620517,11.7253448 8.67843761,11.7299201 C9.26118863,11.7280782 9.83961321,11.5258981 10.3978597,11.1290785 C10.4267692,11.1084918 10.4569973,11.0904794 10.4882214,11.0750675 C10.5325026,11.0420265 10.576652,11.0077463 10.6206632,10.9722294 C11.1051107,10.5809647 11.4541028,10.1316395 11.6612328,9.82371875 C11.8641299,9.52203307 12.2730702,9.44229286 12.5746986,9.64518993 C12.8761555,9.848087 12.9561245,10.2569701 12.7529987,10.5586557 C12.3872989,11.102083 11.9413424,11.5946006 11.4626773,11.9838948 Z M10.2286736,12.7300569 C9.72595297,12.9386287 9.20643944,13.0460468 8.68670579,13.0460468 C8.68398706,13.0460468 8.68126914,13.046044 8.67855205,13.0460384 C8.67583809,13.046044 8.67312073,13.0460468 8.6704031,13.0460468 C8.13950722,13.0460468 7.61867898,12.9387922 7.11300938,12.7260563 C6.9799442,13.5761673 6.74181286,14.2836349 6.39269965,14.870202 L8.3754673,16.4674393 C8.48809891,16.5581624 8.60696559,16.5771536 8.68670579,16.5771536 C8.7665032,16.5771536 8.88514107,16.5579336 8.99777268,16.4674393 L10.9587169,14.8879098 C10.6046311,14.2995207 10.3630948,13.5871295 10.2286735,12.7300569 Z M1.31611381,22.1367734 L16.0571262,22.1367734 L16.0571262,19.1754029 C16.0571262,17.1460891 14.4652966,15.4813836 12.4642979,15.3652054 L9.82337554,17.4923927 C9.50252704,17.7511765 9.09873499,17.8934962 8.68670579,17.8934962 C8.2746766,17.8934962 7.87094175,17.7509477 7.54980724,17.4923927 L4.90911366,15.3652054 C2.9081722,15.4813836 1.31611381,17.1460891 1.31611381,19.1754029 L1.31611381,22.1367734 Z"></path>
                    </g>
                </g>
            </g>
        </g>
    </g>
</svg>