<?xml version="1.0" encoding="UTF-8"?>
<svg width="24px" height="16px" viewBox="0 0 24 16" version="1.1" xmlns="http://www.w3.org/2000/svg" xmlns:xlink="http://www.w3.org/1999/xlink">
    <!-- Generator: Sketch 55 (78076) - https://sketchapp.com -->
    <title>ic_back_white</title>
    <desc>Created with Sketch.</desc>
    <g id="Symbols" stroke="none" stroke-width="1" fill="none" fill-rule="evenodd">
        <g id="header-color" transform="translate(-16.000000, -66.000000)" fill="#FFFFFF">
            <g id="ic_back_white">
                <g transform="translate(16.000000, 62.000000)">
                    <g id="ic_back_grey">
                        <path d="M15.9185933,10.8422809 C16.5300991,10.8422809 17.0306257,11.3624507 17.0306257,11.9983745 C17.0306257,12.6339771 16.5300991,13.154147 15.9185933,13.154147 L3.79652192,13.154147 L8.47348322,18.0219898 C8.9060475,18.4779412 8.9060475,19.2101124 8.47348322,19.6594011 C8.25747138,19.8842461 7.97295669,20 7.68882814,20 C7.40462237,20 7.12041659,19.8842461 6.90409584,19.6594011 L0.32419152,12.8202108 C-0.10806384,12.3643397 -0.10806384,11.6320882 0.32419152,11.1827995 L6.90409584,4.33702673 C7.34276127,3.88765776 8.04717455,3.88765776 8.47981606,4.33702673 C8.91207142,4.79289783 8.91207142,5.52506905 8.47981606,5.97475912 L3.79652192,10.8422809 L15.9185933,10.8422809 Z M22.8876588,10.8422809 C23.4994735,10.8422809 24,11.3624507 24,11.9983745 C24,12.6339771 23.5054974,13.154147 22.8876588,13.154147 L20.3420863,13.154147 C19.7305805,13.154147 19.2301312,12.6339771 19.2301312,11.9983745 C19.2301312,11.3624507 19.7305805,10.8422809 20.3420863,10.8422809 L22.8876588,10.8422809 Z"></path>
                    </g>
                </g>
            </g>
        </g>
    </g>
</svg>