<?xml version="1.0" encoding="UTF-8"?>
<svg width="13px" height="18px" viewBox="0 0 13 18" version="1.1" xmlns="http://www.w3.org/2000/svg" xmlns:xlink="http://www.w3.org/1999/xlink">
    <!-- Generator: Sketch 55 (78076) - https://sketchapp.com -->
    <title>ic_info</title>
    <desc>Created with Sketch.</desc>
    <g id="Screen" stroke="none" stroke-width="1" fill="none" fill-rule="evenodd">
        <g id="25_Doctor-Details" transform="translate(-46.000000, -503.000000)" fill="#4B66EA">
            <g id="calendar" transform="translate(24.000000, 484.000000)">
                <path d="M32.6377133,28.4279172 C32.3905809,28.1586996 31.9700408,28.1401185 31.7007772,28.3874354 C31.4315596,28.6345217 31.413163,29.0548773 31.6602954,29.3243254 C32.4754174,30.2131261 32.9255119,31.3675941 32.9255119,32.5737478 L32.9255119,35.4249919 C32.9255119,35.5579178 32.8147634,35.668528 32.6820219,35.668528 L23.567631,35.668528 C23.4348895,35.668528 23.324141,35.5579178 23.324141,35.4249919 L23.324141,32.5737478 C23.324141,29.9255119 25.4783426,27.775045 28.1230283,27.775045 C30.5427128,27.775045 32.5123489,25.8054549 32.5123489,23.3857243 C32.5123489,20.9660398 30.5463092,19 28.1266246,19 C25.706894,19 23.737304,20.9696361 23.737304,23.3893206 C23.737304,24.1122752 23.9181348,24.8315873 24.2574347,25.4659245 C24.4307041,25.7906547 24.8328475,25.908642 25.1573932,25.7351882 C25.4819851,25.5619189 25.5999262,25.1599598 25.4266569,24.8352297 C25.190544,24.3926967 25.0651796,23.8946972 25.0651796,23.3893206 C25.0651796,21.6999677 26.4372256,20.3279218 28.1266246,20.3279218 C29.8160236,20.3279218 31.1882079,21.6999677 31.1882079,23.3893206 C31.1882079,25.0787197 29.8160236,26.4509501 28.1266246,26.4509501 C24.7480571,26.4509501 22,29.1987766 22,32.5775286 L22,35.4287727 C22,36.2956265 22.7045579,37 23.5712273,37 L32.6858027,37 C33.5524721,37 34.25703,36.2956265 34.25703,35.4287727 L34.25703,32.5775286 C34.25703,31.0356713 33.6815711,29.5640347 32.6377133,28.4279172 L32.6377133,28.4279172 Z" id="ic_info"></path>
            </g>
        </g>
    </g>
</svg>