<?xml version="1.0" encoding="UTF-8"?>
<svg width="17px" height="23px" viewBox="0 0 17 23" version="1.1" xmlns="http://www.w3.org/2000/svg" xmlns:xlink="http://www.w3.org/1999/xlink">
    <!-- Generator: Sketch 55 (78076) - https://sketchapp.com -->
    <title>desinfectant</title>
    <desc>Created with Sketch.</desc>
    <g id="Screen" stroke="none" stroke-width="1" fill="none" fill-rule="evenodd">
        <g id="35_Dashboard-test-indicators" transform="translate(-31.000000, -131.000000)" fill="#82A0F6">
            <g id="indicators" transform="translate(16.000000, 120.000000)">
                <g id="desinfectant" transform="translate(15.372549, 11.529412)">
                    <path d="M7.94480887,17.4939584 C6.82253798,17.4939584 5.90972587,16.5675076 5.90972587,15.4289478 L5.90972587,14.9091868 L5.39744471,14.9091868 C4.27543877,14.9091868 3.36241471,13.982951 3.36241471,12.8443912 C3.36241471,11.7056163 4.27543877,10.7794343 5.39744471,10.7794343 L5.90972587,10.7794343 L5.90972587,10.2596196 C5.90972587,9.12105978 6.82274993,8.19466266 7.94480887,8.19466266 C9.06681481,8.19466266 9.97983888,9.12105978 9.97983888,10.2596196 L9.97983888,10.7794343 L10.4919081,10.7794343 C11.613967,10.7794343 12.5269381,11.7056163 12.5269381,12.8443912 C12.5269381,13.982951 11.613967,14.9091868 10.4919081,14.9091868 L9.97983888,14.9091868 L9.97983888,15.4289478 C9.97983888,16.5675076 9.06681481,17.4939584 7.94480887,17.4939584 L7.94480887,17.4939584 Z M5.39744471,12.0135372 C4.94604596,12.0135372 4.57884401,12.3861392 4.57884401,12.8441761 C4.57884401,13.3022669 4.94604596,13.6748151 5.39744471,13.6748151 L6.51786104,13.6748151 C6.85380049,13.6748151 7.12594323,13.9512288 7.12594323,14.2921085 L7.12594323,15.4289478 C7.12594323,15.8870385 7.49314517,16.2596405 7.94459692,16.2596405 C8.39599567,16.2596405 8.76340957,15.8868234 8.76340957,15.4289478 L8.76340957,14.2921085 C8.76340957,13.9512288 9.03576426,13.6748151 9.37149175,13.6748151 L10.4919081,13.6748151 C10.9433068,13.6748151 11.3105088,13.3022669 11.3105088,12.8441761 C11.3105088,12.3861392 10.9433068,12.0135372 10.4919081,12.0135372 L9.37149175,12.0135372 C9.03576426,12.0135372 8.76340957,11.7371235 8.76340957,11.3964589 L8.76340957,10.2596196 C8.76340957,9.80152884 8.39620762,9.42876556 7.94459692,9.42876556 C7.49314517,9.42876556 7.12594323,9.80152884 7.12594323,10.2596196 L7.12594323,11.3964589 C7.12594323,11.7371235 6.85380049,12.0135372 6.51786104,12.0135372 L5.39744471,12.0135372 Z" id="Fill-2"></path>
                    <path d="M7.94480887,22.0228736 C5.7836691,22.0228736 3.78795566,21.1989017 2.32524142,19.7033322 C0.825859962,18.1701262 0,16.0249496 0,13.6627714 C0,8.323541 5.49743174,2.1080239 7.18226872,0.330395258 C7.38324953,0.118232575 7.65353771,0.0008602643 7.94353717,0 L7.94687537,0 C8.23539119,0 8.50509651,0.115490482 8.70666018,0.325556271 C8.98961233,0.620196794 9.43942147,1.10221363 9.97628873,1.72370083 C10.1977756,1.97989829 10.1725007,2.36992061 9.92001622,2.59466466 C9.66747878,2.81919365 9.28310895,2.79354702 9.061887,2.53729579 C8.6085807,2.01269586 8.22028981,1.59175779 7.94767018,1.30426821 C6.58865207,2.75617929 1.21642931,8.80512771 1.21642931,13.6627714 C1.21642931,17.7916637 4.04605677,20.7885557 7.94480887,20.7885557 C11.843508,20.7885557 14.6729235,17.7916637 14.6729235,13.6627714 C14.6729235,10.6235114 12.6337605,7.20363819 10.9230657,4.86984867 C10.7224558,4.59617709 10.7783574,4.20975712 11.0480627,4.00625085 C11.3175561,3.80290587 11.6983758,3.85962955 11.8989327,4.13308606 C14.5468667,7.74555093 15.8893528,10.9515409 15.8893528,13.6627714 C15.8893528,16.0247346 15.0634928,18.1701262 13.5641114,19.7033322 C12.1013971,21.1991168 10.1056837,22.0228736 7.94480887,22.0228736 L7.94480887,22.0228736 Z" id="Fill-3"></path>
                </g>
            </g>
        </g>
    </g>
</svg>