<?xml version="1.0" encoding="UTF-8"?>
<svg width="24px" height="18px" viewBox="0 0 24 18" version="1.1" xmlns="http://www.w3.org/2000/svg" xmlns:xlink="http://www.w3.org/1999/xlink">
    <!-- Generator: Sketch 55 (78076) - https://sketchapp.com -->
    <title>ic_mail</title>
    <desc>Created with Sketch.</desc>
    <g id="Symbols" stroke="none" stroke-width="1" fill="none" fill-rule="evenodd">
        <g id="header-color" transform="translate(-299.000000, -65.000000)" fill="#FFFFFF">
            <g id="ic_mail">
                <g transform="translate(299.000000, 65.000000)">
                    <path d="M22.6991578,0 L1.30584495,0 C0.584166343,0 0,0.580804572 0,1.29833005 L0,16.701914 C0,17.4192564 0.584166343,18 1.30584495,18 L22.6941261,18 C23.415866,18 23.999971,17.4192564 23.999971,16.701914 L23.999971,1.29833005 C24.0047573,0.5858073 23.415866,0 22.6991578,0 L22.6991578,0 Z M22.2326838,16.2428831 L1.76728727,16.2428831 L1.76728727,1.75711686 L21.1379855,1.75711686 L12.1252561,9.41964961 L5.57173194,3.84593901 C5.19852819,3.52875383 4.64387698,3.57261921 4.32479452,3.94367524 C4.00577343,4.31448724 4.04989271,4.86619057 4.42285102,5.18337576 L11.5506622,11.2451574 C11.5604801,11.2549188 11.5703594,11.2597385 11.5753911,11.2647413 C11.585209,11.2745027 11.5950269,11.2792614 11.6048448,11.2890228 C11.619449,11.2987842 11.6391462,11.3135484 11.6587821,11.3233708 C11.6635683,11.3281295 11.6733862,11.3331322 11.6784179,11.3378909 C11.7029013,11.352411 11.7275689,11.3671752 11.757084,11.3769366 C11.7618702,11.3817563 11.7716882,11.3817563 11.7767198,11.386759 C11.7961102,11.3965205 11.8158074,11.4012792 11.840475,11.4110406 C11.8502929,11.4160433 11.8550791,11.4160433 11.864897,11.420802 L11.9238659,11.4355661 C11.9336839,11.4355661 11.9435631,11.4403858 11.9483494,11.4403858 C11.9679852,11.4453886 11.9926528,11.4501473 12.01235,11.4501473 C12.0221679,11.4501473 12.0269541,11.4501473 12.036772,11.45515 C12.0662872,11.4599087 12.0957409,11.4599087 12.1252561,11.4599087 C12.1544644,11.4599087 12.1839795,11.4599087 12.2134333,11.45515 C12.2232512,11.45515 12.2282829,11.45515 12.2381008,11.4501473 C12.257798,11.4453886 12.2822201,11.4453886 12.3018559,11.4403858 C12.3117352,11.4403858 12.3215531,11.4355661 12.3263394,11.4355661 L12.3853083,11.420802 C12.3951262,11.4160433 12.3999124,11.4160433 12.4097303,11.4110406 C12.4294275,11.4062819 12.4540951,11.3965205 12.4737309,11.386759 C12.4785172,11.3817563 12.4883964,11.3817563 12.4934281,11.3769366 C12.5178502,11.3671752 12.547304,11.352411 12.5717874,11.3378909 C12.5768191,11.3331322 12.586637,11.3281295 12.5914233,11.3233708 C12.6111205,11.3135484 12.6259701,11.2987842 12.6453605,11.2890228 C12.6551784,11.2842641 12.6649963,11.2745027 12.6748756,11.2647413 C12.6846935,11.2597385 12.6945114,11.2499161 12.6995431,11.2451574 L22.2326838,3.13835798 L22.2326838,16.2428831 Z"></path>
                </g>
            </g>
        </g>
    </g>
</svg>