<?xml version="1.0" encoding="UTF-8"?>
<svg width="17px" height="17px" viewBox="0 0 17 17" version="1.1" xmlns="http://www.w3.org/2000/svg" xmlns:xlink="http://www.w3.org/1999/xlink">
    <!-- Generator: Sketch 55 (78076) - https://sketchapp.com -->
    <title>ic_phone_white</title>
    <desc>Created with Sketch.</desc>
    <g id="Screen" stroke="none" stroke-width="1" fill="none" fill-rule="evenodd">
        <g id="24_Maps-Doctors" transform="translate(-50.000000, -736.000000)" fill="#FFFFFF">
            <g id="doctor" transform="translate(24.000000, 548.000000)">
                <g id="Group-2" transform="translate(0.000000, 182.000000)">
                    <path d="M39.2983142,18.8109709 C39.94632,19.4748895 39.949709,20.415559 39.2983142,21.099326 L39.2884364,21.1094586 L38.2766894,22.1302304 C37.8633941,22.5472123 37.3608269,22.784058 36.7822134,22.8340542 L36.7788244,22.8340542 C36.6730621,22.8439783 36.5672999,22.8473976 36.4648026,22.8473976 C35.684377,22.8473976 34.9801631,22.6205177 34.4974341,22.4403815 C33.1849321,21.9500942 31.9681079,21.2128701 30.668666,20.1252979 C29.0981437,18.7976274 27.8616467,17.2031719 26.9855019,15.3817949 L26.9855019,15.3783756 C26.6548656,14.6778043 26.2678558,13.7371765 26.1984635,12.6830045 C26.1488681,11.8423272 26.4135011,11.1486361 26.9921146,10.61811 C27.001951,10.6114383 27.0085638,10.6047666 27.0151765,10.5980949 C27.1937614,10.4480648 27.3590795,10.2746003 27.5342341,10.0910031 C27.6599999,9.96102987 27.7856003,9.82763735 27.9244262,9.69749729 C28.6286402,9.01698279 29.5545457,9.02023525 30.2354912,9.70742146 L31.862387,11.3486623 C32.1962469,11.672282 32.3747905,12.0659963 32.3780142,12.4829783 C32.3814033,12.9098843 32.2062487,13.3135229 31.8656107,13.6571994 L30.8538223,14.6778043 C30.6191119,14.9113976 30.2421039,14.9113976 30.0107825,14.6778043 C29.7792544,14.4410003 29.7792544,14.0607962 30.0107825,13.8272446 L31.0225295,12.8064311 C31.0951868,12.7297482 31.1844586,12.6129515 31.1844586,12.4929024 C31.1812349,12.379525 31.0985758,12.2761135 31.0291422,12.209313 L31.0191405,12.1993888 L29.3892276,10.5547287 C29.170925,10.3345206 28.9759323,10.3379398 28.7410152,10.5648614 L28.7377915,10.5681139 C28.6188038,10.6781971 28.5062634,10.7949937 28.387317,10.9217145 C28.2021194,11.1152358 28.0070853,11.3186813 27.7856003,11.5054892 C27.4814563,11.7923311 27.3556905,12.1325883 27.3855304,12.6062798 C27.4417386,13.4570063 27.7755986,14.2575699 28.0600698,14.8614015 C28.8601682,16.5259099 29.9941267,17.9871397 31.4358248,19.2046852 C32.6293805,20.2054418 33.7336643,20.8758653 34.9173835,21.3162817 C35.6282102,21.5831084 36.173884,21.6831007 36.6862876,21.6397762 C36.9872493,21.6130894 37.2251834,21.499712 37.440097,21.2829231 L38.4486203,20.2653621 C38.7164357,19.9785202 38.5808335,19.7783689 38.455233,19.6516481 C38.451844,19.648354 38.4452313,19.6449347 38.4420075,19.638263 C38.2766894,19.4615461 38.1047585,19.2880816 37.9195609,19.1079454 C37.8270654,19.0144163 37.7277919,18.9178433 37.631866,18.8211035 L36.8251548,18.006988 C36.7424958,17.9235916 36.623508,17.8270186 36.5045203,17.8270186 C36.3853672,17.8270186 36.2629905,17.9270109 36.1837204,18.006988 C36.0976724,18.0938036 36.0117896,18.1804525 35.9259068,18.2638489 C35.6745406,18.514038 35.4363998,18.7476313 35.2116911,19.0044922 L35.1884226,19.0278015 C34.8182339,19.3981648 34.4412673,19.2713189 34.3156668,19.2279528 C34.3024414,19.2247003 34.2891746,19.2212811 34.2759491,19.2146094 C33.7502788,18.9978205 33.2575481,18.6909635 32.6723219,18.2239437 C32.6690981,18.2239437 32.6690981,18.2205244 32.6657091,18.2205244 C32.0838719,17.7436222 31.5845285,17.2598398 31.1415172,16.7461181 C30.9232559,16.4959289 30.9497482,16.1155997 31.1977254,15.8988108 C31.4457026,15.6785609 31.8226693,15.7052895 32.0375415,15.9554786 C32.4376114,16.4159518 32.8871941,16.8495296 33.4130298,17.2831491 C33.8163234,17.6033912 34.1635741,17.8336903 34.5040882,18.0004831 C34.6958572,17.7936184 34.8942803,17.5966778 35.0860907,17.4066174 C35.1687497,17.323221 35.2546325,17.2398247 35.3372916,17.1564283 C35.6811533,16.8094576 36.0812232,16.626069 36.4979076,16.626069 C36.9112029,16.626069 37.3144965,16.8094576 37.6583582,17.1564283 L38.4650694,17.9703353 C38.5577716,18.0638226 38.6502671,18.1571849 38.7427626,18.247253 C38.9279602,18.4273892 39.1165056,18.6142388 39.2983142,18.8109709 Z M39.0635624,14.7312614 C39.1197293,15.0581335 38.9016333,15.3684515 38.5774444,15.4251193 C38.5445048,15.431791 38.5113998,15.4350852 38.4783362,15.4350852 C38.1940303,15.4350852 37.9426641,15.2283455 37.89311,14.9347069 C37.7311809,13.9673088 37.2747788,13.0833488 36.5805666,12.3827775 C35.8861891,11.6822479 35.0100443,11.2218998 34.0510751,11.0585263 C33.7270516,11.0016917 33.5089143,10.6915822 33.5651225,10.3646684 C33.6212893,10.0377545 33.9288637,9.81754639 34.2528459,9.87421423 C35.4596683,10.081079 36.5572981,10.6549295 37.4202175,11.5287985 C38.2899149,12.409506 38.8585266,13.5169683 39.0635624,14.7312614 Z M42.2840424,14.5844838 C42.3402093,14.9113976 42.121948,15.2216738 41.7913117,15.2749641 C41.7582068,15.2816358 41.7251018,15.2850551 41.6921622,15.2850551 C41.4077323,15.2850551 41.1564901,15.0781904 41.1069359,14.7846768 C40.815852,13.0432769 39.9992631,11.4554931 38.7493753,10.1944564 C37.4996528,8.93358641 35.9259068,8.11296598 34.1999028,7.81603315 C33.8758792,7.75932361 33.657618,7.44904736 33.7137848,7.12213353 C33.7701583,6.7952197 34.077526,6.57517834 34.4015496,6.63184618 C36.3721418,6.96868418 38.1675381,7.9095205 39.5926218,9.34714908 C41.0176641,10.7849028 41.9500171,12.5963139 42.2840424,14.5844838 Z" id="ic_phone_white"></path>
                </g>
            </g>
        </g>
    </g>
</svg>