<?xml version="1.0" encoding="UTF-8"?>
<svg width="24px" height="24px" viewBox="0 0 24 24" version="1.1" xmlns="http://www.w3.org/2000/svg" xmlns:xlink="http://www.w3.org/1999/xlink">
    <!-- Generator: Sketch 55 (78076) - https://sketchapp.com -->
    <title>phone-call</title>
    <desc>Created with Sketch.</desc>
    <g id="Screen" stroke="none" stroke-width="1" fill="none" fill-rule="evenodd">
        <g id="32_List-Doctors-Active" transform="translate(-166.000000, -175.000000)" fill="#969696">
            <g id="action" transform="translate(153.000000, 162.000000)">
                <g id="phone-call" transform="translate(13.000000, 13.000000)">
                    <path d="M19.5139692,18.0430154 C19.2432615,17.7526769 18.9625231,17.4769231 18.6867692,17.2110769 C18.5490462,17.0781538 18.4113231,16.9403692 18.2732923,16.8024 L17.0721231,15.6012308 C16.5601231,15.0891692 15.9596308,14.8185231 15.3442462,14.8185231 C14.7238154,14.8185231 14.1281231,15.0891692 13.6161231,15.6012308 C13.4930462,15.7243077 13.3651692,15.8473846 13.2420923,15.9704615 C12.9564923,16.2509538 12.6610462,16.5416 12.3755077,16.8468923 C11.8684923,16.6007385 11.3514462,16.2608615 10.7509538,15.7882462 C9.968,15.1483077 9.29858462,14.5084308 8.70289231,13.8288615 C8.38295385,13.4596308 7.82166154,13.4201846 7.45243077,13.7452308 C7.0832,14.0651692 7.04375385,14.6264615 7.36873846,14.9956923 C8.02836923,15.7538462 8.77187692,16.4678154 9.63821538,17.1716308 C9.64326154,17.1716308 9.64326154,17.1766769 9.64806154,17.1766769 C10.5194462,17.8659077 11.2531077,18.3187692 12.0358154,18.6387077 C12.0555077,18.6485538 12.0752615,18.6536 12.0949538,18.6584 C12.2819692,18.7224 12.8432615,18.9096 13.3944615,18.3630154 L13.4291077,18.3286154 C13.7636923,17.9495385 14.1182769,17.6048 14.4925538,17.2355692 C14.6204308,17.1124923 14.7483077,16.9846154 14.8764308,16.8564923 C14.9944615,16.7384615 15.1766769,16.5908923 15.3540923,16.5908923 C15.5312615,16.5908923 15.7084308,16.7334154 15.8315077,16.8564923 L17.0326769,18.0579692 C17.1755077,18.2007385 17.3233231,18.3432615 17.4610462,18.4812923 C17.7368,18.7471385 17.9928,19.0031385 18.2389538,19.2639385 C18.2437538,19.2737846 18.2536,19.2788308 18.2586462,19.2836923 C18.4456615,19.4707077 18.6475692,19.7660923 18.2488,20.1894154 L16.7471385,21.6911385 C16.4271385,22.0110769 16.0728615,22.1784 15.6247385,22.2177846 C14.8617846,22.2817231 14.0492923,22.1341538 12.9908923,21.7403692 C11.2283692,21.0904 9.58412308,20.1009846 7.80695385,18.6240615 C5.66030769,16.8272 3.97187692,14.6707077 2.78055385,12.2142154 C2.35698462,11.3230769 1.85987692,10.1416 1.77618462,8.88609231 C1.73175385,8.18701538 1.91901538,7.68486154 2.37187692,7.26153846 C2.70166154,6.98584615 2.99206154,6.6856 3.26781538,6.4 C3.44492308,6.21298462 3.61249231,6.04061538 3.78966154,5.87815385 L3.79446154,5.87335385 C4.14424615,5.53846154 4.43458462,5.53341538 4.75963077,5.8584 L7.18652308,8.2856 L7.20141538,8.30024615 C7.3048,8.39883077 7.42787692,8.55144615 7.43267692,8.71876923 C7.43267692,8.89593846 7.29975385,9.06830769 7.19156923,9.18147692 L5.68510769,10.688 C5.34036923,11.0326769 5.34036923,11.5937846 5.68510769,11.9432615 C6.02953846,12.288 6.59089231,12.288 6.94036923,11.9432615 L8.44689231,10.4370462 C8.95409231,9.92984615 9.21489231,9.33415385 9.20984615,8.70412308 C9.20504615,8.08873846 8.9392,7.50769231 8.44209231,7.03009231 L6.01969231,4.60793846 C5.00578462,3.59378462 3.62713846,3.58898462 2.57858462,4.59329231 C2.37187692,4.78535385 2.18486154,4.98221538 1.9976,5.17403077 C1.7368,5.44498462 1.49064615,5.70098462 1.22473846,5.9224 C1.21489231,5.93224615 1.20504615,5.94209231 1.1904,5.95193846 C0.328861538,6.73489231 -0.0651692308,7.75864615 0.00867692308,8.99932308 C0.112,10.5550769 0.688246154,11.9432615 1.18055385,12.9771692 L1.18055385,12.9822154 C2.48510769,15.6702154 4.32621538,18.0233231 6.66467692,19.9827077 C8.59950769,21.5877538 10.4113231,22.6757538 12.3656,23.3993231 C13.0843692,23.6651692 14.1329231,24 15.2949538,24 C15.4475692,24 15.6050462,23.9949538 15.7625231,23.9803077 L15.7675692,23.9803077 C16.6291077,23.9065231 17.3774154,23.5569846 17.9928,22.9416 L19.4992615,21.4351385 L19.5139692,21.4201846 C20.4838769,20.4110769 20.4788308,19.0228308 19.5139692,18.0430154 L19.5139692,18.0430154 Z" id="Fill-1"></path>
                    <path d="M19.1644308,12.0221538 C18.8591385,10.2300923 18.0124923,8.59569231 16.7175385,7.29593846 C15.4326769,6.00627692 13.7983385,5.15938462 12.0014154,4.85409231 C11.5190154,4.77046154 11.0610462,5.09544615 10.9774154,5.57790769 C10.8937231,6.06036923 11.2185231,6.51803077 11.7009846,6.60190769 C13.1288615,6.84301538 14.4334154,7.5224 15.4673231,8.55624615 C16.5009846,9.59015385 17.1805538,10.8947077 17.4216615,12.3224 C17.4954462,12.7557538 17.8697231,13.0608615 18.2930462,13.0608615 C18.3422769,13.0608615 18.3915692,13.056 18.4406154,13.0461538 C18.9233231,12.9625231 19.2480615,12.5045538 19.1644308,12.0221538 L19.1644308,12.0221538 Z" id="Fill-3"></path>
                    <path d="M23.9596308,11.8055385 C23.4622769,8.87138462 22.0740308,6.19809231 19.9521846,4.07624615 C17.8302769,1.95458462 15.1569846,0.566092308 12.2228308,0.0689846154 C11.7403692,-0.0146461538 11.2827077,0.310092308 11.1987692,0.792553846 C11.1151385,1.27501538 11.4401231,1.73292308 11.9225846,1.81661538 C14.4925538,2.25483077 16.8358154,3.46590769 18.6966154,5.32670769 C20.5576615,7.18775385 21.7735385,9.53101538 22.2069538,12.1009846 C22.2807385,12.5341538 22.6548308,12.8394462 23.0783385,12.8394462 C23.1273846,12.8394462 23.1766769,12.8344 23.2259692,12.8245538 C23.7182769,12.7459077 24.0432615,12.288 23.9596308,11.8055385 L23.9596308,11.8055385 Z" id="Fill-4"></path>
                </g>
            </g>
        </g>
    </g>
</svg>