<?xml version="1.0" encoding="UTF-8"?>
<svg width="22px" height="19px" viewBox="0 0 22 19" version="1.1" xmlns="http://www.w3.org/2000/svg" xmlns:xlink="http://www.w3.org/1999/xlink">
    <!-- Generator: Sketch 55 (78076) - https://sketchapp.com -->
    <title>ic_plane</title>
    <desc>Created with Sketch.</desc>
    <g id="Screen" stroke="none" stroke-width="1" fill="none" fill-rule="evenodd">
        <g id="26_Doctor-Message" transform="translate(-337.000000, -748.000000)" fill="#4B66EA">
            <g id="leave-message" transform="translate(0.000000, 733.000000)">
                <path d="M358.702653,15.1807644 C358.468199,14.9879839 358.143684,14.947431 357.864086,15.0685849 L337.786847,23.7826336 C337.277192,24.0026176 336.970712,24.5052379 337.002216,25.0571612 C337.033721,25.6090844 337.398928,26.0711518 337.93107,26.2282592 L342.881594,27.7179471 C343.310035,27.8480753 343.765304,27.6057676 343.891661,27.1795976 C344.017849,26.7532033 343.778943,26.3001102 343.350557,26.174357 L339.207039,24.9270329 L354.892893,18.1199799 L345.64099,27.3097258 C345.636368,27.3141008 345.631972,27.3231313 345.622955,27.3277306 L345.586828,27.3634037 C345.577811,27.3723781 345.568794,27.3860079 345.564398,27.3949823 C345.559776,27.4039566 345.550759,27.412931 345.546363,27.4219054 C345.541741,27.4262804 345.541741,27.4308797 345.541741,27.4308797 C345.532667,27.4399102 345.528271,27.4532595 345.519254,27.4622339 C345.510236,27.4755833 345.505615,27.4892131 345.496598,27.5025624 C345.492202,27.5115368 345.48758,27.5251105 345.483184,27.5340849 C345.47411,27.5474903 345.469714,27.565439 345.460697,27.5787884 C345.456075,27.5877628 345.451679,27.5967371 345.451679,27.6057676 C345.447058,27.6237163 345.438041,27.63729 345.433645,27.6552387 C345.429023,27.6642692 345.429023,27.6732436 345.424571,27.6822179 L345.410932,27.7358958 C345.410932,27.7448702 345.406536,27.7538445 345.406536,27.7628189 C345.401914,27.7808237 345.401914,27.7987724 345.401914,27.8167212 L345.401914,27.9199263 L345.645386,32.5192865 C345.672494,33.0219068 345.997235,33.4570511 346.47516,33.6277323 C346.614761,33.6770352 346.754532,33.6993589 346.894359,33.6993589 C347.24153,33.6993589 347.579685,33.5558813 347.823156,33.2865944 L349.676186,31.2494144 L353.328309,33.7666105 C353.553745,33.9193429 353.810855,34 354.076814,34 C354.239071,34 354.405951,33.9686458 354.563812,33.9057692 C354.973937,33.7442868 355.271569,33.3897995 355.361857,32.9634052 L358.98225,15.9749953 C359.045429,15.6790097 358.937106,15.3738253 358.702653,15.1807644 L358.702653,15.1807644 Z M347.223439,31.5499994 L347.115343,29.4814652 L348.337207,30.3249991 L347.223439,31.5499994 Z M353.873808,32.1737736 L347.475984,27.7628189 L356.777427,18.5238261 L353.873808,32.1737736 Z" id="ic_plane"></path>
            </g>
        </g>
    </g>
</svg>