<?xml version="1.0" encoding="UTF-8"?>
<svg width="21px" height="24px" viewBox="0 0 21 24" version="1.1" xmlns="http://www.w3.org/2000/svg" xmlns:xlink="http://www.w3.org/1999/xlink">
    <!-- Generator: Sketch 55 (78076) - https://sketchapp.com -->
    <title>ic_Profile_grey</title>
    <desc>Created with Sketch.</desc>
    <g id="Symbols" stroke="none" stroke-width="1" fill="none" fill-rule="evenodd">
        <g id="tabbar" transform="translate(-327.000000, -32.000000)" fill="#696969">
            <g id="ic_Profile_grey">
                <g transform="translate(327.500000, 32.500000)">
                    <g id="ic_profile">
                        <path d="M9.89627717,12.6870052 L10.0517361,12.6870052 C11.4757741,12.6628268 12.6276526,12.1621262 13.4781509,11.2048296 C15.349065,9.09541149 15.0382079,5.4796393 15.0040057,5.13457997 C14.8825059,2.54414428 13.6577883,1.3049682 12.6471533,0.726629331 C11.8936725,0.294029426 11.0140142,0.0607498813 10.0322962,0.0413099193 L9.94967632,0.0413099193 C9.41027812,0.0413099193 8.35073944,0.128850498 7.33506217,0.707189369 C6.31440342,1.28546749 5.07024585,2.52470432 4.94874608,5.13457997 C4.9147869,5.4796393 4.60368676,9.09541149 6.47484385,11.2048296 C7.3203607,12.1621262 8.4722392,12.6628268 9.89627717,12.6870052 L9.89627717,12.6870052 Z M6.2463028,5.25607973 C6.2463028,5.24162126 6.25128429,5.22685904 6.25128429,5.21713906 C6.41172473,1.73258662 8.88539915,1.35836735 9.94493783,1.35836735 L10.0030755,1.35836735 C11.3153944,1.38752729 13.5460085,1.922187 13.696729,5.21713906 C13.696729,5.23184053 13.696729,5.24635975 13.7017105,5.25607973 C13.706449,5.28997817 14.0467698,8.59495396 12.5011713,10.3348306 C11.888934,11.0249492 11.0723949,11.3649663 9.99833697,11.374747 L9.94967632,11.374747 C8.88066065,11.3649663 8.05907926,11.0249492 7.45158045,10.3348306 C5.91102421,8.60467394 6.24156431,5.28523968 6.2463028,5.25607973 Z M19.9613175,18.6841728 C19.966056,18.9368923 19.9710375,20.234449 19.728038,20.8808885 C19.6793773,21.0073697 19.5870982,21.114168 19.4753185,21.1870071 C19.3296402,21.2795899 15.8350641,23.5102041 9.98861699,23.5102041 C4.14216991,23.5102041 0.647593735,21.2843284 0.50191552,21.1870071 C0.385154248,21.114168 0.297795918,21.0073697 0.249196013,20.8808885 C-0.00832273374,20.2297105 -0.003584243,18.9321538 0.00139724727,18.6794343 L0.00139724727,18.6647328 C0.0061964879,18.6260351 0.0061964879,18.5870944 0.0061964879,18.543233 C0.0353564309,17.5859364 0.0984755577,15.3358215 2.20765069,14.6115615 C2.22235216,14.606823 2.23681063,14.6018415 2.25631134,14.597103 C4.45800854,14.0379611 6.270785,12.7746065 6.29022496,12.7598443 C6.58662364,12.551047 6.99480209,12.6238861 7.20384243,12.9202848 C7.41288277,13.2166834 7.33980066,13.6251049 7.04340199,13.8339022 C6.9608429,13.8875444 5.02656668,15.2385002 2.60629141,15.8604575 C1.47391362,16.2638975 1.34767537,17.4741566 1.31347318,18.582113 C1.31347318,18.6260351 1.30873469,18.6647328 1.30873469,18.7036127 C1.29901471,19.1409511 1.33291315,19.8166113 1.41079449,20.205532 C2.2029122,20.6525904 5.30850688,22.2029274 9.9836355,22.2029274 C14.6784471,22.2029274 17.7646018,20.6573289 18.551981,20.2102705 C18.6295586,19.8215928 18.6587793,19.1459326 18.6539801,18.7085942 C18.6489986,18.6697143 18.6489986,18.6307736 18.6489986,18.5870944 C18.6151001,17.4788951 18.4886189,16.268879 17.3564234,15.865439 C14.9361481,15.2432387 13.0018719,13.8970214 12.9190698,13.8388837 C12.6226711,13.6298434 12.549832,13.2216649 12.7588723,12.9250233 C12.9677304,12.6286246 13.3761519,12.5557855 13.6724898,12.7648258 C13.6919905,12.779345 15.5144869,14.0429426 17.7062212,14.6018415 C17.7209226,14.606823 17.7403626,14.6115615 17.7548818,14.616543 C19.8639962,15.3358215 19.9273583,17.5859364 19.956336,18.5482145 C19.956336,18.5918329 19.9613175,18.6307736 19.9613175,18.6697143 L19.9613175,18.6841728 Z"></path>
                    </g>
                </g>
            </g>
        </g>
    </g>
</svg>