<?xml version="1.0" encoding="UTF-8"?>
<svg width="21px" height="24px" viewBox="0 0 21 24" version="1.1" xmlns="http://www.w3.org/2000/svg" xmlns:xlink="http://www.w3.org/1999/xlink">
    <!-- Generator: Sketch 55 (78076) - https://sketchapp.com -->
    <title>ic_user</title>
    <desc>Created with Sketch.</desc>
    <g id="Symbols" stroke="none" stroke-width="1" fill="none" fill-rule="evenodd">
        <g id="textfield" transform="translate(-24.000000, -12.000000)" fill="#969696">
            <g id="ic_user">
                <g transform="translate(22.000000, 12.000000)">
                    <path d="M12.1201938,12.93187 L12.2791708,12.93187 C13.7354351,12.9071443 14.9133808,12.3951129 15.7831261,11.4161524 C17.6963794,9.25899772 17.3784875,5.56139988 17.3435113,5.20853179 C17.219262,2.55947401 15.9668287,1.29225513 14.9333228,0.700828329 C14.1627906,0.2584386 13.2632255,0.0198798923 12.2592909,0 L12.1748014,0 C11.6231965,0 10.5396803,0.0895216401 9.50101801,0.680948437 C8.45726154,1.27231311 7.18494843,2.53959412 7.0606991,5.20853179 C7.02597141,5.56139988 6.70783101,9.25899772 8.62133277,11.4161524 C9.48598384,12.3951129 10.6639296,12.9071443 12.1201938,12.93187 L12.1201938,12.93187 Z M8.38761979,5.33278111 C8.38761979,5.31799544 8.39271401,5.30289915 8.39271401,5.2929592 C8.55678525,1.72955063 11.0864394,1.3468627 12.1699557,1.3468627 L12.229409,1.3468627 C13.571426,1.37668254 15.8525194,1.92344171 16.0066506,5.2929592 C16.0066506,5.30799337 16.0066506,5.32284117 16.0117449,5.33278111 C16.0165906,5.36744668 16.364613,8.74721474 14.7840373,10.5264651 C14.1579449,11.2322013 13.3229273,11.579913 12.2245633,11.5899151 L12.1748014,11.5899151 C11.0815937,11.579913 10.2414197,11.2322013 9.62017311,10.5264651 C8.04475377,8.75715469 8.38277406,5.36260095 8.38761979,5.33278111 Z M22.4130081,19.0647546 C22.4178538,19.3231932 22.422948,20.6501139 22.1744494,21.3111824 C22.1246875,21.440526 22.0303201,21.5497411 21.9160108,21.6242286 C21.7670358,21.7189066 18.1933767,24 12.2146233,24 C6.23586994,24 2.6622108,21.7237523 2.51323586,21.6242286 C2.39383225,21.5497411 2.30449699,21.440526 2.25479726,21.3111824 C1.99145081,20.6452682 1.99629653,19.3183475 2.00139076,19.0599089 L2.00139076,19.0448747 C2.0062986,19.0053013 2.0062986,18.9654794 2.0062986,18.9206254 C2.03611844,17.9416649 2.10066597,15.6406295 4.25757216,14.8999793 C4.27260633,14.8951336 4.287392,14.8900393 4.30733402,14.8851936 C6.55885607,14.3133982 8.41265603,13.0214537 8.43253592,13.0063574 C8.73564215,12.792835 9.15305777,12.8673224 9.36682873,13.1704287 C9.5805997,13.4735349 9.50586373,13.891199 9.2027575,14.1047215 C9.11833008,14.1595776 7.14028079,15.5411058 4.6652342,16.1771381 C3.50723047,16.589708 3.37813542,17.8273556 3.34315924,18.9603852 C3.34315924,19.0053013 3.33831351,19.0448747 3.33831351,19.0846345 C3.32837357,19.53187 3.36303913,20.2228205 3.44268295,20.6205426 C4.25272644,21.077718 7.42860136,22.6631394 12.2095291,22.6631394 C17.0105852,22.6631394 20.1665802,21.0825637 20.971778,20.6253883 C21.0511112,20.2279147 21.0809932,19.5369642 21.0760853,19.0897287 C21.0709911,19.0499689 21.0709911,19.010147 21.0709911,18.9654794 C21.0363255,17.8322013 20.906982,16.5948022 19.7491646,16.1822323 C17.274118,15.5459515 15.2960687,14.169269 15.2113928,14.1098157 C14.9082866,13.8960447 14.8337991,13.4786291 15.0475701,13.1752744 C15.2611547,12.8721682 15.6788188,12.7976807 15.9818629,13.0114516 C16.0018049,13.0262994 17.8655448,14.3184924 20.1068784,14.8900393 C20.1219126,14.8951336 20.1417925,14.8999793 20.1566403,14.9050735 C22.3134844,15.6406295 22.3782804,17.9416649 22.4079138,18.9257196 C22.4079138,18.9703251 22.4130081,19.010147 22.4130081,19.0499689 L22.4130081,19.0647546 Z"></path>
                </g>
            </g>
        </g>
    </g>
</svg>