<?xml version="1.0" encoding="UTF-8"?>
<svg width="18px" height="18px" viewBox="0 0 18 18" version="1.1" xmlns="http://www.w3.org/2000/svg" xmlns:xlink="http://www.w3.org/1999/xlink">
    <!-- Generator: Sketch 55 (78076) - https://sketchapp.com -->
    <title>ic_clock</title>
    <desc>Created with Sketch.</desc>
    <g id="Screen" stroke="none" stroke-width="1" fill="none" fill-rule="evenodd">
        <g id="21_Appointment-Details" transform="translate(-43.000000, -339.000000)" fill="#131313">
            <g id="calendar" transform="translate(24.000000, 320.000000)">
                <path d="M34.3632667,21.6367799 C36.0640799,23.3375931 37.0001799,25.5942944 37.0001799,27.99991 C37.0001799,30.4057588 36.0640799,32.662227 34.3632667,34.3630868 C32.6624069,36.0639 30.4059387,37 28.00009,37 C25.5944277,37 23.337773,36.0639 21.6369598,34.3630868 C19.9361,32.662227 19,30.4019357 19,27.99991 C19,25.597931 19.9361,23.3375931 21.6332766,21.6367799 C23.7890853,19.4810178 26.8625779,18.5671105 29.8500973,19.1937725 C30.2119397,19.2682763 30.4432373,19.6265287 30.3685936,19.9881847 C30.2939033,20.3537103 29.9358839,20.5850078 29.5816411,20.5103641 C27.0415642,19.9770883 24.4268436,20.7529445 22.5918023,22.5879858 C19.6079195,25.5718686 19.6079195,30.4281379 22.5918023,33.4120208 C25.5756852,36.3959036 30.4319545,36.3959036 33.4158373,33.4120208 C36.2431129,30.5847918 36.3922604,26.0827187 33.8709727,23.0802799 L32.3156704,24.6355822 C32.0508508,24.8967651 31.6256008,24.8967651 31.3644178,24.6355822 C31.103468,24.3707626 31.103468,23.9455126 31.3644178,23.6845627 L33.4122007,21.6367799 C33.6770203,21.3757834 34.1022702,21.3757834 34.3632667,21.6367799 Z M27.9964533,21.737486 C28.3656156,21.737486 28.6677337,22.0396041 28.6640971,22.4089528 L28.6640971,27.9924503 C28.6640971,28.0148761 28.6640971,28.0372552 28.660274,28.0596809 C28.660274,28.0707773 28.6566374,28.078237 28.6566374,28.0895198 C28.6566374,28.1044858 28.6566374,28.1155821 28.6528143,28.1266784 C28.6528143,28.1379612 28.6491777,28.1491042 28.6453546,28.160387 C28.641718,28.1714833 28.641718,28.178943 28.6378949,28.1902258 L28.626752,28.2237479 C28.6229289,28.2348442 28.6192923,28.2423505 28.6154692,28.2536333 C28.6118326,28.2647296 28.6043729,28.2721894 28.6007362,28.2834722 C28.5969131,28.2946151 28.5894534,28.3020748 28.5858168,28.3131711 C28.5819937,28.3244539 28.5744874,28.3355969 28.5708508,28.3430566 C28.5633911,28.3543394 28.559568,28.3654357 28.5521083,28.3728954 C28.5446486,28.3842248 28.5371889,28.3916845 28.5296825,28.4027808 C28.5260459,28.4102406 28.5222228,28.4177003 28.5147631,28.42516 C28.5000302,28.440126 28.4850642,28.458682 28.4701447,28.4736014 L25.5944277,31.3493185 C25.4638828,31.47991 25.2923095,31.547094 25.1207363,31.547094 C24.9492096,31.547094 24.7776364,31.47991 24.6470449,31.3493185 C24.3859085,31.0844989 24.3859085,30.659249 24.6470449,30.3982991 L27.3249865,27.720171 L27.3249865,22.4089528 C27.3249865,22.0396041 27.6271046,21.737486 27.9964533,21.737486 Z" id="ic_clock"></path>
            </g>
        </g>
    </g>
</svg>