<?xml version="1.0" encoding="UTF-8"?>
<svg width="19px" height="25px" viewBox="0 0 19 25" version="1.1" xmlns="http://www.w3.org/2000/svg" xmlns:xlink="http://www.w3.org/1999/xlink">
    <!-- Generator: Sketch 55 (78076) - https://sketchapp.com -->
    <title>ic_doctor_white@1x</title>
    <desc>Created with Sketch.</desc>
    <g id="Screen" stroke="none" stroke-width="1" fill="none" fill-rule="evenodd">
        <g id="12_Main-Services" transform="translate(-32.000000, -345.000000)" fill="#FFFFFF">
            <g id="Group-2" transform="translate(16.000000, 329.000000)">
                <g id="find-doctors">
                    <g id="ic_doctor_white" transform="translate(16.000000, 16.000000)">
                        <path d="M9.49787269,14 C7.30684746,14 5.60511962,12.3543702 4.74331802,10.8141054 C4.74038884,10.8088341 4.73752199,10.8033789 4.73459281,10.7981076 L4.72119338,10.7741415 C4.5777883,10.5129052 4.44877982,10.1619339 4.33921609,9.73379312 C4.28368635,9.51760807 4.23357871,9.2865898 4.19070053,9.04760327 C3.90295552,7.43911787 3.76808868,4.24770679 5.08758994,2.48623078 C6.36059828,0.78678462 8.39531758,0.860276503 9.49787269,1.18421696 C10.6002408,0.860276503 12.6352094,0.787029797 13.9079685,2.48623078 C15.1320533,4.12009203 15.0451128,6.8372077 14.9508805,7.92947238 C14.9172885,8.31734281 14.5711469,8.60536479 14.1760194,8.57257233 C13.7813906,8.5395347 13.4885351,8.19837054 13.5221272,7.81025494 C13.686909,5.89548185 13.3926201,4.17593115 12.7535607,3.32259171 C11.6831019,1.89363735 9.83192364,2.55806772 9.75377067,2.58705993 C9.58699449,2.65074472 9.40513615,2.64951884 9.23835997,2.58583405 C9.16338547,2.55806772 7.31220723,1.89388253 6.24199773,3.32259171 C5.38362389,4.46848892 5.2708817,6.94686323 5.60293832,8.80267119 C5.63970885,9.00788455 5.68233774,9.20512966 5.72957853,9.3890126 C5.83521591,9.80232016 5.93455867,10.0158696 5.98416773,10.1065851 C5.99152184,10.1192731 5.99781645,10.1305512 6.00367481,10.1418294 C6.63905717,11.2728934 7.93325531,12.5897404 9.49762339,12.5897404 C10.2172664,12.5897404 10.9261898,12.3165517 11.6049489,11.7778359 C12.1327619,11.3585828 12.5129941,10.877116 12.7386655,10.5471687 C12.959725,10.2239025 13.4052716,10.1384582 13.7339005,10.3558691 C14.0623424,10.5732801 14.1494699,11.0114118 13.9281611,11.334678 C13.5254926,11.9231647 13.0335153,12.4559349 12.5057023,12.8751267 C11.5786486,13.6111489 10.5386658,14 9.49787269,14 L9.49787269,14 Z" id="Fill-1"></path>
                        <path d="M10.0042197,1 C5.68561709,1 5,3.10268291 5,3.10268291 L5,7 L5.1824605,7 C6.0188741,6.38942619 7.8614046,5.96550259 10.0000981,5.96550259 C11.3397337,5.96568469 12.5594518,6.13145435 13.4907265,6.404601 C13.5471852,6.4214147 13.5880737,6.43373665 13.6279153,6.44630139 C13.689019,6.46602865 13.7255896,6.47762221 13.7611135,6.48970136 C13.7733473,6.49376821 13.7851232,6.49825995 13.7970953,6.50226611 C13.8280396,6.51294917 13.8592457,6.52363224 13.889405,6.53455811 C13.9077884,6.54117433 13.9253868,6.54803334 13.9433123,6.55471026 C13.9667986,6.56345096 13.9903503,6.57200955 14.0130516,6.58075024 C14.0345098,6.58906604 14.0549868,6.59762464 14.0756599,6.60612253 C14.0943051,6.61346714 14.1137352,6.62105455 14.1321841,6.62864196 C14.154362,6.63817174 14.1760819,6.64764082 14.1978018,6.65710991 C14.2139609,6.66396892 14.2303163,6.67088864 14.2458866,6.67774765 C14.2763076,6.69152638 14.3056819,6.70524442 14.3350561,6.71926594 C14.5318439,6.81359259 14.6869582,6.90439867 14.8175395,7 L15,7 L15,3.10268291 C15,3.10268291 14.990841,3.0703909 14.9665042,3.01400129 C14.790455,2.60731628 13.8528344,1.00048559 10.0042197,1 Z" id="Fill-2"></path>
                        <path d="M14.2802061,8 L14.1060119,8 C13.9445149,8 13.7878965,7.94307989 13.6611132,7.83849657 C13.5724212,7.76536047 13.4617125,7.69229002 13.3314891,7.62125477 L13.3182917,7.61455829 C13.2931477,7.60096836 13.270443,7.58895408 13.2469878,7.57687415 L12.9572063,7.44530795 C12.9342515,7.43585409 12.9102958,7.42659719 12.8865904,7.41734028 L12.8501879,7.40302819 C12.8196649,7.39147347 12.7888291,7.37991876 12.7578056,7.36888925 L12.7392291,7.36199581 C12.7033269,7.34939067 12.6686758,7.33737639 12.6334616,7.32582167 L12.6168241,7.31991301 C11.7666191,7.03780723 10.6595325,6.8816216 9.50365902,6.88109639 L9.49290089,6.88109639 C7.42640177,6.88109639 5.91576021,7.36199581 5.33888677,7.83849657 C5.21210346,7.94307989 5.05523492,8 4.89398807,8 L4.71979394,8 C4.32224351,8 4,7.66202454 4,7.24480735 L4,3.02950228 C4,2.9553814 4.01050794,2.88178573 4.03077325,2.81068483 C4.06398585,2.69605679 4.89398807,0 9.49996873,0 L9.50709911,0 C13.58074,0.00150999138 14.6748168,2.02365106 14.9142477,2.64708055 C14.9144979,2.64813098 14.9149983,2.6491814 14.9154361,2.65016618 C14.9511506,2.74404825 14.9687264,2.80766485 14.9762946,2.83766772 C14.9919314,2.90023388 15,2.96457265 15,3.02950228 L15,7.24454475 C14.9997498,7.66176193 14.6775063,8 14.2802061,8 L14.2802061,8 Z M5.43908749,3.17511797 L5.43908749,6.07357925 C6.48181296,5.62937918 7.93215896,5.37064544 9.49996873,5.37064544 L9.51097705,5.37064544 C10.8032036,5.37090805 12.0639688,5.55217266 13.0539669,5.88069427 L13.0727311,5.88686554 C13.1140748,5.90071807 13.157295,5.91555537 13.199577,5.93072094 L13.2210932,5.9384022 C13.2648138,5.95428993 13.3036556,5.96840507 13.3414967,5.98304542 L13.3796505,5.99788273 C13.3799007,5.99788273 13.3864682,6.00070576 13.3869686,6.00070576 C13.417992,6.0130483 13.4492656,6.02506257 13.4795385,6.03740511 C13.4944873,6.04357638 13.5088732,6.049682 13.5233216,6.05585327 L13.5548454,6.06918058 C13.5567844,6.06996841 13.5587234,6.07075623 13.5606623,6.0714784 L13.5606623,3.16638628 C13.4009166,2.80175619 12.6148851,1.51130442 9.50490996,1.5105166 L9.49458966,1.5105166 C6.42295598,1.5105166 5.59614368,2.84482377 5.43908749,3.17511797 L5.43908749,3.17511797 Z" id="Fill-3"></path>
                        <path d="M13.2587016,17 C13.0140526,17 12.7744346,16.8748683 12.6328568,16.6457606 C12.1941913,15.9361473 11.8983937,15.0656981 11.7381754,14.0057161 C11.1679942,14.2536436 10.5806559,14.3787753 9.98177216,14.3787753 C9.3831464,14.3787753 8.79587266,14.2536436 8.22569146,14.0054491 C8.07069763,15.0299938 7.78928354,15.8769517 7.37409616,16.5742854 C7.15892371,16.9353987 6.70161774,17.0474499 6.3528655,16.8250826 C6.00391977,16.6027153 5.89536604,16.1295508 6.11053849,15.7687712 C6.5388194,15.0495477 6.79204693,14.02527 6.86357758,12.7241676 C6.87899311,12.4452075 7.03946945,12.1968128 7.28282847,12.0758188 C7.52650998,11.9546246 7.81424509,11.9801848 8.03444855,12.1420218 C8.66661439,12.6073781 9.32193577,12.843293 9.98177216,12.843293 C10.6419311,12.843293 11.2972524,12.6073781 11.9296118,12.1422887 C12.1496217,11.9801848 12.4373568,11.9548916 12.6809739,12.0758188 C12.9243329,12.1970797 13.0851317,12.4452075 13.1004827,12.7244346 C13.1735614,14.0555018 13.436851,15.0964638 13.8830629,15.8182899 C14.1037179,16.1754658 14.0029687,16.6501652 13.6577639,16.8788058 C13.5340527,16.9606252 13.3955064,17 13.2587016,17 L13.2587016,17 Z" id="Fill-4"></path>
                        <path d="M18.2800846,25 L0.719665217,25 C0.322297914,25 0,24.6867782 0,24.3004936 L0,20.4544239 C0,17.4468137 2.51820268,15 5.61356385,15 C5.77777814,15 5.93711292,15.0545844 6.06516879,15.1548178 L9.1595916,17.5768922 C9.28276795,17.6732962 9.41276311,17.6934766 9.49996872,17.6934766 C9.58723689,17.6934766 9.71698182,17.6730531 9.84015817,17.5768922 L12.9348312,15.1548178 C13.0626368,15.0545844 13.2219091,15 13.3861234,15 C16.4815471,15 19,17.4468137 19,20.4544239 L19,24.3004936 C19,24.6867782 18.6776395,25 18.2800846,25 L18.2800846,25 Z M1.43933043,23.6012303 L17.5604193,23.6012303 L17.5604193,20.4544239 C17.5604193,18.2980379 15.8195602,16.5290914 13.6312249,16.4056384 L10.7430553,18.6660264 C10.3921684,18.9410149 9.95057273,19.0922463 9.49996872,19.0922463 C9.04936471,19.0922463 8.60783158,18.9407717 8.25663195,18.6660264 L5.36871253,16.4056384 C3.18043981,16.5290914 1.43933043,18.2980379 1.43933043,20.4544239 L1.43933043,23.6012303 Z" id="Fill-7"></path>
                    </g>
                </g>
            </g>
        </g>
    </g>
</svg>