<?xml version="1.0" encoding="UTF-8"?>
<svg width="46px" height="46px" viewBox="0 0 46 46" version="1.1" xmlns="http://www.w3.org/2000/svg" xmlns:xlink="http://www.w3.org/1999/xlink">
    <!-- Generator: Sketch 55 (78076) - https://sketchapp.com -->
    <title>ic_edit</title>
    <desc>Created with Sketch.</desc>
    <defs>
        <linearGradient x1="0%" y1="100%" x2="100%" y2="50%" id="linearGradient-1">
            <stop stop-color="#4B66EA" offset="0%"></stop>
            <stop stop-color="#82A0F6" offset="100%"></stop>
        </linearGradient>
    </defs>
    <g id="Screen" stroke="none" stroke-width="1" fill="none" fill-rule="evenodd">
        <g id="35_Dashboard-test-indicators" transform="translate(-299.000000, -142.000000)">
            <g id="indicators" transform="translate(16.000000, 120.000000)">
                <g id="ic_edit" transform="translate(283.431373, 22.098039)">
                    <g id="esclip">
                        <path d="M5.64460784,28.2230392 C5.64460784,18.8707467 13.2240826,11.2892157 22.5784314,11.2892157 L22.5784314,11.2892157 C31.9307239,11.2892157 39.5122549,18.8686904 39.5122549,28.2230392 L39.5122549,28.2230392 C39.5122549,37.5753317 31.9327802,45.1568627 22.5784314,45.1568627 L22.5784314,45.1568627 C13.2261389,45.1568627 5.64460784,37.577388 5.64460784,28.2230392 L5.64460784,28.2230392 Z" id="shadow" fill="#4B66EA"></path>
                        <rect id="Rectangle" fill="url(#linearGradient-1)" x="0" y="0" width="45.1568627" height="45.1568627" rx="22.5784314"></rect>
                    </g>
                    <g id="pencil-1" transform="translate(13.547059, 13.547059)" fill="#FFFFFF">
                        <path d="M14.7803738,3.23286085 C14.5209187,2.97340573 14.098482,2.97340573 13.8392585,3.23286085 L3.63515061,13.4367371 C3.3757418,13.6961923 3.3757418,14.1186289 3.63515061,14.3816503 C3.76469291,14.5113778 3.93531638,14.5779784 4.10570828,14.5779784 C4.27614649,14.5779784 4.4465847,14.5113778 4.57631226,14.3816503 L14.7803738,4.17758874 C15.0396437,3.91817993 15.0396437,3.49588221 14.7803738,3.23286085 L14.7803738,3.23286085 Z" id="Fill-1"></path>
                        <path d="M16.9403539,1.19501269 L16.8256323,1.07630803 C16.1327176,0.383393343 15.2138334,0.00185258924 14.2356199,0.00185258924 C13.2574065,0.00185258924 12.3349097,0.383393343 11.6456075,1.07630803 L0.7265855,11.9917638 C0.61908901,12.099214 0.552349482,12.2399645 0.533869904,12.3919694 L0.00398306687,17.275441 C-0.0182943188,17.4755206 0.0522893313,17.6756466 0.196652348,17.8200096 C0.32276736,17.9460783 0.493159256,18.0164767 0.667210015,18.0164767 C0.689487401,18.0164767 0.715331021,18.0164767 0.737608406,18.0126789 L5.62107996,17.482931 C5.77303859,17.4681103 5.91383537,17.3977582 6.02128555,17.2902617 L14.5283753,8.78321822 C14.7877842,8.5237631 14.7877842,8.10132644 14.5283753,7.83825876 C14.2689202,7.57903521 13.8466688,7.57903521 13.5836011,7.83825876 L5.2467643,16.1787082 L1.41945388,16.597347 L1.83429492,12.7698976 L12.5867692,2.02126749 C13.0278244,1.58016599 13.6131036,1.33937571 14.2356199,1.33937571 C14.8581825,1.33937571 15.4434155,1.58016599 15.884517,2.02126749 L15.9955797,2.13233022 C16.4364959,2.57324646 16.6772862,3.15866466 16.6772862,3.78122727 C16.6772862,4.40355831 16.4364959,4.98902283 15.9955797,5.42989275 L15.6360848,5.78938769 C15.3768612,6.04865756 15.3768612,6.47109422 15.6360848,6.73411558 C15.8955399,6.9935707 16.3179766,6.9935707 16.5810442,6.73411558 L16.9403539,6.37485221 C17.6332686,5.68193752 18.0149946,4.76305325 18.0149946,3.78483982 C18.0149946,2.80662639 17.6332686,1.88412957 16.9403539,1.19501269 L16.9403539,1.19501269 Z" id="Fill-3"></path>
                    </g>
                </g>
            </g>
        </g>
    </g>
</svg>