<?xml version="1.0" encoding="UTF-8"?>
<svg width="18px" height="18px" viewBox="0 0 18 18" version="1.1" xmlns="http://www.w3.org/2000/svg" xmlns:xlink="http://www.w3.org/1999/xlink">
    <!-- Generator: Sketch 55 (78076) - https://sketchapp.com -->
    <title>ic_hospital_blue</title>
    <desc>Created with Sketch.</desc>
    <g id="Screen" stroke="none" stroke-width="1" fill="none" fill-rule="evenodd">
        <g id="25_Doctor-Details" transform="translate(-43.000000, -583.000000)" fill="#4B66EA">
            <g id="calendar" transform="translate(24.000000, 564.000000)">
                <g id="ic_hospital_blue" transform="translate(19.000000, 19.000000)">
                    <path d="M11.3994092,17.6024938 L6.34181194,17.6024938 C6.04646801,17.6024938 5.80734392,17.3631464 5.80734392,17.0680258 L5.80734392,13.97848 C5.80734392,13.0512323 6.56155603,12.2971541 7.48866982,12.2971541 L10.2523727,12.2971541 C11.1794418,12.2971541 11.9338772,13.0514109 11.9338772,13.97848 L11.9338772,17.0680258 C11.9336986,17.3631464 11.6945745,17.6024938 11.3994092,17.6024938 L11.3994092,17.6024938 Z M6.87605668,16.5335578 L6.87605668,13.97848 C6.87605668,13.6406252 7.15099356,13.3659116 7.48866982,13.3659116 L10.2525513,13.3659116 C10.5902276,13.3659116 10.8651198,13.6406252 10.8651198,13.97848 L10.8651198,16.5335578 L6.87605668,16.5335578 Z M3.79405754,17.6024938 L0.534468012,17.6024938 C0.239302705,17.6024938 -2.36658272e-30,17.3631464 -2.36658272e-30,17.0680258 L-2.36658272e-30,11.9913611 C-2.36658272e-30,10.9011696 0.886969515,10.0142001 1.97716101,10.0142001 C2.27232632,10.0142001 2.51145041,10.2533242 2.51145041,10.5484895 C2.51145041,10.8436101 2.27232632,11.0829575 1.97716101,11.0829575 C1.47622842,11.0829575 1.06875741,11.4904285 1.06875741,11.9913611 L1.06875741,16.5337364 L3.79405754,16.5337364 C4.08917819,16.5337364 4.32834693,16.7728605 4.32834693,17.0680258 C4.32834693,17.3631464 4.08917819,17.6024938 3.79405754,17.6024938 Z M17.2067531,17.6024938 L13.9471636,17.6024938 C13.6520429,17.6024938 13.4128742,17.3631464 13.4128742,17.0680258 C13.4128742,16.7728605 13.6520429,16.5335578 13.9471636,16.5335578 L16.6724637,16.5335578 L16.6724637,11.9913611 C16.6724637,11.4904285 16.2649927,11.0829575 15.7640155,11.0829575 C15.4688948,11.0829575 15.2295921,10.8436101 15.2295921,10.5484895 C15.2295921,10.2533242 15.4688948,10.0142001 15.7640155,10.0142001 C16.8542516,10.0142001 17.7412211,10.9011696 17.7412211,11.9911825 L17.7412211,17.0680258 C17.7412211,17.3631464 17.5018738,17.6024938 17.2067531,17.6024938 Z M11.7381571,10.8694204 L6.00306398,10.8694204 C5.70789867,10.8694204 5.46859596,10.6301176 5.46859596,10.334997 C5.46859596,10.0398317 5.70789867,9.8007076 6.00306398,9.8007076 L11.7381571,9.8007076 C12.0333225,9.8007076 12.2726252,10.0398317 12.2726252,10.334997 C12.2726252,10.6301176 12.0333225,10.8694204 11.7381571,10.8694204 Z M11.7381571,8.62504766 L6.00306398,8.62504766 C5.70789867,8.62504766 5.46859596,8.3857003 5.46859596,8.09057965 C5.46859596,7.79541434 5.70789867,7.55611164 6.00306398,7.55611164 L11.7381571,7.55611164 C12.0333225,7.55611164 12.2726252,7.79541434 12.2726252,8.09057965 C12.2726252,8.3857003 12.0333225,8.62504766 11.7381571,8.62504766 Z" id="Fill-2"></path>
                    <path d="M13.9471636,17.6024938 L3.79405754,17.6024938 C3.49889223,17.6024938 3.25958952,17.3631464 3.25958952,17.0680258 L3.25958952,5.81405582 C3.25958952,4.57123572 4.23082181,3.53650494 5.4705161,3.45853843 C5.48185831,3.45786861 5.49284328,3.45751138 5.50418549,3.45751138 L12.2370356,3.45751138 C12.2481992,3.45751138 12.2593628,3.45786861 12.2705264,3.45853843 C13.5103993,3.53650494 14.4816316,4.57105711 14.4816316,5.81405582 L14.4816316,17.0680258 C14.4816316,17.3631464 14.2422842,17.6024938 13.9471636,17.6024938 L13.9471636,17.6024938 Z M4.32834693,16.5335578 L13.4126956,16.5335578 L13.4126956,5.81405582 C13.4126956,5.1391945 12.8895698,4.57632632 12.218906,4.52626878 L5.52231516,4.52626878 C4.8516067,4.57632632 4.32834693,5.1391945 4.32834693,5.81405582 L4.32834693,16.5335578 Z" id="Fill-9"></path>
                    <path d="M8.87067754,0.199388579 C8.23560326,0.199388579 7.72082782,0.714119365 7.72082782,1.3492383 L7.72082782,2.25192615 L6.81800601,2.25192615 C6.18288708,2.25192615 5.66815629,2.76683555 5.66815629,3.40177587 C5.66815629,4.03685015 6.18288708,4.55162559 6.81800601,4.55162559 L7.72082782,4.55162559 L7.72082782,5.4544474 C7.72082782,6.08956634 8.23560326,6.60429712 8.87067754,6.60429712 C9.50561786,6.60429712 10.0203486,6.08956634 10.0203486,5.4544474 L10.0203486,4.55162559 L10.9232151,4.55162559 C11.558334,4.55162559 12.0730648,4.03685015 12.0730648,3.40177587 C12.0730648,2.76683555 11.558334,2.25192615 10.9232151,2.25192615 L10.0203486,2.25192615 L10.0203486,1.3492383 C10.0203486,0.714119365 9.50561786,0.199388579 8.87067754,0.199388579 L8.87067754,0.199388579 Z" id="Fill-10"></path>
                </g>
            </g>
        </g>
    </g>
</svg>