<?xml version="1.0" encoding="UTF-8"?>
<svg width="7px" height="24px" viewBox="0 0 7 24" version="1.1" xmlns="http://www.w3.org/2000/svg" xmlns:xlink="http://www.w3.org/1999/xlink">
    <!-- Generator: Sketch 55 (78076) - https://sketchapp.com -->
    <title>more</title>
    <desc>Created with Sketch.</desc>
    <g id="Symbols" stroke="none" stroke-width="1" fill="none" fill-rule="evenodd">
        <g id="doctor-" transform="translate(-304.000000, -56.000000)" fill="#E5E5E5">
            <g id="more">
                <g transform="translate(304.000000, 56.000000)">
                    <path d="M3.06359622,8.88888889 C1.37629137,8.88888889 0,10.2627195 0,11.9535797 C0,13.6444399 1.37629137,15.0184146 3.06359622,15.0184146 C3.34873091,15.0184146 3.58200002,14.7850982 3.58200002,14.5000056 C3.58200002,14.2147691 3.34873091,13.9814166 3.06359622,13.9814166 C1.94641677,13.9814166 1.03662764,13.0711584 1.03662764,11.9535797 C1.03662764,10.8360011 1.94641677,9.9257429 3.06359622,9.9257429 C4.18091964,9.9257429 5.09074477,10.8360011 5.09074477,11.9535797 C5.09074477,12.4375314 4.91808747,12.9042003 4.60412258,13.2700534 C4.41699619,13.4888956 4.44287499,13.8143505 4.66178299,14.0016878 C4.88054702,14.188881 5.2060296,14.1628489 5.39315598,13.9440068 C5.8682245,13.3909963 6.12733642,12.6824056 6.12733642,11.9535797 C6.12733642,10.265672 4.75385248,8.88888889 3.06359622,8.88888889 L3.06359622,8.88888889 Z" id="Fill-4"></path>
                    <path d="M3.06359622,17.7777778 C1.37629137,17.7777778 0,19.1516084 0,20.8424686 C0,22.5333288 1.37629137,23.9073035 3.06359622,23.9073035 C3.34873091,23.9073035 3.58200002,23.6739871 3.58200002,23.3888945 C3.58200002,23.1036579 3.34873091,22.8703055 3.06359622,22.8703055 C1.94641677,22.8703055 1.03662764,21.9600473 1.03662764,20.8424686 C1.03662764,19.72489 1.94641677,18.8146318 3.06359622,18.8146318 C4.18091964,18.8146318 5.09074477,19.72489 5.09074477,20.8424686 C5.09074477,21.3264203 4.91808747,21.7930892 4.60412258,22.1589423 C4.41699619,22.3777845 4.44287499,22.7032394 4.66178299,22.8905767 C4.88054702,23.0777699 5.2060296,23.0517378 5.39315598,22.8328956 C5.8682245,22.2798852 6.12733642,21.5712945 6.12733642,20.8424686 C6.12733642,19.1545609 4.75385248,17.7777778 3.06359622,17.7777778 L3.06359622,17.7777778 Z" id="Fill-4-Copy-2"></path>
                    <path d="M3.06359622,0 C1.37629137,0 0,1.37383066 0,3.06469086 C0,4.75555105 1.37629137,6.12952574 3.06359622,6.12952574 C3.34873091,6.12952574 3.58200002,5.89620928 3.58200002,5.61111674 C3.58200002,5.32588017 3.34873091,5.09252771 3.06359622,5.09252771 C1.94641677,5.09252771 1.03662764,4.18226948 1.03662764,3.06469086 C1.03662764,1.94711224 1.94641677,1.03685401 3.06359622,1.03685401 C4.18091964,1.03685401 5.09074477,1.94711224 5.09074477,3.06469086 C5.09074477,3.54864248 4.91808747,4.01531139 4.60412258,4.38116456 C4.41699619,4.60000675 4.44287499,4.9254616 4.66178299,5.11279887 C4.88054702,5.29999212 5.2060296,5.27396006 5.39315598,5.05511786 C5.8682245,4.50210745 6.12733642,3.79351674 6.12733642,3.06469086 C6.12733642,1.37678312 4.75385248,0 3.06359622,0 L3.06359622,0 Z" id="Fill-4-Copy"></path>
                </g>
            </g>
        </g>
    </g>
</svg>