<?xml version="1.0" encoding="UTF-8"?>
<svg width="24px" height="24px" viewBox="0 0 24 24" version="1.1" xmlns="http://www.w3.org/2000/svg" xmlns:xlink="http://www.w3.org/1999/xlink">
    <!-- Generator: Sketch 55 (78076) - https://sketchapp.com -->
    <title>ic_lock</title>
    <desc>Created with Sketch.</desc>
    <g id="ic_lock" stroke="none" stroke-width="1" fill="none" fill-rule="evenodd">
        <path d="M19.6997533,10.4590434 L19.3460294,10.4590434 L19.3460294,7.33226663 C19.3460294,3.29088282 16.0530344,0 11.9975401,0 C7.94721474,0 4.64905082,3.28578752 4.64905082,7.33226663 C4.64905082,7.70509375 4.94803469,8.00341758 5.32168669,8.00341758 C5.69533869,8.00341758 5.99407346,7.70509375 5.99407346,7.33226663 C5.99407346,4.03144175 8.68455468,1.3423019 11.9975401,1.3423019 C15.3057304,1.3423019 18.00082,4.026595 18.00082,7.33226663 L18.00082,10.4590434 L4.30024668,10.4590434 C3.58283484,10.4590434 3,11.0406537 3,11.7564196 L3,20.1127802 C3,22.2552934 4.7485668,24 6.89588256,24 L17.1041174,24 C19.2514332,24 21,22.2552934 21,20.1127802 L21,11.7564196 C21,11.0406537 20.4171652,10.4590434 19.6997533,10.4590434 L19.6997533,10.4590434 Z M19.6549774,20.1127802 C19.6549774,21.5144859 18.5140933,22.6580088 17.1041174,22.6580088 L6.90098914,22.6580088 C5.4958708,22.6580088 4.35012922,21.5195812 4.35012922,20.1127802 L4.35012922,11.8013453 L19.6549774,11.8013453 L19.6549774,20.1127802 Z M12.4999072,20 C13.8810782,20 15,18.8762515 15,17.4999072 C15,16.1187362 13.8762515,15 12.4999072,15 C11.1186743,15 10,16.1238103 10,17.4999072 C10,18.8762515 11.1186743,20 12.4999072,20 L12.4999072,20 Z M12.4999072,16.3316667 C13.1435873,16.3316667 13.6632591,16.8564127 13.6632591,17.4950805 C13.6632591,18.1336865 13.1435873,18.663321 12.4999072,18.663321 C11.8564127,18.663321 11.3367409,18.1385131 11.3367409,17.4999072 C11.3367409,16.8613012 11.8564127,16.3316667 12.4999072,16.3316667 L12.4999072,16.3316667 Z" fill="#969696"></path>
    </g>
</svg>