<?xml version="1.0" encoding="UTF-8"?>
<svg width="18px" height="24px" viewBox="0 0 18 24" version="1.1" xmlns="http://www.w3.org/2000/svg" xmlns:xlink="http://www.w3.org/1999/xlink">
    <!-- Generator: Sketch 55 (78076) - https://sketchapp.com -->
    <title>ic_transfusion</title>
    <desc>Created with Sketch.</desc>
    <g id="Screen" stroke="none" stroke-width="1" fill="none" fill-rule="evenodd">
        <g id="37_Indicators-Settings-Types" transform="translate(-37.000000, -340.000000)" fill="#4B66EA">
            <g id="doctor-" transform="translate(16.000000, 304.000000)">
                <g id="ic_transfusion" transform="translate(21.000000, 36.000000)">
                    <path d="M6.63809329,19.988438 L6.38230657,19.988438 C5.40011679,19.988438 4.60105109,19.1894307 4.60105109,18.2071825 L4.60105109,16.1859854 L2.61494891,16.1859854 C1.17313869,16.1859854 -8.8817842e-16,15.0128467 -8.8817842e-16,13.5710365 L-8.8817842e-16,2.63830657 C-8.8817842e-16,1.19649635 1.17313869,0.0233576642 2.61494891,0.0233576642 L11.9995328,0.0233576642 C13.4414015,0.0233576642 14.6144818,1.19649635 14.6144818,2.63830657 L14.6144818,9.61135589 C15.3247743,8.96960441 16.2654839,8.57833577 17.2958248,8.57833577 C17.6694891,8.57833577 17.9723796,8.88122628 17.9723796,9.25489051 C17.9723796,9.62849635 17.6694891,9.93144526 17.2958248,9.93144526 C15.8343942,9.93144526 14.6450803,11.1205255 14.6450803,12.5819562 L14.6450803,15.5015249 C14.6452357,15.5074892 14.6453139,15.5134727 14.6453139,15.5194745 L14.6453139,19.9380438 C14.6453139,22.145635 12.8492263,23.9417226 10.6414015,23.9417226 C8.45069032,23.9417226 6.66517779,22.1729036 6.63809329,19.988438 Z M7.99136246,19.988438 C8.01832142,21.4267127 9.19680815,22.5886131 10.641635,22.5886131 C12.1031241,22.5886131 13.2922044,21.3994745 13.2922044,19.9380438 L13.2922044,16.5982774 L13.2922044,15.8435484 C12.9107194,16.0614066 12.4693978,16.1859854 11.9995328,16.1859854 L5.95416058,16.1859854 L5.95416058,18.2071825 C5.95416058,18.4432701 6.14621898,18.6353285 6.38230657,18.6353285 L8.23223358,18.6353285 C8.46832117,18.6353285 8.66014599,18.4432701 8.66014599,18.2071825 L8.66014599,17.5981898 C8.66014599,17.2245255 8.9630365,16.921635 9.33670073,16.921635 C9.71030657,16.921635 10.0132555,17.2245255 10.0132555,17.5981898 L10.0132555,18.2071825 C10.0132555,19.1894307 9.21418978,19.988438 8.23223358,19.988438 L7.99136246,19.988438 Z M10.4468321,13.8164672 C11.4381898,13.8164672 12.2449635,13.009927 12.2449635,12.0183358 L12.2449635,6.67894891 C12.2449635,5.68759124 11.4381898,4.8809927 10.4468321,4.8809927 L4.16764964,4.8809927 C3.17611679,4.8809927 2.36951825,5.68759124 2.36951825,6.67894891 L2.36951825,12.0183358 C2.36951825,13.009927 3.17635036,13.8164672 4.16764964,13.8164672 L10.4468321,13.8164672 Z M6.28011679,9.93144526 L0.676554745,9.93144526 C0.302948905,9.93144526 -8.8817842e-16,9.62849635 -8.8817842e-16,9.25489051 C-8.8817842e-16,8.88122628 0.302948905,8.57833577 0.676554745,8.57833577 L6.28011679,8.57833577 C6.65372263,8.57833577 6.95667153,8.88122628 6.95667153,9.25489051 C6.95667153,9.62849635 6.65372263,9.93144526 6.28011679,9.93144526 L6.28011679,9.93144526 Z" id="Fill-1"></path>
                </g>
            </g>
        </g>
    </g>
</svg>