<?xml version="1.0" encoding="UTF-8"?>
<svg width="24px" height="24px" viewBox="0 0 24 24" version="1.1" xmlns="http://www.w3.org/2000/svg" xmlns:xlink="http://www.w3.org/1999/xlink">
    <!-- Generator: Sketch 55 (78076) - https://sketchapp.com -->
    <title>ic_weight</title>
    <desc>Created with Sketch.</desc>
    <g id="Screen" stroke="none" stroke-width="1" fill="none" fill-rule="evenodd">
        <g id="37_Indicators-Settings-Types" transform="translate(-34.000000, -460.000000)">
            <g id="doctor-" transform="translate(16.000000, 424.000000)">
                <g id="ic_weight" transform="translate(18.000000, 36.000000)">
                    <path d="M21.3350049,23.8829854 L2.64146341,23.8829854 C1.18489756,23.8829854 0,22.6980878 0,21.2412878 L0,6.03160976 C0,4.5750439 1.18489756,3.3899122 2.64146341,3.3899122 L21.335239,3.3899122 C22.7917463,3.3899122 23.9767024,4.5750439 23.9767024,6.03160976 L23.9767024,6.88858537 C23.9767024,7.28897561 23.652,7.61367805 23.2516098,7.61367805 C22.8512195,7.61367805 22.5265171,7.28897561 22.5265171,6.88858537 L22.5265171,6.03160976 C22.5265171,5.37441951 21.9921366,4.84003902 21.335239,4.84003902 L2.64146341,4.84003902 C1.98450732,4.84003902 1.45012683,5.37441951 1.45012683,6.03160976 L1.45012683,21.241522 C1.45012683,21.8984195 1.98450732,22.4328 2.64146341,22.4328 L21.3350049,22.4328 C21.9919024,22.4328 22.5265171,21.8984195 22.5265171,21.241522 L22.5265171,10.8811902 C22.5265171,10.4808585 22.8512195,10.1561561 23.2516098,10.1561561 C23.652,10.1561561 23.9767024,10.4808585 23.9767024,10.8811902 L23.9767024,21.2412878 C23.9767024,22.6980878 22.7915122,23.8829854 21.3350049,23.8829854 L21.3350049,23.8829854 Z" id="Fill-1" fill="#4B66EA"></path>
                    <path d="M18.9144,7.67771707 C18.9144,11.5029659 15.8133659,14.6037659 11.9883512,14.6037659 C8.16310244,14.6037659 5.0622439,11.5029659 5.0622439,7.67771707 C5.0622439,3.85246829 8.16310244,0.751668293 11.9883512,0.751668293 C15.8133659,0.751668293 18.9144,3.85246829 18.9144,7.67771707 L18.9144,7.67771707 Z" id="Fill-4" fill="#FFFFFF"></path>
                    <path d="M11.9883512,15.3290927 C7.76956098,15.3290927 4.3374439,11.8969171 4.3374439,7.67818537 C4.3374439,3.45939512 7.76956098,0.0272780488 11.9883512,0.0272780488 C16.2070829,0.0272780488 19.6392585,3.45939512 19.6392585,7.67818537 C19.6392585,11.8969171 16.2068488,15.3290927 11.9883512,15.3290927 L11.9883512,15.3290927 Z M11.9883512,1.47740488 C8.56922927,1.47740488 5.78757073,4.25906341 5.78757073,7.67818537 C5.78757073,11.0973073 8.56922927,13.8789073 11.9883512,13.8789073 C15.4074732,13.8789073 18.1890732,11.0973073 18.1890732,7.67818537 C18.1890732,4.25906341 15.407239,1.47740488 11.9883512,1.47740488 L11.9883512,1.47740488 Z" id="Fill-5" fill="#4B66EA"></path>
                    <path d="M12.8231415,7.67771707 C12.8231415,8.13869268 12.4493268,8.51256585 11.9883512,8.51256585 C11.5273756,8.51256585 11.1535024,8.13869268 11.1535024,7.67771707 C11.1535024,7.21674146 11.5273756,6.84286829 11.9883512,6.84286829 C12.4493268,6.84286829 12.8231415,7.21674146 12.8231415,7.67771707 L12.8231415,7.67771707 Z" id="Fill-6" fill="#4B66EA"></path>
                    <path d="M11.9883512,9.23783415 C11.1280976,9.23783415 10.4284098,8.53838049 10.4284098,7.67818537 C10.4284098,6.81793171 11.1280976,6.1182439 11.9883512,6.1182439 C12.8485463,6.1182439 13.548,6.81793171 13.548,7.67818537 C13.548,8.53838049 12.8483122,9.23783415 11.9883512,9.23783415 L11.9883512,9.23783415 Z M11.9883512,7.56842927 C11.9277659,7.56842927 11.8785951,7.61777561 11.8785951,7.67818537 C11.8785951,7.73877073 11.9277659,7.78794146 11.9883512,7.78794146 C12.0487024,7.78794146 12.0981073,7.73877073 12.0981073,7.67818537 C12.0981073,7.61777561 12.0487024,7.56842927 11.9883512,7.56842927 L11.9883512,7.56842927 Z" id="Fill-7" fill="#4B66EA"></path>
                    <path d="M11.9883512,11.7718244 C11.587961,11.7718244 11.2632585,11.447122 11.2632585,11.0467902 L11.2632585,7.67818537 C11.2632585,7.27779512 11.587961,6.95309268 11.9883512,6.95309268 C12.3887415,6.95309268 12.7134439,7.27779512 12.7134439,7.67818537 L12.7134439,11.0467902 C12.7134439,11.447122 12.3887415,11.7718244 11.9883512,11.7718244 L11.9883512,11.7718244 Z" id="Fill-8" fill="#4B66EA"></path>
                </g>
            </g>
        </g>
    </g>
</svg>